{
.appVersion = "1224";
DisplayStrings = (
"OHnhda/Placeholder neo/Placeholder \012IIII/Placeholder IIII"
);
classes = (
{
automatic = 1;
code = "A AE B C D Eth E F G H I J K L Lslash M N O Oslash OE P Thorn Q R S T U V W X Y Z Aacute Acircumflex Adieresis Agrave Aring Atilde Ccedilla Eacute Ecircumflex Edieresis Egrave Iacute Icircumflex Idieresis Igrave Ntilde Oacute Ocircumflex Odieresis Ograve Otilde Scaron Uacute Ucircumflex Udieresis Ugrave Yacute Ydieresis Zcaron Delta Omega";
name = Uppercase;
},
{
code = "b l h ";
name = ascenders;
}
);
copyright = "Copyright © 2019 by LV=. All rights reserved.";
customParameters = (
{
name = vendorID;
value = bvf;
},
{
name = glyphOrder;
value = (
A,
Aogonek,
AE,
B,
C,
D,
Eth,
E,
Eogonek,
F,
G,
H,
Hbar,
I,
Iogonek,
I_J.loclNLD,
J,
K,
L,
Lcaron,
Ldot,
Lslash,
M,
N,
Eng,
O,
Oslash,
Ohorn,
Oogonek,
OE,
P,
Thorn,
Q,
R,
S,
Germandbls,
Schwa,
T,
Tbar,
U,
Uogonek,
Uhorn,
V,
W,
X,
Y,
Z,
a,
aogonek,
ae,
b,
c,
d,
dcaron,
dcroat,
eth,
e,
eogonek,
f,
g,
h,
hbar,
i,
idotless,
iogonek,
i_j.loclNLD,
j,
jdotless,
k,
kgreenlandic,
l,
ldot,
lcaron,
lslash,
m,
n,
eng,
o,
oogonek,
oslash,
ohorn,
oe,
p,
thorn,
q,
r,
s,
germandbls,
schwa,
t,
tbar,
tcaron,
u,
uogonek,
uhorn,
v,
w,
x,
y,
z
);
},
{
name = "Disable Subroutines";
value = 1;
}
);
date = "2019-03-28 14:31:11 +0000";
designer = "Jacques Le Bailly";
disablesNiceNames = 1;
familyName = "LV UpItalicTexttest";
featurePrefixes = (
{
automatic = 1;
code = "languagesystem DFLT dflt;\012languagesystem latn dflt;\012languagesystem cyrl dflt;\012languagesystem latn NLD;\012languagesystem latn CAT;\012languagesystem latn ROM;\012languagesystem latn MOL;\012languagesystem latn KAZ;\012languagesystem latn TRK;\012languagesystem latn CRT;\012languagesystem latn AZE;\012languagesystem cyrl TAT;\012";
name = Languagesystems;
}
);
features = (
{
automatic = 1;

glyphs = (
{
color = 3;
glyphname = A;
lastChange = "2019-03-14 10:23:03 +0000";
layers = (
{
background = {
paths = (
{
closed = 1;
nodes = (
"105 0 LINE",
"367 644 LINE",
"335 644 LINE",
"586 0 LINE",
"671 0 LINE",
"387 710 LINE",
"316 710 LINE",
"20 0 LINE"
);
},
{
closed = 1;
nodes = (
"549 188 LINE",
"531 257 LINE",
"166 257 LINE",
"150 188 LINE"
);
}
);
};
layerId = "A3B50665-EA37-4AC6-885C-1233CA61B6BD";
paths = (
{
closed = 1;
nodes = (
"109 0 LINE",
"370 644 LINE",
"342 644 LINE",
"592 0 LINE",
"676 0 LINE",
"392 710 LINE",
"321 710 LINE",
"25 0 LINE"
);
},
{
closed = 1;
nodes = (
"554 188 LINE",
"536 257 LINE",
"171 257 LINE",
"155 188 LINE"
);
}
);
width = 705;
},
{
background = {
paths = (
{
closed = 1;
nodes = (
"958 0 LINE",
"1201 589 LINE",
"1145 591 LINE",
"1383 0 LINE",
"1540 0 LINE",
"1240 710 LINE",
"1109 710 LINE",
"799 0 LINE"
);
},
{
closed = 1;
nodes = (
"1391 149 LINE",
"1329 279 LINE",
"1020 279 LINE",
"958 149 LINE"
);
},
{
closed = 1;
nodes = (
"162 0 LINE",
"397 589 LINE",
"341 591 LINE",
"579 0 LINE",
"736 0 LINE",
"435 710 LINE",
"304 710 LINE",
"3 0 LINE"
);
},
{
closed = 1;
nodes = (
"587 149 LINE",
"525 279 LINE",
"224 279 LINE",
"162 149 LINE"
);
}
);
};
layerId = "014D4A40-7C7F-4023-B30E-1F55CE5EA091";
paths = (
{
closed = 1;
nodes = (
"159 0 LINE",
"399 589 LINE",
"343 591 LINE",
"576 0 LINE",
"733 0 LINE",
"438 710 LINE",
"307 710 LINE",
"0 0 LINE"
);
},
{
closed = 1;
nodes = (
"585 149 LINE",
"524 279 LINE",
"223 279 LINE",
"160 149 LINE"
);
}
);
width = 737;
}
);
unicode = 0041;
},
{
color = 9;
glyphname = AE;
lastChange = "2019-03-28 16:17:53 +0000";
layers = (
{
background = {
paths = (
{
closed = 1;
nodes = (
"109 0 LINE",
"380 669 LINE",
"349 640 LINE",
"491 640 LINE",
"491 710 LINE",
"321 710 LINE",
"25 0 LINE"
);
},
{
closed = 1;
nodes = (
"491 188 LINE",
"491 257 LINE",
"171 257 LINE",
"155 188 LINE"
);
},
{
closed = 1;
nodes = (
"867 710 LINE",
"461 710 LINE",
"461 0 LINE",
"874 0 LINE",
"884 71 LINE",
"542 71 LINE",
"542 325 LINE",
"857 325 LINE",
"857 395 LINE",
"542 395 LINE",
"542 640 LINE",
"867 640 LINE"
);
}
);
};
layerId = "A3B50665-EA37-4AC6-885C-1233CA61B6BD";
paths = (
{
closed = 1;
nodes = (
"109 0 LINE",
"380 669 LINE",
"349 640 LINE",
"491 640 LINE",
"491 710 LINE",
"321 710 LINE",
"25 0 LINE"
);
},
{
closed = 1;
nodes = (
"491 188 LINE",
"491 257 LINE",
"171 257 LINE",
"155 188 LINE"
);
},
{
closed = 1;
nodes = (
"867 710 LINE",
"461 710 LINE",
"461 0 LINE",
"874 0 LINE",
"884 71 LINE",
"542 71 LINE",
"542 325 LINE",
"857 325 LINE",
"857 395 LINE",
"542 395 LINE",
"542 640 LINE",
"867 640 LINE"
);
}
);
width = 923;
},
{
background = {
paths = (
{
closed = 1;
nodes = (
"159 0 LINE",
"407 609 LINE",
"361 574 LINE",
"508 574 LINE",
"508 710 LINE",
"307 710 LINE",
"0 0 LINE"
);
},
{
closed = 1;
nodes = (
"508 149 LINE",
"508 279 LINE",
"223 279 LINE",
"160 149 LINE"
);
},
{
closed = 1;
nodes = (
"936 710 LINE",
"466 710 LINE",
"466 0 LINE",
"936 0 LINE",
"946 138 LINE",
"620 138 LINE",
"620 290 LINE",
"916 290 LINE",
"916 426 LINE",
"620 426 LINE",
"620 574 LINE",
"936 574 LINE"
);
}
);
};
layerId = "014D4A40-7C7F-4023-B30E-1F55CE5EA091";
paths = (
{
closed = 1;
nodes = (
"159 0 LINE",
"407 609 LINE",
"361 576 LINE",
"508 576 LINE",
"508 710 LINE",
"307 710 LINE",
"0 0 LINE"
);
},
{
closed = 1;
nodes = (
"508 147 LINE",
"508 281 LINE",
"223 281 LINE",
"160 147 LINE"
);
},
{
closed = 1;
nodes = (
"936 710 LINE",
"466 710 LINE",
"466 0 LINE",
"936 0 LINE",
"946 135 LINE",
"620 135 LINE",
"620 291 LINE",
"916 291 LINE",
"916 425 LINE",
"620 425 LINE",
"620 576 LINE",
"936 576 LINE"
);
}
);
width = 987;
}
);
leftMetricsKey = A;
rightMetricsKey = E;
unicode = 00C6;
},
{
color = 3;
glyphname = B;
lastChange = "2019-03-28 16:12:32 +0000";
layers = (
{
anchors = (
{
name = bottom;
position = "{347, 0}";
},
{
name = top;
position = "{346, 712}";
}
);
background = {
paths = (
{
closed = 1;
nodes = (
"315 0 LINE SMOOTH",
"489 0 OFFCURVE",
"577 69 OFFCURVE",
"577 196 CURVE SMOOTH",
"577 281 OFFCURVE",
"522 346 OFFCURVE",
"436 365 CURVE",
"427 353 LINE",
"519 374 OFFCURVE",
"573 439 OFFCURVE",
"573 521 CURVE SMOOTH",
"573 643 OFFCURVE",
"477 710 OFFCURVE",
"290 710 CURVE SMOOTH",
"94 710 LINE",
"94 0 LINE"
);
},
{
closed = 1;
nodes = (
"175 642 LINE",
"276 642 LINE SMOOTH",
"430 642 OFFCURVE",
"492 606 OFFCURVE",
"492 520 CURVE SMOOTH",
"492 432 OFFCURVE",
"429 392 OFFCURVE",
"306 392 CURVE SMOOTH",
"161 392 LINE",
"161 323 LINE",
"329 323 LINE SMOOTH",
"439 323 OFFCURVE",
"496 281 OFFCURVE",
"496 196 CURVE SMOOTH",
"496 107 OFFCURVE",
"444 69 OFFCURVE",
"309 69 CURVE SMOOTH",
"175 69 LINE"
);
}
);
};
layerId = "A3B50665-EA37-4AC6-885C-1233CA61B6BD";
paths = (
{
closed = 1;
nodes = (
"339 0 LINE SMOOTH",
"486 0 OFFCURVE",
"577 69 OFFCURVE",
"577 196 CURVE SMOOTH",
"577 281 OFFCURVE",
"518 349 OFFCURVE",
"427 367 CURVE",
"427 353 LINE",
"519 374 OFFCURVE",
"569 439 OFFCURVE",
"569 521 CURVE SMOOTH",
"569 643 OFFCURVE",
"473 710 OFFCURVE",
"276 710 CURVE SMOOTH",
"94 710 LINE",
"94 0 LINE"
);
},
{
closed = 1;
nodes = (
"175 642 LINE",
"272 642 LINE SMOOTH",
"426 642 OFFCURVE",
"488 606 OFFCURVE",
"488 520 CURVE SMOOTH",
"488 432 OFFCURVE",
"425 392 OFFCURVE",
"302 392 CURVE SMOOTH",
"161 392 LINE",
"161 323 LINE",
"329 323 LINE SMOOTH",
"439 323 OFFCURVE",
"496 280 OFFCURVE",
"496 194 CURVE SMOOTH",
"496 106 OFFCURVE",
"434 69 OFFCURVE",
"337 69 CURVE SMOOTH",
"175 69 LINE"
);
}
);
width = 639;
},
{
anchors = (
{
name = bottom;
position = "{358, 0}";
},
{
name = top;
position = "{358, 712}";
}
);
background = {
paths = (
{
closed = 1;
nodes = (
"378 0 LINE SMOOTH",
"526 0 OFFCURVE",
"627 84 OFFCURVE",
"627 207 CURVE SMOOTH",
"627 290 OFFCURVE",
"574 348 OFFCURVE",
"515 368 CURVE",
"495 351 LINE",
"571 377 OFFCURVE",
"618 437 OFFCURVE",
"618 513 CURVE SMOOTH",
"618 643 OFFCURVE",
"510 710 OFFCURVE",
"322 710 CURVE SMOOTH",
"76 710 LINE",
"76 0 LINE"
);
},
{
closed = 1;
nodes = (
"229 583 LINE",
"334 583 LINE SMOOTH",
"426 583 OFFCURVE",
"463 557 OFFCURVE",
"463 505 CURVE SMOOTH",
"463 446 OFFCURVE",
"421 421 OFFCURVE",
"332 421 CURVE SMOOTH",
"213 421 LINE",
"213 294 LINE",
"355 294 LINE SMOOTH",
"436 294 OFFCURVE",
"472 268 OFFCURVE",
"472 208 CURVE SMOOTH",
"472 153 OFFCURVE",
"430 128 OFFCURVE",
"355 128 CURVE SMOOTH",
"229 128 LINE"
);
}
);
};
layerId = "014D4A40-7C7F-4023-B30E-1F55CE5EA091";
paths = (
{
closed = 1;
nodes = (
"368 0 LINE SMOOTH",
"526 0 OFFCURVE",
"627 84 OFFCURVE",
"627 207 CURVE SMOOTH",
"627 290 OFFCURVE",
"574 355 OFFCURVE",
"495 375 CURVE",
"495 351 LINE",
"567 377 OFFCURVE",
"614 437 OFFCURVE",
"614 513 CURVE SMOOTH",
"614 643 OFFCURVE",
"507 710 OFFCURVE",
"331 710 CURVE SMOOTH",
"76 710 LINE",
"76 0 LINE"
);
},
{
closed = 1;
nodes = (
"229 583 LINE",
"330 583 LINE SMOOTH",
"422 583 OFFCURVE",
"459 557 OFFCURVE",
"459 505 CURVE SMOOTH",
"459 446 OFFCURVE",
"417 421 OFFCURVE",
"328 421 CURVE SMOOTH",
"213 421 LINE",
"213 294 LINE",
"355 294 LINE SMOOTH",
"437 294 OFFCURVE",
"472 268 OFFCURVE",
"472 213 CURVE SMOOTH",
"472 153 OFFCURVE",
"428 128 OFFCURVE",
"355 128 CURVE SMOOTH",
"229 128 LINE"
);
}
);
width = 670;
}
);
leftMetricsKey = H;
unicode = 0042;
},
{
color = 3;
glyphname = C;
lastChange = "2019-03-12 13:07:15 +0000";
layers = (
{
background = {
paths = (
{
closed = 1;
nodes = (
"1389 184 LINE",
"1348 108 OFFCURVE",
"1278 68 OFFCURVE",
"1186 68 CURVE SMOOTH",
"1032 68 OFFCURVE",
"942 169 OFFCURVE",
"942 342 CURVE SMOOTH",
"942 521 OFFCURVE",
"1048 645 OFFCURVE",
"1201 645 CURVE SMOOTH",
"1286 645 OFFCURVE",
"1349 609 OFFCURVE",
"1389 537 CURVE",
"1453 585 LINE",
"1401 674 OFFCURVE",
"1316 720 OFFCURVE",
"1205 720 CURVE SMOOTH",
"1000 720 OFFCURVE",
"859 566 OFFCURVE",
"859 342 CURVE SMOOTH",
"859 124 OFFCURVE",
"983 -8 OFFCURVE",
"1186 -8 CURVE SMOOTH",
"1304 -8 OFFCURVE",
"1400 43 OFFCURVE",
"1452 136 CURVE"
);
},
{
closed = 1;
nodes = (
"573 -8 OFFCURVE",
"712 139 OFFCURVE",
"712 369 CURVE SMOOTH",
"712 580 OFFCURVE",
"587 720 OFFCURVE",
"400 720 CURVE SMOOTH",
"199 720 OFFCURVE",
"59 564 OFFCURVE",
"59 342 CURVE SMOOTH",
"59 120 OFFCURVE",
"182 -8 OFFCURVE",
"382 -8 CURVE SMOOTH"
);
},
{
closed = 1;
nodes = (
"233 68 OFFCURVE",
"142 166 OFFCURVE",
"142 342 CURVE SMOOTH",
"142 524 OFFCURVE",
"250 645 OFFCURVE",
"401 645 CURVE SMOOTH",
"541 645 OFFCURVE",
"630 538 OFFCURVE",
"630 371 CURVE SMOOTH",
"630 179 OFFCURVE",
"528 68 OFFCURVE",
"382 68 CURVE SMOOTH"
);
}
);
};
guideLines = (
{
angle = 90;
position = "{751, 356}";
},
{
angle = 90;
position = "{814, 356}";
}
);
layerId = "A3B50665-EA37-4AC6-885C-1233CA61B6BD";
paths = (
{
closed = 1;
nodes = (
"594 184 LINE",
"553 108 OFFCURVE",
"483 70 OFFCURVE",
"391 70 CURVE SMOOTH",
"239 70 OFFCURVE",
"149 169 OFFCURVE",
"149 342 CURVE SMOOTH",
"149 521 OFFCURVE",
"255 643 OFFCURVE",
"406 643 CURVE SMOOTH",
"491 643 OFFCURVE",
"554 609 OFFCURVE",
"594 537 CURVE",
"658 585 LINE",
"606 674 OFFCURVE",
"521 720 OFFCURVE",
"410 720 CURVE SMOOTH",
"205 720 OFFCURVE",
"64 566 OFFCURVE",
"64 342 CURVE SMOOTH",
"64 124 OFFCURVE",
"188 -8 OFFCURVE",
"391 -8 CURVE SMOOTH",
"509 -8 OFFCURVE",
"605 43 OFFCURVE",
"657 136 CURVE"
);
}
);
width = 683;
},
{
background = {
paths = (
{
closed = 1;
nodes = (
"598 -8 OFFCURVE",
"744 139 OFFCURVE",
"744 369 CURVE SMOOTH",
"744 580 OFFCURVE",
"610 720 OFFCURVE",
"408 720 CURVE SMOOTH",
"180 720 OFFCURVE",
"39 564 OFFCURVE",
"39 342 CURVE SMOOTH",
"39 120 OFFCURVE",
"172 -12 OFFCURVE",
"395 -10 CURVE SMOOTH"
);
},
{
closed = 1;
nodes = (
"270 129 OFFCURVE",
"198 207 OFFCURVE",
"198 345 CURVE SMOOTH",
"198 486 OFFCURVE",
"284 582 OFFCURVE",
"404 582 CURVE SMOOTH",
"515 582 OFFCURVE",
"586 497 OFFCURVE",
"586 368 CURVE SMOOTH",
"586 217 OFFCURVE",
"505 129 OFFCURVE",
"389 129 CURVE SMOOTH"
);
},
{
closed = 1;
nodes = (
"574 231 LINE",
"536 163 OFFCURVE",
"469 129 OFFCURVE",
"402 129 CURVE SMOOTH",
"274 129 OFFCURVE",
"198 208 OFFCURVE",
"198 344 CURVE SMOOTH",
"198 484 OFFCURVE",
"287 582 OFFCURVE",
"414 582 CURVE SMOOTH",
"477 582 OFFCURVE",
"538 552 OFFCURVE",
"572 489 CURVE",
"689 576 LINE",
"627 673 OFFCURVE",
"541 720 OFFCURVE",
"415 720 CURVE SMOOTH",
"192 720 OFFCURVE",
"39 566 OFFCURVE",
"39 341 CURVE SMOOTH",
"39 122 OFFCURVE",
"173 -10 OFFCURVE",
"400 -10 CURVE SMOOTH",
"523 -10 OFFCURVE",
"630 43 OFFCURVE",
"688 139 CURVE"
);
}
);
};
layerId = "014D4A40-7C7F-4023-B30E-1F55CE5EA091";
paths = (
{
closed = 1;
nodes = (
"574 231 LINE",
"536 163 OFFCURVE",
"469 132 OFFCURVE",
"402 132 CURVE SMOOTH",
"276 132 OFFCURVE",
"201 208 OFFCURVE",
"201 344 CURVE SMOOTH",
"201 484 OFFCURVE",
"289 579 OFFCURVE",
"414 579 CURVE SMOOTH",
"477 579 OFFCURVE",
"538 552 OFFCURVE",
"572 489 CURVE",
"689 576 LINE",
"627 673 OFFCURVE",
"541 720 OFFCURVE",
"415 720 CURVE SMOOTH",
"192 720 OFFCURVE",
"39 566 OFFCURVE",
"39 341 CURVE SMOOTH",
"39 122 OFFCURVE",
"173 -10 OFFCURVE",
"400 -10 CURVE SMOOTH",
"523 -10 OFFCURVE",
"630 43 OFFCURVE",
"688 139 CURVE"
);
}
);
width = 704;
}
);
leftMetricsKey = O;
unicode = 0043;
},
{
color = 3;
glyphname = D;
lastChange = "2019-03-28 16:14:14 +0000";
layers = (
{
background = {
paths = (
{
closed = 1;
nodes = (
"306 0 LINE SMOOTH",
"545 0 OFFCURVE",
"690 136 OFFCURVE",
"690 359 CURVE SMOOTH",
"690 591 OFFCURVE",
"553 710 OFFCURVE",
"287 710 CURVE SMOOTH",
"94 710 LINE",
"94 0 LINE"
);
},
{
closed = 1;
nodes = (
"177 635 LINE",
"290 635 LINE SMOOTH",
"504 635 OFFCURVE",
"606 544 OFFCURVE",
"606 354 CURVE SMOOTH",
"606 170 OFFCURVE",
"503 76 OFFCURVE",
"302 76 CURVE SMOOTH",
"177 76 LINE"
);
}
);
};
layerId = "A3B50665-EA37-4AC6-885C-1233CA61B6BD";
paths = (
{
closed = 1;
nodes = (
"306 0 LINE SMOOTH",
"547 0 OFFCURVE",
"689 136 OFFCURVE",
"689 359 CURVE SMOOTH",
"689 591 OFFCURVE",
"553 710 OFFCURVE",
"277 710 CURVE SMOOTH",
"94 710 LINE",
"94 0 LINE"
);
},
{
closed = 1;
nodes = (
"177 635 LINE",
"290 635 LINE SMOOTH",
"504 635 OFFCURVE",
"606 544 OFFCURVE",
"606 354 CURVE SMOOTH",
"606 170 OFFCURVE",
"503 76 OFFCURVE",
"302 76 CURVE SMOOTH",
"177 76 LINE"
);
}
);
width = 753;
},
{
background = {
paths = (
{
closed = 1;
nodes = (
"345 0 LINE SMOOTH",
"581 0 OFFCURVE",
"728 146 OFFCURVE",
"728 357 CURVE SMOOTH",
"728 589 OFFCURVE",
"582 710 OFFCURVE",
"302 710 CURVE SMOOTH",
"76 710 LINE",
"76 0 LINE"
);
},
{
closed = 1;
nodes = (
"232 573 LINE",
"322 573 LINE SMOOTH",
"484 573 OFFCURVE",
"567 503 OFFCURVE",
"567 352 CURVE SMOOTH",
"567 210 OFFCURVE",
"485 139 OFFCURVE",
"338 139 CURVE SMOOTH",
"232 139 LINE"
);
}
);
};
layerId = "014D4A40-7C7F-4023-B30E-1F55CE5EA091";
paths = (
{
closed = 1;
nodes = (
"345 0 LINE SMOOTH",
"576 0 OFFCURVE",
"726 146 OFFCURVE",
"726 357 CURVE SMOOTH",
"726 589 OFFCURVE",
"582 710 OFFCURVE",
"302 710 CURVE SMOOTH",
"76 710 LINE",
"76 0 LINE"
);
},
{
closed = 1;
nodes = (
"232 573 LINE",
"322 573 LINE SMOOTH",
"484 573 OFFCURVE",
"567 503 OFFCURVE",
"567 352 CURVE SMOOTH",
"567 210 OFFCURVE",
"485 139 OFFCURVE",
"338 139 CURVE SMOOTH",
"232 139 LINE"
);
}
);
width = 767;
}
);
leftMetricsKey = H;
rightMetricsKey = O;
unicode = 0044;
},
{
color = 9;
glyphname = E;
lastChange = "2019-03-28 16:18:16 +0000";
layers = (
{
background = {
paths = (
{
closed = 1;
nodes = (
"505 710 LINE",
"89 710 LINE",
"89 0 LINE",
"512 0 LINE",
"522 72 LINE",
"172 72 LINE",
"172 325 LINE",
"495 325 LINE",
"495 395 LINE",
"172 395 LINE",
"172 638 LINE",
"505 638 LINE"
);
}
);
};
layerId = "A3B50665-EA37-4AC6-885C-1233CA61B6BD";
paths = (
{
closed = 1;
nodes = (
"510 710 LINE",
"94 710 LINE",
"94 0 LINE",
"517 0 LINE",
"527 71 LINE",
"175 71 LINE",
"175 325 LINE",
"500 325 LINE",
"500 395 LINE",
"175 395 LINE",
"175 640 LINE",
"510 640 LINE"
);
}
);
width = 566;
},
{
background = {
paths = (
{
closed = 1;
nodes = (
"556 710 LINE",
"76 710 LINE",
"76 0 LINE",
"556 0 LINE",
"566 138 LINE",
"230 138 LINE",
"230 290 LINE",
"536 290 LINE",
"536 426 LINE",
"230 426 LINE",
"230 574 LINE",
"556 574 LINE"
);
}
);
};
layerId = "014D4A40-7C7F-4023-B30E-1F55CE5EA091";
paths = (
{
closed = 1;
nodes = (
"556 710 LINE",
"76 710 LINE",
"76 0 LINE",
"556 0 LINE",
"566 135 LINE",
"230 135 LINE",
"230 291 LINE",
"536 291 LINE",
"536 425 LINE",
"230 425 LINE",
"230 576 LINE",
"556 576 LINE"
);
}
);
width = 607;
}
);
leftMetricsKey = H;
unicode = 0045;
},
{
color = 3;
glyphname = F;
lastChange = "2019-03-28 16:18:35 +0000";
layers = (
{
background = {
paths = (
{
closed = 1;
nodes = (
"485 710 LINE",
"89 710 LINE",
"89 0 LINE",
"172 0 LINE",
"172 315 LINE",
"475 315 LINE",
"475 385 LINE",
"172 385 LINE",
"172 638 LINE",
"485 638 LINE"
);
}
);
};
layerId = "A3B50665-EA37-4AC6-885C-1233CA61B6BD";
paths = (
{
closed = 1;
nodes = (
"490 710 LINE",
"94 710 LINE",
"94 0 LINE",
"175 0 LINE",
"175 315 LINE",
"480 315 LINE",
"480 385 LINE",
"175 385 LINE",
"175 640 LINE",
"490 640 LINE"
);
}
);
width = 523;
},
{
background = {
paths = (
{
closed = 1;
nodes = (
"533 710 LINE",
"76 710 LINE",
"76 0 LINE",
"230 0 LINE",
"230 280 LINE",
"513 280 LINE",
"513 416 LINE",
"230 416 LINE",
"230 574 LINE",
"533 574 LINE"
);
}
);
};
layerId = "014D4A40-7C7F-4023-B30E-1F55CE5EA091";
paths = (
{
closed = 1;
nodes = (
"533 710 LINE",
"76 710 LINE",
"76 0 LINE",
"230 0 LINE",
"230 281 LINE",
"513 281 LINE",
"513 415 LINE",
"230 415 LINE",
"230 576 LINE",
"533 576 LINE"
);
}
);
width = 573;
}
);
leftMetricsKey = H;
unicode = 0046;
},
{
color = 3;
glyphname = G;
lastChange = "2019-03-28 16:20:06 +0000";
layers = (
{
background = {
paths = (
{
closed = 1;
nodes = (
"425 279 LINE",
"621 279 LINE",
"599 324 LINE",
"597 248 LINE SMOOTH",
"594 136 OFFCURVE",
"514 68 OFFCURVE",
"387 68 CURVE SMOOTH",
"240 68 OFFCURVE",
"148 166 OFFCURVE",
"148 342 CURVE SMOOTH",
"148 519 OFFCURVE",
"259 643 OFFCURVE",
"414 643 CURVE SMOOTH",
"503 643 OFFCURVE",
"567 608 OFFCURVE",
"606 537 CURVE",
"670 585 LINE",
"618 674 OFFCURVE",
"532 720 OFFCURVE",
"418 720 CURVE SMOOTH",
"211 720 OFFCURVE",
"64 566 OFFCURVE",
"64 342 CURVE SMOOTH",
"64 123 OFFCURVE",
"183 -8 OFFCURVE",
"381 -8 CURVE SMOOTH",
"494 -8 OFFCURVE",
"571 32 OFFCURVE",
"621 117 CURVE",
"599 107 LINE",
"611 0 LINE",
"676 0 LINE",
"676 347 LINE",
"425 347 LINE"
);
}
);
};
guideLines = (
{
angle = 90;
position = "{751, 356}";
},
{
angle = 90;
position = "{814, 356}";
}
);
layerId = "A3B50665-EA37-4AC6-885C-1233CA61B6BD";
paths = (
{
closed = 1;
nodes = (
"425 279 LINE",
"621 279 LINE",
"598 324 LINE",
"597 248 LINE SMOOTH",
"596 136 OFFCURVE",
"514 68 OFFCURVE",
"387 68 CURVE SMOOTH",
"240 68 OFFCURVE",
"148 166 OFFCURVE",
"148 342 CURVE SMOOTH",
"148 519 OFFCURVE",
"259 643 OFFCURVE",
"414 643 CURVE SMOOTH",
"503 643 OFFCURVE",
"567 608 OFFCURVE",
"606 537 CURVE",
"670 585 LINE",
"618 674 OFFCURVE",
"532 720 OFFCURVE",
"418 720 CURVE SMOOTH",
"211 720 OFFCURVE",
"64 566 OFFCURVE",
"64 342 CURVE SMOOTH",
"64 123 OFFCURVE",
"183 -8 OFFCURVE",
"381 -8 CURVE SMOOTH",
"494 -8 OFFCURVE",
"571 32 OFFCURVE",
"617 117 CURVE",
"598 117 LINE",
"611 0 LINE",
"676 0 LINE",
"676 347 LINE",
"425 347 LINE"
);
}
);
width = 781;
},
{
background = {
paths = (
{
closed = 1;
nodes = (
"421 256 LINE",
"599 256 LINE",
"568 335 LINE",
"565 264 LINE SMOOTH",
"561 173 OFFCURVE",
"476 131 OFFCURVE",
"400 131 CURVE SMOOTH",
"269 131 OFFCURVE",
"201 208 OFFCURVE",
"201 344 CURVE SMOOTH",
"201 487 OFFCURVE",
"292 579 OFFCURVE",
"431 579 CURVE SMOOTH",
"497 579 OFFCURVE",
"561 552 OFFCURVE",
"595 491 CURVE",
"712 578 LINE",
"650 673 OFFCURVE",
"561 720 OFFCURVE",
"432 720 CURVE SMOOTH",
"199 720 OFFCURVE",
"39 569 OFFCURVE",
"39 341 CURVE SMOOTH",
"39 122 OFFCURVE",
"164 -10 OFFCURVE",
"382 -10 CURVE SMOOTH",
"473 -10 OFFCURVE",
"558 24 OFFCURVE",
"599 95 CURVE",
"576 124 LINE",
"596 0 LINE",
"719 0 LINE",
"719 382 LINE",
"421 382 LINE"
);
}
);
};
layerId = "014D4A40-7C7F-4023-B30E-1F55CE5EA091";
paths = (
{
closed = 1;
nodes = (
"421 256 LINE",
"599 256 LINE",
"570 335 LINE",
"569 264 LINE SMOOTH",
"568 173 OFFCURVE",
"476 131 OFFCURVE",
"400 131 CURVE SMOOTH",
"269 131 OFFCURVE",
"201 208 OFFCURVE",
"201 344 CURVE SMOOTH",
"201 487 OFFCURVE",
"292 579 OFFCURVE",
"431 579 CURVE SMOOTH",
"497 579 OFFCURVE",
"561 552 OFFCURVE",
"595 491 CURVE",
"712 578 LINE",
"650 673 OFFCURVE",
"561 720 OFFCURVE",
"432 720 CURVE SMOOTH",
"199 720 OFFCURVE",
"39 569 OFFCURVE",
"39 341 CURVE SMOOTH",
"39 122 OFFCURVE",
"164 -10 OFFCURVE",
"382 -10 CURVE SMOOTH",
"473 -10 OFFCURVE",
"562 24 OFFCURVE",
"603 95 CURVE",
"581 95 LINE",
"596 0 LINE",
"719 0 LINE",
"719 382 LINE",
"421 382 LINE"
);
}
);
width = 798;
}
);
leftMetricsKey = O;
unicode = 0047;
},
{
color = 3;
glyphname = H;
lastChange = "2019-03-29 08:15:01 +0000";
layers = (
{
background = {
paths = (
{
closed = 1;
nodes = (
"701 0 LINE",
"701 710 LINE",
"618 710 LINE",
"618 0 LINE"
);
},
{
closed = 1;
nodes = (
"172 0 LINE",
"172 710 LINE",
"89 710 LINE",
"89 0 LINE"
);
},
{
closed = 1;
nodes = (
"667 325 LINE",
"667 395 LINE",
"132 395 LINE",
"132 325 LINE"
);
}
);
};
layerId = "A3B50665-EA37-4AC6-885C-1233CA61B6BD";
paths = (
{
closed = 1;
nodes = (
"652 0 LINE",
"652 710 LINE",
"569 710 LINE",
"569 0 LINE"
);
},
{
closed = 1;
nodes = (
"177 0 LINE",
"177 710 LINE",
"94 710 LINE",
"94 0 LINE"
);
},
{
closed = 1;
nodes = (
"618 324 LINE",
"618 396 LINE",
"137 396 LINE",
"137 324 LINE"
);
}
);
width = 746;
},
{
background = {
paths = (
{
closed = 1;
nodes = (
"729 0 LINE",
"729 710 LINE",
"573 710 LINE",
"573 0 LINE"
);
},
{
closed = 1;
nodes = (
"252 0 LINE",
"252 710 LINE",
"96 710 LINE",
"96 0 LINE"
);
},
{
closed = 1;
nodes = (
"669 290 LINE",
"669 426 LINE",
"144 426 LINE",
"144 290 LINE"
);
}
);
};
layerId = "014D4A40-7C7F-4023-B30E-1F55CE5EA091";
paths = (
{
closed = 1;
nodes = (
"714 0 LINE",
"714 710 LINE",
"558 710 LINE",
"558 0 LINE"
);
},
{
closed = 1;
nodes = (
"252 0 LINE",
"252 710 LINE",
"96 710 LINE",
"96 0 LINE"
);
},
{
closed = 1;
nodes = (
"654 290 LINE",
"654 426 LINE",
"164 426 LINE",
"164 290 LINE"
);
}
);
width = 810;
}
);
rightMetricsKey = "=|";
unicode = 0048;
},
{
color = 3;
glyphname = I;
lastChange = "2019-03-29 08:15:06 +0000";
layers = (
{
background = {
paths = (
{
closed = 1;
nodes = (
"172 0 LINE",
"172 710 LINE",
"89 710 LINE",
"89 0 LINE"
);
}
);
};
layerId = "A3B50665-EA37-4AC6-885C-1233CA61B6BD";
paths = (
{
closed = 1;
nodes = (
"177 0 LINE",
"177 710 LINE",
"94 710 LINE",
"94 0 LINE"
);
}
);
width = 271;
},
{
background = {
paths = (
{
closed = 1;
nodes = (
"340 0 LINE",
"340 710 LINE",
"184 710 LINE",
"184 0 LINE"
);
}
);
};
layerId = "014D4A40-7C7F-4023-B30E-1F55CE5EA091";
paths = (
{
closed = 1;
nodes = (
"252 0 LINE",
"252 710 LINE",
"96 710 LINE",
"96 0 LINE"
);
}
);
width = 348;
}
);
leftMetricsKey = H;
rightMetricsKey = H;
unicode = 0049;
},
{
color = 3;
glyphname = I_J.loclNLD;
lastChange = "2019-03-26 18:20:42 +0000";
layers = (
{
layerId = "A3B50665-EA37-4AC6-885C-1233CA61B6BD";
paths = (
{
closed = 1;
nodes = (
"506 -8 OFFCURVE",
"585 98 OFFCURVE",
"585 259 CURVE SMOOTH",
"585 710 LINE",
"502 710 LINE",
"502 255 LINE SMOOTH",
"502 139 OFFCURVE",
"454 65 OFFCURVE",
"340 65 CURVE SMOOTH",
"247 65 OFFCURVE",
"189 104 OFFCURVE",
"163 179 CURVE",
"95 149 LINE",
"119 55 OFFCURVE",
"211 -8 OFFCURVE",
"336 -8 CURVE SMOOTH"
);
},
{
closed = 1;
nodes = (
"187 310 LINE",
"187 710 LINE",
"104 710 LINE",
"104 310 LINE"
);
}
);
width = 677;
},
{
layerId = "014D4A40-7C7F-4023-B30E-1F55CE5EA091";
paths = (
{
closed = 1;
nodes = (
"517 -10 OFFCURVE",
"620 97 OFFCURVE",
"620 278 CURVE SMOOTH",
"620 710 LINE",
"464 710 LINE",
"464 261 LINE SMOOTH",
"464 177 OFFCURVE",
"418 127 OFFCURVE",
"342 127 CURVE SMOOTH",
"275 127 OFFCURVE",
"232 150 OFFCURVE",
"200 212 CURVE",
"73 155 LINE",
"110 46 OFFCURVE",
"207 -10 OFFCURVE",
"342 -10 CURVE SMOOTH"
);
},
{
closed = 1;
nodes = (
"230 310 LINE",
"230 710 LINE",
"74 710 LINE",
"74 310 LINE"
);
}
);
width = 694;
}
);
rightMetricsKey = J;
},
{
color = 3;
glyphname = J;
lastChange = "2019-03-28 16:23:38 +0000";
layers = (
{
background = {
paths = (
{
closed = 1;
nodes = (
"325 -8 OFFCURVE",
"388 68 OFFCURVE",
"388 199 CURVE SMOOTH",
"388 710 LINE",
"305 710 LINE",
"305 195 LINE SMOOTH",
"305 109 OFFCURVE",
"271 65 OFFCURVE",
"196 65 CURVE SMOOTH",
"128 65 OFFCURVE",
"87 94 OFFCURVE",
"66 159 CURVE",
"-2 129 LINE",
"20 45 OFFCURVE",
"95 -8 OFFCURVE",
"193 -8 CURVE SMOOTH"
);
}
);
};
layerId = "A3B50665-EA37-4AC6-885C-1233CA61B6BD";
paths = (
{
closed = 1;
nodes = (
"325 -8 OFFCURVE",
"388 68 OFFCURVE",
"388 209 CURVE SMOOTH",
"388 710 LINE",
"305 710 LINE",
"305 205 LINE SMOOTH",
"305 109 OFFCURVE",
"271 65 OFFCURVE",
"196 65 CURVE SMOOTH",
"128 65 OFFCURVE",
"87 94 OFFCURVE",
"66 159 CURVE",
"-2 129 LINE",
"18 45 OFFCURVE",
"93 -8 OFFCURVE",
"193 -8 CURVE SMOOTH"
);
}
);
width = 480;
},
{
background = {
paths = (
{
closed = 1;
nodes = (
"357 -10 OFFCURVE",
"440 81 OFFCURVE",
"440 238 CURVE SMOOTH",
"440 710 LINE",
"284 710 LINE",
"284 221 LINE SMOOTH",
"284 157 OFFCURVE",
"255 127 OFFCURVE",
"206 127 CURVE SMOOTH",
"158 127 OFFCURVE",
"130 152 OFFCURVE",
"110 202 CURVE",
"-17 145 LINE",
"14 44 OFFCURVE",
"97 -10 OFFCURVE",
"208 -10 CURVE SMOOTH"
);
}
);
};
layerId = "014D4A40-7C7F-4023-B30E-1F55CE5EA091";
paths = (
{
closed = 1;
nodes = (
"357 -10 OFFCURVE",
"440 81 OFFCURVE",
"440 238 CURVE SMOOTH",
"440 710 LINE",
"284 710 LINE",
"284 221 LINE SMOOTH",
"284 157 OFFCURVE",
"255 127 OFFCURVE",
"206 127 CURVE SMOOTH",
"158 127 OFFCURVE",
"130 152 OFFCURVE",
"110 202 CURVE",
"-17 145 LINE",
"12 44 OFFCURVE",
"95 -10 OFFCURVE",
"208 -10 CURVE SMOOTH"
);
}
);
width = 514;
}
);
unicode = 004A;
},
{
color = 3;
glyphname = K;
lastChange = "2019-03-28 16:34:21 +0000";
layers = (
{
background = {
paths = (
{
closed = 1;
nodes = (
"177 0 LINE",
"177 710 LINE",
"94 710 LINE",
"94 0 LINE"
);
},
{
closed = 1;
nodes = (
"583 82 LINE",
"567 72 OFFCURVE",
"549 66 OFFCURVE",
"529 66 CURVE SMOOTH",
"484 66 OFFCURVE",
"466 79 OFFCURVE",
"428 134 CURVE SMOOTH",
"320 293 LINE SMOOTH",
"285 344 OFFCURVE",
"243 372 OFFCURVE",
"208 372 CURVE",
"236 338 LINE",
"605 710 LINE",
"501 710 LINE",
"150 353 LINE",
"150 319 LINE",
"195 319 OFFCURVE",
"220 301 OFFCURVE",
"238 275 CURVE SMOOTH",
"368 83 LINE SMOOTH",
"412 18 OFFCURVE",
"458 -6 OFFCURVE",
"516 -6 CURVE SMOOTH",
"551 -6 OFFCURVE",
"580 2 OFFCURVE",
"601 18 CURVE"
);
}
);
};
guideLines = (
{
angle = 225.5093;
position = "{267, 483}";
}
);
layerId = "A3B50665-EA37-4AC6-885C-1233CA61B6BD";
paths = (
{
closed = 1;
nodes = (
"177 0 LINE",
"177 710 LINE",
"94 710 LINE",
"94 0 LINE"
);
},
{
closed = 1;
nodes = (
"583 82 LINE",
"567 72 OFFCURVE",
"549 66 OFFCURVE",
"529 66 CURVE SMOOTH",
"484 66 OFFCURVE",
"465 79 OFFCURVE",
"428 134 CURVE SMOOTH",
"322 293 LINE SMOOTH",
"288 344 OFFCURVE",
"243 370 OFFCURVE",
"198 370 CURVE",
"234 338 LINE",
"603 710 LINE",
"501 710 LINE",
"150 353 LINE",
"150 319 LINE",
"195 319 OFFCURVE",
"220 301 OFFCURVE",
"238 275 CURVE SMOOTH",
"368 83 LINE SMOOTH",
"412 18 OFFCURVE",
"458 -6 OFFCURVE",
"516 -6 CURVE SMOOTH",
"551 -6 OFFCURVE",
"580 2 OFFCURVE",
"601 18 CURVE"
);
}
);
width = 601;
},
{
background = {
paths = (
{
closed = 1;
nodes = (
"232 0 LINE",
"232 710 LINE",
"76 710 LINE",
"76 0 LINE"
);
},
{
closed = 1;
nodes = (
"667 146 LINE",
"646 132 OFFCURVE",
"624 127 OFFCURVE",
"599 127 CURVE SMOOTH",
"562 127 OFFCURVE",
"538 140 OFFCURVE",
"514 177 CURVE SMOOTH",
"444 283 LINE SMOOTH",
"409 336 OFFCURVE",
"367 369 OFFCURVE",
"305 369 CURVE",
"352 329 LINE",
"701 710 LINE",
"512 710 LINE",
"187 351 LINE",
"187 290 LINE",
"249 290 OFFCURVE",
"274 278 OFFCURVE",
"302 234 CURVE SMOOTH",
"391 93 LINE SMOOTH",
"433 26 OFFCURVE",
"497 -10 OFFCURVE",
"580 -10 CURVE SMOOTH",
"627 -10 OFFCURVE",
"675 4 OFFCURVE",
"703 26 CURVE"
);
}
);
};
guideLines = (
{
angle = 46.6112;
position = "{222, 445}";
}
);
layerId = "014D4A40-7C7F-4023-B30E-1F55CE5EA091";
paths = (
{
closed = 1;
nodes = (
"232 0 LINE",
"232 710 LINE",
"76 710 LINE",
"76 0 LINE"
);
},
{
closed = 1;
nodes = (
"667 146 LINE",
"646 132 OFFCURVE",
"624 127 OFFCURVE",
"599 127 CURVE SMOOTH",
"562 127 OFFCURVE",
"537 140 OFFCURVE",
"514 177 CURVE SMOOTH",
"448 283 LINE SMOOTH",
"415 336 OFFCURVE",
"367 372 OFFCURVE",
"305 372 CURVE",
"350 329 LINE",
"699 710 LINE",
"512 710 LINE",
"187 351 LINE",
"187 290 LINE",
"249 290 OFFCURVE",
"274 278 OFFCURVE",
"302 234 CURVE SMOOTH",
"391 93 LINE SMOOTH",
"433 26 OFFCURVE",
"497 -10 OFFCURVE",
"580 -10 CURVE SMOOTH",
"627 -10 OFFCURVE",
"675 4 OFFCURVE",
"703 26 CURVE"
);
}
);
width = 685;
}
);
leftMetricsKey = H;
unicode = 004B;
},
{
color = 3;
glyphname = L;
lastChange = "2019-03-28 16:36:40 +0000";
layers = (
{
background = {
paths = (
{
closed = 1;
nodes = (
"504 0 LINE",
"514 72 LINE",
"172 72 LINE",
"172 712 LINE",
"89 712 LINE",
"89 0 LINE"
);
}
);
};
layerId = "A3B50665-EA37-4AC6-885C-1233CA61B6BD";
paths = (
{
closed = 1;
nodes = (
"500 0 LINE",
"510 72 LINE",
"177 72 LINE",
"177 710 LINE",
"94 710 LINE",
"94 0 LINE"
);
}
);
width = 521;
},
{
background = {
paths = (
{
closed = 1;
nodes = (
"537 0 LINE",
"547 136 LINE",
"232 136 LINE",
"232 710 LINE",
"76 710 LINE",
"76 0 LINE"
);
}
);
};
layerId = "014D4A40-7C7F-4023-B30E-1F55CE5EA091";
paths = (
{
closed = 1;
nodes = (
"531 0 LINE",
"541 136 LINE",
"232 136 LINE",
"232 710 LINE",
"76 710 LINE",
"76 0 LINE"
);
}
);
width = 566;
}
);
leftMetricsKey = H;
unicode = 004C;
},
{
color = 3;
glyphname = M;
lastChange = "2019-03-29 08:15:55 +0000";
layers = (
{
background = {
paths = (
{
closed = 1;
nodes = (
"170 0 LINE",
"199 650 LINE",
"153 646 LINE",
"440 0 LINE",
"510 0 LINE",
"804 645 LINE",
"756 650 LINE",
"781 0 LINE",
"860 0 LINE",
"835 710 LINE",
"755 710 LINE",
"452 44 LINE",
"504 44 LINE",
"207 710 LINE",
"125 710 LINE",
"94 0 LINE"
);
}
);
};
layerId = "A3B50665-EA37-4AC6-885C-1233CA61B6BD";
paths = (
{
closed = 1;
nodes = (
"170 0 LINE",
"169 650 LINE",
"123 646 LINE",
"440 0 LINE",
"510 0 LINE",
"829 645 LINE",
"780 650 LINE",
"780 0 LINE",
"859 0 LINE",
"859 710 LINE",
"779 710 LINE",
"451 44 LINE",
"502 44 LINE",
"175 710 LINE",
"95 710 LINE",
"94 0 LINE"
);
}
);
width = 953;
},
{
background = {
paths = (
{
closed = 1;
nodes = (
"240 0 LINE",
"262 611 LINE",
"178 540 LINE",
"443 0 LINE",
"557 0 LINE",
"826 553 LINE",
"739 611 LINE",
"755 0 LINE",
"905 0 LINE",
"885 710 LINE",
"753 710 LINE",
"461 102 LINE",
"551 102 LINE",
"254 710 LINE",
"121 710 LINE",
"96 0 LINE"
);
}
);
};
guideLines = (
{
angle = -88.391;
position = "{763, 356}";
},
{
angle = 88.391;
position = "{262, 356}";
}
);
layerId = "014D4A40-7C7F-4023-B30E-1F55CE5EA091";
paths = (
{
closed = 1;
nodes = (
"240 0 LINE",
"237 611 LINE",
"153 540 LINE",
"441 0 LINE",
"555 0 LINE",
"849 553 LINE",
"759 611 LINE",
"755 0 LINE",
"905 0 LINE",
"905 710 LINE",
"773 710 LINE",
"456 102 LINE",
"548 102 LINE",
"228 710 LINE",
"96 710 LINE",
"96 0 LINE"
);
}
);
width = 1001;
}
);
leftMetricsKey = H;
rightMetricsKey = H;
unicode = 004D;
},
{
color = 3;
glyphname = N;
lastChange = "2019-03-26 18:17:19 +0000";
layers = (
{
anchors = (
{
name = bottom;
position = "{371, 0}";
},
{
name = top;
position = "{371, 712}";
}
);
background = {
paths = (
{
closed = 1;
nodes = (
"572 84 LINE",
"607 92 LINE",
"161 710 LINE",
"94 710 LINE",
"94 0 LINE",
"171 0 LINE",
"171 627 LINE",
"136 618 LINE",
"582 0 LINE",
"649 0 LINE",
"649 710 LINE",
"572 710 LINE"
);
}
);
};
layerId = "A3B50665-EA37-4AC6-885C-1233CA61B6BD";
paths = (
{
closed = 1;
nodes = (
"572 81 LINE",
"607 89 LINE",
"161 710 LINE",
"94 710 LINE",
"94 0 LINE",
"171 0 LINE",
"171 630 LINE",
"136 621 LINE",
"582 0 LINE",
"649 0 LINE",
"649 710 LINE",
"572 710 LINE"
);
}
);
width = 743;
},
{
anchors = (
{
name = bottom;
position = "{385, 0}";
},
{
name = top;
position = "{384, 712}";
}
);
background = {
paths = (
{
closed = 1;
nodes = (
"536 141 LINE",
"590 184 LINE",
"212 710 LINE",
"76 710 LINE",
"76 0 LINE",
"224 0 LINE",
"224 569 LINE",
"170 526 LINE",
"548 0 LINE",
"684 0 LINE",
"684 710 LINE",
"536 710 LINE"
);
}
);
};
layerId = "014D4A40-7C7F-4023-B30E-1F55CE5EA091";
paths = (
{
closed = 1;
nodes = (
"536 141 LINE",
"590 175 LINE",
"212 710 LINE",
"76 710 LINE",
"76 0 LINE",
"224 0 LINE",
"224 569 LINE",
"170 535 LINE",
"548 0 LINE",
"684 0 LINE",
"684 710 LINE",
"536 710 LINE"
);
}
);
width = 760;
}
);
leftKerningGroup = H;
leftMetricsKey = H;
rightKerningGroup = H;
rightMetricsKey = H;
unicode = 004E;
},
{
color = 3;
glyphname = Eng;
lastChange = "2019-03-26 18:20:42 +0000";
layers = (
{
background = {
paths = (
{
closed = 1;
nodes = (
"572 81 LINE",
"607 89 LINE",
"161 710 LINE",
"94 710 LINE",
"94 0 LINE",
"171 0 LINE",
"171 630 LINE",
"136 621 LINE",
"582 0 LINE",
"649 0 LINE",
"649 710 LINE",
"572 710 LINE"
);
},
{
closed = 1;
nodes = (
"592 -208 OFFCURVE",
"655 -132 OFFCURVE",
"655 -1 CURVE SMOOTH",
"655 510 LINE",
"572 510 LINE",
"572 -5 LINE SMOOTH",
"572 -91 OFFCURVE",
"538 -135 OFFCURVE",
"463 -135 CURVE SMOOTH",
"395 -135 OFFCURVE",
"354 -106 OFFCURVE",
"333 -41 CURVE",
"265 -71 LINE",
"287 -155 OFFCURVE",
"362 -208 OFFCURVE",
"460 -208 CURVE SMOOTH"
);
}
);
};
layerId = "A3B50665-EA37-4AC6-885C-1233CA61B6BD";
paths = (
{
closed = 1;
nodes = (
"587 -208 OFFCURVE",
"649 -132 OFFCURVE",
"649 -1 CURVE SMOOTH",
"649 710 LINE",
"572 710 LINE",
"572 81 LINE",
"607 89 LINE",
"161 710 LINE",
"94 710 LINE",
"94 0 LINE",
"171 0 LINE",
"171 630 LINE",
"136 621 LINE",
"582 0 LINE",
"572 37 LINE",
"572 -25 LINE SMOOTH",
"572 -91 OFFCURVE",
"538 -135 OFFCURVE",
"473 -135 CURVE SMOOTH",
"415 -135 OFFCURVE",
"374 -106 OFFCURVE",
"363 -41 CURVE",
"295 -71 LINE",
"307 -155 OFFCURVE",
"381 -208 OFFCURVE",
"467 -208 CURVE SMOOTH"
);
}
);
width = 743;
},
{
background = {
paths = (
{
closed = 1;
nodes = (
"590 -210 OFFCURVE",
"684 -119 OFFCURVE",
"684 38 CURVE SMOOTH",
"684 710 LINE",
"536 710 LINE",
"536 141 LINE",
"590 175 LINE",
"212 710 LINE",
"76 710 LINE",
"76 0 LINE",
"224 0 LINE",
"224 569 LINE",
"170 535 LINE",
"548 0 LINE",
"536 63 LINE",
"536 21 LINE SMOOTH",
"536 -43 OFFCURVE",
"507 -73 OFFCURVE",
"458 -73 CURVE SMOOTH",
"410 -73 OFFCURVE",
"382 -48 OFFCURVE",
"362 2 CURVE",
"235 -55 LINE",
"265 -156 OFFCURVE",
"347 -210 OFFCURVE",
"456 -210 CURVE SMOOTH"
);
}
);
};
layerId = "014D4A40-7C7F-4023-B30E-1F55CE5EA091";
paths = (
{
closed = 1;
nodes = (
"590 -210 OFFCURVE",
"684 -119 OFFCURVE",
"684 38 CURVE SMOOTH",
"684 710 LINE",
"536 710 LINE",
"536 141 LINE",
"590 175 LINE",
"212 710 LINE",
"76 710 LINE",
"76 0 LINE",
"224 0 LINE",
"224 569 LINE",
"170 535 LINE",
"548 0 LINE",
"536 63 LINE",
"536 1 LINE SMOOTH",
"536 -43 OFFCURVE",
"507 -73 OFFCURVE",
"468 -73 CURVE SMOOTH",
"430 -73 OFFCURVE",
"402 -48 OFFCURVE",
"392 2 CURVE",
"265 -55 LINE",
"285 -156 OFFCURVE",
"367 -210 OFFCURVE",
"466 -210 CURVE SMOOTH"
);
}
);
width = 760;
}
);
leftMetricsKey = N;
widthMetricsKey = N;
unicode = 014A;
},
{
color = 3;
glyphname = O;
lastChange = "2019-03-12 13:07:15 +0000";
layers = (
{
background = {
paths = (
{
closed = 1;
nodes = (
"1728 -8 OFFCURVE",
"1881 153 OFFCURVE",
"1881 361 CURVE SMOOTH",
"1881 569 OFFCURVE",
"1733 720 OFFCURVE",
"1527 720 CURVE SMOOTH",
"1315 720 OFFCURVE",
"1159 552 OFFCURVE",
"1159 345 CURVE SMOOTH",
"1159 141 OFFCURVE",
"1308 -8 OFFCURVE",
"1515 -8 CURVE SMOOTH"
);
},
{
closed = 1;
nodes = (
"1354 68 OFFCURVE",
"1242 188 OFFCURVE",
"1242 346 CURVE SMOOTH",
"1242 516 OFFCURVE",
"1361 644 OFFCURVE",
"1525 644 CURVE SMOOTH",
"1685 644 OFFCURVE",
"1798 518 OFFCURVE",
"1798 358 CURVE SMOOTH",
"1798 184 OFFCURVE",
"1680 68 OFFCURVE",
"1515 68 CURVE SMOOTH"
);
},
{
closed = 1;
nodes = (
"197 720 OFFCURVE",
"59 564 OFFCURVE",
"59 342 CURVE SMOOTH",
"59 130 OFFCURVE",
"185 -8 OFFCURVE",
"378 -8 CURVE SMOOTH",
"573 -8 OFFCURVE",
"713 149 OFFCURVE",
"713 369 CURVE SMOOTH",
"713 580 OFFCURVE",
"587 720 OFFCURVE",
"400 720 CURVE SMOOTH"
);
},
{
closed = 1;
nodes = (
"233 68 OFFCURVE",
"142 174 OFFCURVE",
"142 342 CURVE SMOOTH",
"142 524 OFFCURVE",
"247 645 OFFCURVE",
"401 645 CURVE SMOOTH",
"541 645 OFFCURVE",
"630 538 OFFCURVE",
"630 371 CURVE SMOOTH",
"630 191 OFFCURVE",
"528 68 OFFCURVE",
"377 68 CURVE SMOOTH"
);
},
{
closed = 1;
nodes = (
"665 0 LINE",
"665 710 LINE",
"582 710 LINE",
"582 0 LINE"
);
},
{
closed = 1;
nodes = (
"190 0 LINE",
"190 710 LINE",
"107 710 LINE",
"107 0 LINE"
);
},
{
closed = 1;
nodes = (
"631 325 LINE",
"631 395 LINE",
"150 395 LINE",
"150 325 LINE"
);
}
);
};
guideLines = (
{
angle = 90;
position = "{746, 356}";
},
{
angle = 90;
position = "{809, 356}";
}
);
layerId = "A3B50665-EA37-4AC6-885C-1233CA61B6BD";
paths = (
{
closed = 1;
nodes = (
"578 -8 OFFCURVE",
"717 139 OFFCURVE",
"717 369 CURVE SMOOTH",
"717 580 OFFCURVE",
"592 720 OFFCURVE",
"405 720 CURVE SMOOTH",
"204 720 OFFCURVE",
"64 564 OFFCURVE",
"64 342 CURVE SMOOTH",
"64 120 OFFCURVE",
"187 -8 OFFCURVE",
"387 -8 CURVE SMOOTH"
);
},
{
closed = 1;
nodes = (
"238 68 OFFCURVE",
"147 166 OFFCURVE",
"147 342 CURVE SMOOTH",
"147 524 OFFCURVE",
"255 645 OFFCURVE",
"406 645 CURVE SMOOTH",
"546 645 OFFCURVE",
"635 538 OFFCURVE",
"635 371 CURVE SMOOTH",
"635 179 OFFCURVE",
"533 68 OFFCURVE",
"387 68 CURVE SMOOTH"
);
}
);
width = 781;
},
{
background = {
paths = (
{
closed = 1;
nodes = (
"1541 -10 OFFCURVE",
"1681 174 OFFCURVE",
"1681 362 CURVE SMOOTH",
"1681 578 OFFCURVE",
"1526 720 OFFCURVE",
"1316 720 CURVE SMOOTH",
"1080 720 OFFCURVE",
"939 534 OFFCURVE",
"939 346 CURVE SMOOTH",
"939 131 OFFCURVE",
"1093 -10 OFFCURVE",
"1304 -10 CURVE SMOOTH"
);
},
{
closed = 1;
nodes = (
"1183 127 OFFCURVE",
"1098 210 OFFCURVE",
"1098 349 CURVE SMOOTH",
"1098 483 OFFCURVE",
"1183 585 OFFCURVE",
"1314 585 CURVE SMOOTH",
"1435 585 OFFCURVE",
"1522 499 OFFCURVE",
"1522 359 CURVE SMOOTH",
"1522 221 OFFCURVE",
"1442 127 OFFCURVE",
"1306 127 CURVE SMOOTH"
);
},
{
closed = 1;
nodes = (
"595 -8 OFFCURVE",
"745 139 OFFCURVE",
"745 369 CURVE SMOOTH",
"745 580 OFFCURVE",
"610 720 OFFCURVE",
"408 720 CURVE SMOOTH",
"190 720 OFFCURVE",
"39 564 OFFCURVE",
"39 342 CURVE SMOOTH",
"39 120 OFFCURVE",
"172 -8 OFFCURVE",
"388 -8 CURVE SMOOTH"
);
},
{
closed = 1;
nodes = (
"270 127 OFFCURVE",
"198 205 OFFCURVE",
"198 345 CURVE SMOOTH",
"198 489 OFFCURVE",
"284 585 OFFCURVE",
"404 585 CURVE SMOOTH",
"515 585 OFFCURVE",
"586 500 OFFCURVE",
"586 368 CURVE SMOOTH",
"586 215 OFFCURVE",
"505 127 OFFCURVE",
"389 127 CURVE SMOOTH"
);
},
{
closed = 1;
nodes = (
"545 426 LINE",
"239 426 LINE",
"239 710 LINE",
"83 710 LINE",
"83 0 LINE",
"239 0 LINE",
"239 290 LINE",
"545 290 LINE",
"545 0 LINE",
"701 0 LINE",
"701 710 LINE",
"545 710 LINE"
);
}
);
};
layerId = "014D4A40-7C7F-4023-B30E-1F55CE5EA091";
paths = (
{
closed = 1;
nodes = (
"598 -8 OFFCURVE",
"744 139 OFFCURVE",
"744 369 CURVE SMOOTH",
"744 580 OFFCURVE",
"610 720 OFFCURVE",
"408 720 CURVE SMOOTH",
"180 720 OFFCURVE",
"39 564 OFFCURVE",
"39 342 CURVE SMOOTH",
"39 120 OFFCURVE",
"172 -12 OFFCURVE",
"395 -10 CURVE SMOOTH"
);
},
{
closed = 1;
nodes = (
"270 129 OFFCURVE",
"198 207 OFFCURVE",
"198 345 CURVE SMOOTH",
"198 486 OFFCURVE",
"284 582 OFFCURVE",
"404 582 CURVE SMOOTH",
"515 582 OFFCURVE",
"586 497 OFFCURVE",
"586 368 CURVE SMOOTH",
"586 217 OFFCURVE",
"505 129 OFFCURVE",
"389 129 CURVE SMOOTH"
);
}
);
width = 783;
}
);
rightMetricsKey = "=|";
unicode = 004F;
},
{
color = 3;
glyphname = OE;
lastChange = "2019-03-26 18:50:00 +0000";
layers = (
{
background = {
paths = (
{
closed = 1;
nodes = (
"628 325 LINE",
"943 325 LINE",
"943 395 LINE",
"628 395 LINE",
"628 640 LINE",
"953 640 LINE",
"953 710 LINE",
"478 710 LINE SMOOTH",
"218 710 OFFCURVE",
"64 581 OFFCURVE",
"64 340 CURVE SMOOTH",
"64 117 OFFCURVE",
"193 0 OFFCURVE",
"437 0 CURVE SMOOTH",
"960 0 LINE",
"970 71 LINE",
"628 71 LINE"
);
},
{
closed = 1;
nodes = (
"444 71 LINE SMOOTH",
"245 71 OFFCURVE",
"148 160 OFFCURVE",
"148 344 CURVE SMOOTH",
"148 541 OFFCURVE",
"266 640 OFFCURVE",
"472 640 CURVE SMOOTH",
"547 640 LINE",
"547 71 LINE"
);
}
);
};
layerId = "A3B50665-EA37-4AC6-885C-1233CA61B6BD";
paths = (
{
closed = 1;
nodes = (
"628 325 LINE",
"943 325 LINE",
"943 395 LINE",
"628 395 LINE",
"628 640 LINE",
"953 640 LINE",
"953 710 LINE",
"607 710 LINE SMOOTH",
"571 710 OFFCURVE",
"504 715 OFFCURVE",
"458 715 CURVE SMOOTH",
"201 715 OFFCURVE",
"64 566 OFFCURVE",
"64 340 CURVE SMOOTH",
"64 117 OFFCURVE",
"193 -4 OFFCURVE",
"437 -4 CURVE SMOOTH",
"486 -4 OFFCURVE",
"536 0 OFFCURVE",
"595 0 CURVE SMOOTH",
"960 0 LINE",
"970 71 LINE",
"628 71 LINE"
);
},
{
closed = 1;
nodes = (
"513 68 OFFCURVE",
"478 67 OFFCURVE",
"444 67 CURVE SMOOTH",
"245 67 OFFCURVE",
"148 160 OFFCURVE",
"148 344 CURVE SMOOTH",
"148 541 OFFCURVE",
"266 645 OFFCURVE",
"458 645 CURVE SMOOTH",
"497 645 OFFCURVE",
"522 642 OFFCURVE",
"547 640 CURVE",
"547 71 LINE"
);
}
);
width = 1009;
},
{
background = {
paths = (
{
closed = 1;
nodes = (
"669 290 LINE",
"965 290 LINE",
"965 426 LINE",
"669 426 LINE",
"669 574 LINE",
"985 574 LINE",
"985 710 LINE",
"466 710 LINE SMOOTH",
"198 710 OFFCURVE",
"39 569 OFFCURVE",
"39 346 CURVE SMOOTH",
"39 119 OFFCURVE",
"177 0 OFFCURVE",
"445 0 CURVE SMOOTH",
"985 0 LINE",
"995 138 LINE",
"669 138 LINE"
);
},
{
closed = 1;
nodes = (
"435 136 LINE SMOOTH",
"274 136 OFFCURVE",
"200 206 OFFCURVE",
"200 351 CURVE SMOOTH",
"200 492 OFFCURVE",
"289 574 OFFCURVE",
"449 574 CURVE SMOOTH",
"515 574 LINE",
"515 136 LINE"
);
}
);
};
layerId = "014D4A40-7C7F-4023-B30E-1F55CE5EA091";
paths = (
{
closed = 1;
nodes = (
"669 290 LINE",
"965 290 LINE",
"965 426 LINE",
"669 426 LINE",
"669 574 LINE",
"985 574 LINE",
"985 710 LINE",
"636 710 LINE SMOOTH",
"591 710 OFFCURVE",
"508 716 OFFCURVE",
"456 716 CURVE SMOOTH",
"198 716 OFFCURVE",
"39 572 OFFCURVE",
"39 336 CURVE SMOOTH",
"39 119 OFFCURVE",
"177 -6 OFFCURVE",
"445 -6 CURVE SMOOTH",
"506 -6 OFFCURVE",
"557 0 OFFCURVE",
"626 0 CURVE SMOOTH",
"985 0 LINE",
"995 138 LINE",
"669 138 LINE"
);
},
{
closed = 1;
nodes = (
"488 132 OFFCURVE",
"462 130 OFFCURVE",
"435 130 CURVE SMOOTH",
"274 130 OFFCURVE",
"200 206 OFFCURVE",
"200 341 CURVE SMOOTH",
"200 495 OFFCURVE",
"289 580 OFFCURVE",
"445 580 CURVE SMOOTH",
"471 580 OFFCURVE",
"493 578 OFFCURVE",
"515 574 CURVE",
"515 136 LINE"
);
}
);
width = 1036;
}
);
leftMetricsKey = O;
rightMetricsKey = E;
unicode = 0152;
},
{
color = 3;
glyphname = P;
lastChange = "2019-03-26 19:03:27 +0000";
layers = (
{
background = {
paths = (
{
closed = 1;
nodes = (
"175 643 LINE",
"318 643 LINE SMOOTH",
"449 643 OFFCURVE",
"508 598 OFFCURVE",
"508 502 CURVE SMOOTH",
"508 405 OFFCURVE",
"451 354 OFFCURVE",
"324 354 CURVE SMOOTH",
"159 354 LINE",
"159 285 LINE",
"318 285 LINE SMOOTH",
"496 285 OFFCURVE",
"588 367 OFFCURVE",
"588 502 CURVE SMOOTH",
"588 638 OFFCURVE",
"492 711 OFFCURVE",
"326 711 CURVE SMOOTH",
"94 711 LINE",
"94 0 LINE",
"175 0 LINE"
);
}
);
};
layerId = "A3B50665-EA37-4AC6-885C-1233CA61B6BD";
paths = (
{
closed = 1;
nodes = (
"175 643 LINE",
"318 643 LINE SMOOTH",
"449 643 OFFCURVE",
"508 598 OFFCURVE",
"508 502 CURVE SMOOTH",
"508 405 OFFCURVE",
"451 354 OFFCURVE",
"304 354 CURVE SMOOTH",
"159 354 LINE",
"159 285 LINE",
"298 285 LINE SMOOTH",
"496 285 OFFCURVE",
"588 367 OFFCURVE",
"588 502 CURVE SMOOTH",
"588 638 OFFCURVE",
"492 711 OFFCURVE",
"326 711 CURVE SMOOTH",
"94 711 LINE",
"94 0 LINE",
"175 0 LINE"
);
}
);
width = 629;
},
{
background = {
paths = (
{
closed = 1;
nodes = (
"228 583 LINE",
"333 583 LINE SMOOTH",
"431 583 OFFCURVE",
"476 558 OFFCURVE",
"476 483 CURVE SMOOTH",
"476 410 OFFCURVE",
"426 380 OFFCURVE",
"340 380 CURVE SMOOTH",
"196 380 LINE",
"196 252 LINE",
"342 252 LINE SMOOTH",
"516 252 OFFCURVE",
"632 340 OFFCURVE",
"632 486 CURVE SMOOTH",
"632 632 OFFCURVE",
"531 710 OFFCURVE",
"346 710 CURVE SMOOTH",
"76 710 LINE",
"76 0 LINE",
"228 0 LINE"
);
}
);
};
layerId = "014D4A40-7C7F-4023-B30E-1F55CE5EA091";
paths = (
{
closed = 1;
nodes = (
"228 583 LINE",
"333 583 LINE SMOOTH",
"431 583 OFFCURVE",
"476 558 OFFCURVE",
"476 483 CURVE SMOOTH",
"476 410 OFFCURVE",
"426 380 OFFCURVE",
"320 380 CURVE SMOOTH",
"196 380 LINE",
"196 252 LINE",
"322 252 LINE SMOOTH",
"516 252 OFFCURVE",
"632 340 OFFCURVE",
"632 486 CURVE SMOOTH",
"632 632 OFFCURVE",
"531 710 OFFCURVE",
"346 710 CURVE SMOOTH",
"76 710 LINE",
"76 0 LINE",
"228 0 LINE"
);
}
);
width = 647;
}
);
leftMetricsKey = H;
unicode = 0050;
},
{
color = 3;
glyphname = Thorn;
lastChange = "2019-03-26 19:03:13 +0000";
layers = (
{
background = {
paths = (
{
closed = 1;
nodes = (
"158 525 LINE",
"318 525 LINE SMOOTH",
"449 525 OFFCURVE",
"508 480 OFFCURVE",
"508 384 CURVE SMOOTH",
"508 287 OFFCURVE",
"451 236 OFFCURVE",
"324 236 CURVE SMOOTH",
"158 236 LINE",
"158 167 LINE",
"318 167 LINE SMOOTH",
"496 167 OFFCURVE",
"588 249 OFFCURVE",
"588 384 CURVE SMOOTH",
"588 520 OFFCURVE",
"492 593 OFFCURVE",
"326 593 CURVE SMOOTH",
"158 593 LINE"
);
},
{
closed = 1;
nodes = (
"94 711 LINE",
"94 0 LINE",
"175 0 LINE",
"175 710 LINE"
);
}
);
};
layerId = "A3B50665-EA37-4AC6-885C-1233CA61B6BD";
paths = (
{
closed = 1;
nodes = (
"158 525 LINE",
"318 525 LINE SMOOTH",
"449 525 OFFCURVE",
"508 480 OFFCURVE",
"508 384 CURVE SMOOTH",
"508 287 OFFCURVE",
"451 236 OFFCURVE",
"304 236 CURVE SMOOTH",
"158 236 LINE",
"158 167 LINE",
"298 167 LINE SMOOTH",
"496 167 OFFCURVE",
"588 249 OFFCURVE",
"588 384 CURVE SMOOTH",
"588 520 OFFCURVE",
"492 593 OFFCURVE",
"326 593 CURVE SMOOTH",
"158 593 LINE"
);
},
{
closed = 1;
nodes = (
"94 711 LINE",
"94 0 LINE",
"175 0 LINE",
"175 710 LINE"
);
}
);
width = 628;
},
{
background = {
paths = (
{
closed = 1;
nodes = (
"199 482 LINE",
"333 482 LINE SMOOTH",
"431 482 OFFCURVE",
"476 457 OFFCURVE",
"476 382 CURVE SMOOTH",
"476 309 OFFCURVE",
"426 279 OFFCURVE",
"340 279 CURVE SMOOTH",
"199 279 LINE",
"199 151 LINE",
"342 151 LINE SMOOTH",
"516 151 OFFCURVE",
"632 239 OFFCURVE",
"632 385 CURVE SMOOTH",
"632 531 OFFCURVE",
"531 609 OFFCURVE",
"346 609 CURVE SMOOTH",
"199 609 LINE"
);
},
{
closed = 1;
nodes = (
"76 710 LINE",
"76 0 LINE",
"228 0 LINE",
"228 710 LINE"
);
}
);
};
layerId = "014D4A40-7C7F-4023-B30E-1F55CE5EA091";
paths = (
{
closed = 1;
nodes = (
"199 482 LINE",
"333 482 LINE SMOOTH",
"431 482 OFFCURVE",
"476 457 OFFCURVE",
"476 382 CURVE SMOOTH",
"476 309 OFFCURVE",
"426 279 OFFCURVE",
"320 279 CURVE SMOOTH",
"199 279 LINE",
"199 151 LINE",
"322 151 LINE SMOOTH",
"516 151 OFFCURVE",
"632 239 OFFCURVE",
"632 385 CURVE SMOOTH",
"632 531 OFFCURVE",
"531 609 OFFCURVE",
"346 609 CURVE SMOOTH",
"199 609 LINE"
);
},
{
closed = 1;
nodes = (
"76 710 LINE",
"76 0 LINE",
"228 0 LINE",
"228 710 LINE"
);
}
);
width = 647;
}
);
unicode = 00DE;
},
{
color = 3;
glyphname = Q;
lastChange = "2019-03-27 08:51:17 +0000";
layers = (
{
background = {
paths = (
{
closed = 1;
nodes = (
"578 -8 OFFCURVE",
"717 139 OFFCURVE",
"717 369 CURVE SMOOTH",
"717 580 OFFCURVE",
"592 720 OFFCURVE",
"405 720 CURVE SMOOTH",
"204 720 OFFCURVE",
"64 564 OFFCURVE",
"64 342 CURVE SMOOTH",
"64 120 OFFCURVE",
"187 -8 OFFCURVE",
"387 -8 CURVE SMOOTH"
);
},
{
closed = 1;
nodes = (
"238 68 OFFCURVE",
"147 166 OFFCURVE",
"147 342 CURVE SMOOTH",
"147 524 OFFCURVE",
"255 645 OFFCURVE",
"406 645 CURVE SMOOTH",
"546 645 OFFCURVE",
"635 538 OFFCURVE",
"635 371 CURVE SMOOTH",
"635 179 OFFCURVE",
"533 68 OFFCURVE",
"387 68 CURVE SMOOTH"
);
},
{
closed = 1;
nodes = (
"336 0 LINE SMOOTH",
"336 -141 OFFCURVE",
"403 -208 OFFCURVE",
"524 -208 CURVE SMOOTH",
"612 -208 OFFCURVE",
"668 -160 OFFCURVE",
"678 -76 CURVE",
"613 -68 LINE",
"609 -112 OFFCURVE",
"573 -141 OFFCURVE",
"522 -141 CURVE SMOOTH",
"449 -141 OFFCURVE",
"414 -104 OFFCURVE",
"414 -2 CURVE SMOOTH",
"414 47 LINE",
"336 47 LINE"
);
}
);
};
guideLines = (
{
angle = 90;
position = "{746, 356}";
},
{
angle = 90;
position = "{809, 356}";
}
);
layerId = "A3B50665-EA37-4AC6-885C-1233CA61B6BD";
paths = (
{
closed = 1;
nodes = (
"578 -8 OFFCURVE",
"717 139 OFFCURVE",
"717 369 CURVE SMOOTH",
"717 580 OFFCURVE",
"592 720 OFFCURVE",
"405 720 CURVE SMOOTH",
"204 720 OFFCURVE",
"64 564 OFFCURVE",
"64 342 CURVE SMOOTH",
"64 120 OFFCURVE",
"187 -8 OFFCURVE",
"387 -8 CURVE SMOOTH"
);
},
{
closed = 1;
nodes = (
"238 68 OFFCURVE",
"147 166 OFFCURVE",
"147 342 CURVE SMOOTH",
"147 524 OFFCURVE",
"255 645 OFFCURVE",
"406 645 CURVE SMOOTH",
"546 645 OFFCURVE",
"635 538 OFFCURVE",
"635 371 CURVE SMOOTH",
"635 179 OFFCURVE",
"533 68 OFFCURVE",
"387 68 CURVE SMOOTH"
);
},
{
closed = 1;
nodes = (
"336 -10 LINE SMOOTH",
"336 -141 OFFCURVE",
"403 -208 OFFCURVE",
"521 -208 CURVE SMOOTH",
"609 -208 OFFCURVE",
"667 -160 OFFCURVE",
"679 -76 CURVE",
"613 -68 LINE",
"607 -112 OFFCURVE",
"573 -141 OFFCURVE",
"522 -141 CURVE SMOOTH",
"449 -141 OFFCURVE",
"416 -104 OFFCURVE",
"416 -12 CURVE SMOOTH",
"416 47 LINE",
"336 47 LINE"
);
}
);
width = 781;
},
{
background = {
paths = (
{
closed = 1;
nodes = (
"598 -8 OFFCURVE",
"744 139 OFFCURVE",
"744 369 CURVE SMOOTH",
"744 580 OFFCURVE",
"610 720 OFFCURVE",
"408 720 CURVE SMOOTH",
"180 720 OFFCURVE",
"39 564 OFFCURVE",
"39 342 CURVE SMOOTH",
"39 120 OFFCURVE",
"172 -12 OFFCURVE",
"395 -10 CURVE SMOOTH"
);
},
{
closed = 1;
nodes = (
"270 129 OFFCURVE",
"198 207 OFFCURVE",
"198 345 CURVE SMOOTH",
"198 486 OFFCURVE",
"284 582 OFFCURVE",
"404 582 CURVE SMOOTH",
"515 582 OFFCURVE",
"586 497 OFFCURVE",
"586 368 CURVE SMOOTH",
"586 217 OFFCURVE",
"505 129 OFFCURVE",
"389 129 CURVE SMOOTH"
);
},
{
closed = 1;
nodes = (
"310 -15 LINE SMOOTH",
"310 -128 OFFCURVE",
"394 -210 OFFCURVE",
"527 -210 CURVE SMOOTH",
"635 -210 OFFCURVE",
"705 -161 OFFCURVE",
"717 -57 CURVE",
"591 -42 LINE",
"587 -71 OFFCURVE",
"564 -87 OFFCURVE",
"532 -87 CURVE SMOOTH",
"486 -87 OFFCURVE",
"465 -61 OFFCURVE",
"465 -4 CURVE SMOOTH",
"465 80 LINE",
"310 80 LINE"
);
}
);
};
layerId = "014D4A40-7C7F-4023-B30E-1F55CE5EA091";
paths = (
{
closed = 1;
nodes = (
"598 -8 OFFCURVE",
"744 139 OFFCURVE",
"744 369 CURVE SMOOTH",
"744 580 OFFCURVE",
"610 720 OFFCURVE",
"408 720 CURVE SMOOTH",
"180 720 OFFCURVE",
"39 564 OFFCURVE",
"39 342 CURVE SMOOTH",
"39 120 OFFCURVE",
"172 -12 OFFCURVE",
"395 -10 CURVE SMOOTH"
);
},
{
closed = 1;
nodes = (
"270 129 OFFCURVE",
"198 207 OFFCURVE",
"198 345 CURVE SMOOTH",
"198 486 OFFCURVE",
"284 582 OFFCURVE",
"404 582 CURVE SMOOTH",
"515 582 OFFCURVE",
"586 497 OFFCURVE",
"586 368 CURVE SMOOTH",
"586 217 OFFCURVE",
"505 129 OFFCURVE",
"389 129 CURVE SMOOTH"
);
},
{
closed = 1;
nodes = (
"312 5 LINE SMOOTH",
"312 -128 OFFCURVE",
"394 -210 OFFCURVE",
"531 -210 CURVE SMOOTH",
"631 -210 OFFCURVE",
"705 -161 OFFCURVE",
"717 -57 CURVE",
"591 -42 LINE",
"587 -71 OFFCURVE",
"564 -87 OFFCURVE",
"532 -87 CURVE SMOOTH",
"486 -87 OFFCURVE",
"464 -61 OFFCURVE",
"464 -4 CURVE SMOOTH",
"464 80 LINE",
"312 80 LINE"
);
}
);
width = 783;
}
);
leftMetricsKey = O;
widthMetricsKey = O;
unicode = 0051;
},
{
color = 3;
glyphname = R;
lastChange = "2019-03-28 16:32:50 +0000";
layers = (
{
anchors = (
{
name = bottom;
position = "{347, 0}";
},
{
name = top;
position = "{346, 712}";
}
);
background = {
paths = (
{
closed = 1;
nodes = (
"595 72 OFFCURVE",
"577 66 OFFCURVE",
"557 66 CURVE SMOOTH",
"512 66 OFFCURVE",
"493 79 OFFCURVE",
"456 134 CURVE SMOOTH",
"372 258 LINE SMOOTH",
"336 312 OFFCURVE",
"307 331 OFFCURVE",
"268 331 CURVE",
"262 321 LINE",
"301 321 LINE SMOOTH",
"438 321 OFFCURVE",
"544 386 OFFCURVE",
"544 513 CURVE SMOOTH",
"544 636 OFFCURVE",
"448 710 OFFCURVE",
"296 710 CURVE SMOOTH",
"94 710 LINE",
"94 0 LINE",
"175 0 LINE",
"175 641 LINE",
"290 641 LINE SMOOTH",
"400 641 OFFCURVE",
"463 594 OFFCURVE",
"463 510 CURVE SMOOTH",
"463 424 OFFCURVE",
"397 386 OFFCURVE",
"280 386 CURVE SMOOTH",
"159 386 LINE",
"159 319 LINE",
"199 319 LINE SMOOTH",
"225 319 OFFCURVE",
"250 301 OFFCURVE",
"268 275 CURVE SMOOTH",
"398 83 LINE SMOOTH",
"442 18 OFFCURVE",
"489 -6 OFFCURVE",
"544 -6 CURVE SMOOTH",
"579 -6 OFFCURVE",
"608 2 OFFCURVE",
"629 18 CURVE",
"611 82 LINE"
);
}
);
};
guideLines = (
{
angle = 124.1013;
position = "{435, 179}";
}
);
layerId = "A3B50665-EA37-4AC6-885C-1233CA61B6BD";
paths = (
{
closed = 1;
nodes = (
"595 72 OFFCURVE",
"577 66 OFFCURVE",
"557 66 CURVE SMOOTH",
"512 66 OFFCURVE",
"494 79 OFFCURVE",
"456 134 CURVE SMOOTH",
"367 265 LINE SMOOTH",
"335 312 OFFCURVE",
"307 331 OFFCURVE",
"268 331 CURVE",
"262 321 LINE",
"311 321 LINE SMOOTH",
"438 321 OFFCURVE",
"544 386 OFFCURVE",
"544 516 CURVE SMOOTH",
"544 636 OFFCURVE",
"448 710 OFFCURVE",
"296 710 CURVE SMOOTH",
"94 710 LINE",
"94 0 LINE",
"175 0 LINE",
"175 642 LINE",
"290 642 LINE SMOOTH",
"400 642 OFFCURVE",
"463 594 OFFCURVE",
"463 514 CURVE SMOOTH",
"463 424 OFFCURVE",
"397 386 OFFCURVE",
"280 386 CURVE SMOOTH",
"159 386 LINE",
"159 319 LINE",
"199 319 LINE SMOOTH",
"223 319 OFFCURVE",
"248 301 OFFCURVE",
"266 275 CURVE SMOOTH",
"396 83 LINE SMOOTH",
"440 18 OFFCURVE",
"486 -6 OFFCURVE",
"544 -6 CURVE SMOOTH",
"579 -6 OFFCURVE",
"608 2 OFFCURVE",
"629 18 CURVE",
"611 82 LINE"
);
}
);
width = 624;
},
{
anchors = (
{
name = bottom;
position = "{358, 0}";
},
{
name = top;
position = "{358, 712}";
}
);
background = {
paths = (
{
closed = 1;
nodes = (
"644 132 OFFCURVE",
"622 127 OFFCURVE",
"597 127 CURVE SMOOTH",
"560 127 OFFCURVE",
"536 141 OFFCURVE",
"512 177 CURVE SMOOTH",
"474 234 LINE SMOOTH",
"443 280 OFFCURVE",
"407 300 OFFCURVE",
"351 300 CURVE",
"327 282 LINE",
"352 282 LINE SMOOTH",
"494 282 OFFCURVE",
"597 357 OFFCURVE",
"597 491 CURVE SMOOTH",
"597 627 OFFCURVE",
"499 710 OFFCURVE",
"306 710 CURVE SMOOTH",
"76 710 LINE",
"76 0 LINE",
"229 0 LINE",
"229 587 LINE",
"298 587 LINE SMOOTH",
"396 587 OFFCURVE",
"441 555 OFFCURVE",
"441 489 CURVE SMOOTH",
"441 428 OFFCURVE",
"400 395 OFFCURVE",
"294 395 CURVE SMOOTH",
"196 395 LINE",
"196 279 LINE",
"223 279 LINE SMOOTH",
"251 279 OFFCURVE",
"273 270 OFFCURVE",
"296 234 CURVE SMOOTH",
"385 93 LINE SMOOTH",
"427 26 OFFCURVE",
"491 -10 OFFCURVE",
"574 -10 CURVE SMOOTH",
"621 -10 OFFCURVE",
"669 4 OFFCURVE",
"697 26 CURVE",
"665 146 LINE"
);
}
);
};
guideLines = (
{
angle = 122.1118;
position = "{521, 170}";
}
);
layerId = "014D4A40-7C7F-4023-B30E-1F55CE5EA091";
paths = (
{
closed = 1;
nodes = (
"640 132 OFFCURVE",
"618 127 OFFCURVE",
"593 127 CURVE SMOOTH",
"556 127 OFFCURVE",
"532 141 OFFCURVE",
"508 177 CURVE SMOOTH",
"470 234 LINE SMOOTH",
"439 280 OFFCURVE",
"403 300 OFFCURVE",
"361 300 CURVE",
"317 282 LINE",
"344 282 LINE SMOOTH",
"491 282 OFFCURVE",
"597 357 OFFCURVE",
"597 491 CURVE SMOOTH",
"597 627 OFFCURVE",
"499 710 OFFCURVE",
"306 710 CURVE SMOOTH",
"76 710 LINE",
"76 0 LINE",
"229 0 LINE",
"229 583 LINE",
"298 583 LINE SMOOTH",
"389 583 OFFCURVE",
"441 555 OFFCURVE",
"441 492 CURVE SMOOTH",
"441 428 OFFCURVE",
"398 400 OFFCURVE",
"294 400 CURVE SMOOTH",
"196 400 LINE",
"196 279 LINE",
"223 279 LINE SMOOTH",
"251 279 OFFCURVE",
"273 270 OFFCURVE",
"296 234 CURVE SMOOTH",
"385 93 LINE SMOOTH",
"427 26 OFFCURVE",
"491 -10 OFFCURVE",
"574 -10 CURVE SMOOTH",
"621 -10 OFFCURVE",
"669 4 OFFCURVE",
"697 26 CURVE",
"661 146 LINE"
);
}
);
width = 678;
}
);
leftMetricsKey = H;
unicode = 0052;
},
{
color = 3;
glyphname = S;
lastChange = "2019-03-27 10:29:21 +0000";
layers = (
{
background = {
paths = (
{
closed = 1;
nodes = (
"446 -8 OFFCURVE",
"545 72 OFFCURVE",
"545 188 CURVE SMOOTH",
"545 295 OFFCURVE",
"470 355 OFFCURVE",
"328 382 CURVE SMOOTH",
"215 404 OFFCURVE",
"168 439 OFFCURVE",
"168 517 CURVE SMOOTH",
"168 596 OFFCURVE",
"226 648 OFFCURVE",
"314 648 CURVE SMOOTH",
"401 648 OFFCURVE",
"448 608 OFFCURVE",
"466 518 CURVE",
"538 530 LINE",
"523 649 OFFCURVE",
"441 720 OFFCURVE",
"316 720 CURVE SMOOTH",
"183 720 OFFCURVE",
"86 633 OFFCURVE",
"86 514 CURVE SMOOTH",
"86 400 OFFCURVE",
"159 338 OFFCURVE",
"294 312 CURVE SMOOTH",
"415 289 OFFCURVE",
"463 253 OFFCURVE",
"463 187 CURVE SMOOTH",
"463 111 OFFCURVE",
"405 65 OFFCURVE",
"309 65 CURVE SMOOTH",
"194 65 OFFCURVE",
"138 111 OFFCURVE",
"119 221 CURVE",
"42 210 LINE",
"58 66 OFFCURVE",
"147 -8 OFFCURVE",
"303 -8 CURVE SMOOTH"
);
}
);
};
layerId = "A3B50665-EA37-4AC6-885C-1233CA61B6BD";
paths = (
{
closed = 1;
nodes = (
"446 -8 OFFCURVE",
"545 72 OFFCURVE",
"545 188 CURVE SMOOTH",
"545 455 OFFCURVE",
"168 309 OFFCURVE",
"168 517 CURVE SMOOTH",
"168 596 OFFCURVE",
"226 648 OFFCURVE",
"314 648 CURVE SMOOTH",
"401 648 OFFCURVE",
"448 608 OFFCURVE",
"466 518 CURVE",
"538 530 LINE",
"523 649 OFFCURVE",
"441 720 OFFCURVE",
"316 720 CURVE SMOOTH",
"183 720 OFFCURVE",
"86 633 OFFCURVE",
"86 514 CURVE SMOOTH",
"86 234 OFFCURVE",
"463 377 OFFCURVE",
"463 187 CURVE SMOOTH",
"463 111 OFFCURVE",
"405 65 OFFCURVE",
"309 65 CURVE SMOOTH",
"194 65 OFFCURVE",
"138 111 OFFCURVE",
"119 221 CURVE",
"42 210 LINE",
"58 66 OFFCURVE",
"147 -8 OFFCURVE",
"303 -8 CURVE SMOOTH"
);
}
);
width = 588;
},
{
background = {
paths = (
{
closed = 1;
nodes = (
"473 -9 OFFCURVE",
"585 80 OFFCURVE",
"585 210 CURVE SMOOTH",
"585 313 OFFCURVE",
"506 383 OFFCURVE",
"376 410 CURVE SMOOTH",
"264 434 OFFCURVE",
"229 458 OFFCURVE",
"229 509 CURVE SMOOTH",
"229 558 OFFCURVE",
"268 590 OFFCURVE",
"328 590 CURVE SMOOTH",
"390 590 OFFCURVE",
"431 558 OFFCURVE",
"442 500 CURVE",
"578 523 LINE",
"564 645 OFFCURVE",
"471 720 OFFCURVE",
"335 720 CURVE SMOOTH",
"177 720 OFFCURVE",
"69 628 OFFCURVE",
"69 497 CURVE SMOOTH",
"69 389 OFFCURVE",
"139 317 OFFCURVE",
"276 288 CURVE SMOOTH",
"387 265 OFFCURVE",
"425 242 OFFCURVE",
"425 197 CURVE SMOOTH",
"425 149 OFFCURVE",
"385 122 OFFCURVE",
"313 122 CURVE SMOOTH",
"228 122 OFFCURVE",
"179 160 OFFCURVE",
"170 233 CURVE",
"26 212 LINE",
"38 67 OFFCURVE",
"135 -9 OFFCURVE",
"307 -9 CURVE SMOOTH"
);
}
);
};
layerId = "014D4A40-7C7F-4023-B30E-1F55CE5EA091";
paths = (
{
closed = 1;
nodes = (
"473 -9 OFFCURVE",
"585 80 OFFCURVE",
"585 210 CURVE SMOOTH",
"585 464 OFFCURVE",
"229 368 OFFCURVE",
"229 509 CURVE SMOOTH",
"229 558 OFFCURVE",
"268 590 OFFCURVE",
"328 590 CURVE SMOOTH",
"390 590 OFFCURVE",
"431 558 OFFCURVE",
"442 500 CURVE",
"578 523 LINE",
"564 645 OFFCURVE",
"471 720 OFFCURVE",
"335 720 CURVE SMOOTH",
"177 720 OFFCURVE",
"69 628 OFFCURVE",
"69 497 CURVE SMOOTH",
"69 234 OFFCURVE",
"425 325 OFFCURVE",
"425 197 CURVE SMOOTH",
"425 149 OFFCURVE",
"385 122 OFFCURVE",
"313 122 CURVE SMOOTH",
"228 122 OFFCURVE",
"179 160 OFFCURVE",
"170 233 CURVE",
"26 212 LINE",
"38 67 OFFCURVE",
"135 -9 OFFCURVE",
"307 -9 CURVE SMOOTH"
);
}
);
width = 616;
}
);
note = s;
unicode = 0053;
},
{
color = 3;
glyphname = Germandbls;
lastChange = "2019-03-27 21:08:38 +0000";
layers = (
{
background = {
paths = (
{
closed = 1;
nodes = (
"1301 720 OFFCURVE",
"1194 617 OFFCURVE",
"1194 432 CURVE SMOOTH",
"1194 0 LINE",
"1277 0 LINE",
"1277 434 LINE SMOOTH",
"1277 573 OFFCURVE",
"1347 649 OFFCURVE",
"1483 649 CURVE SMOOTH",
"1585 649 OFFCURVE",
"1656 606 OFFCURVE",
"1656 517 CURVE SMOOTH",
"1656 431 OFFCURVE",
"1591 391 OFFCURVE",
"1517 391 CURVE SMOOTH",
"1463 391 LINE",
"1463 324 LINE",
"1518 324 LINE SMOOTH",
"1621 324 OFFCURVE",
"1680 273 OFFCURVE",
"1680 183 CURVE SMOOTH",
"1680 108 OFFCURVE",
"1630 66 OFFCURVE",
"1551 66 CURVE SMOOTH",
"1460 66 OFFCURVE",
"1415 112 OFFCURVE",
"1400 194 CURVE",
"1329 171 LINE",
"1347 60 OFFCURVE",
"1431 -8 OFFCURVE",
"1551 -8 CURVE SMOOTH",
"1681 -8 OFFCURVE",
"1761 69 OFFCURVE",
"1761 178 CURVE SMOOTH",
"1761 267 OFFCURVE",
"1712 349 OFFCURVE",
"1600 368 CURVE",
"1579 348 LINE",
"1684 370 OFFCURVE",
"1737 426 OFFCURVE",
"1737 520 CURVE SMOOTH",
"1737 644 OFFCURVE",
"1637 720 OFFCURVE",
"1483 720 CURVE SMOOTH"
);
},
{
closed = 1;
nodes = (
"652 0 LINE",
"652 710 LINE",
"569 710 LINE",
"569 0 LINE"
);
},
{
closed = 1;
nodes = (
"177 0 LINE",
"177 710 LINE",
"94 710 LINE",
"94 0 LINE"
);
},
{
closed = 1;
nodes = (
"618 325 LINE",
"618 395 LINE",
"137 395 LINE",
"137 325 LINE"
);
}
);
};
layerId = "A3B50665-EA37-4AC6-885C-1233CA61B6BD";
paths = (
{
closed = 1;
nodes = (
"201 720 OFFCURVE",
"94 617 OFFCURVE",
"94 432 CURVE SMOOTH",
"94 0 LINE",
"177 0 LINE",
"177 434 LINE SMOOTH",
"177 576 OFFCURVE",
"250 649 OFFCURVE",
"395 649 CURVE SMOOTH",
"498 649 OFFCURVE",
"560 599 OFFCURVE",
"560 517 CURVE SMOOTH",
"560 440 OFFCURVE",
"505 392 OFFCURVE",
"421 392 CURVE SMOOTH",
"367 392 LINE",
"367 323 LINE",
"422 323 LINE SMOOTH",
"525 323 OFFCURVE",
"584 273 OFFCURVE",
"584 183 CURVE SMOOTH",
"584 110 OFFCURVE",
"534 64 OFFCURVE",
"457 64 CURVE SMOOTH",
"371 64 OFFCURVE",
"320 107 OFFCURVE",
"304 194 CURVE",
"233 174 LINE",
"252 58 OFFCURVE",
"332 -8 OFFCURVE",
"457 -8 CURVE SMOOTH",
"582 -8 OFFCURVE",
"665 66 OFFCURVE",
"665 178 CURVE SMOOTH",
"665 280 OFFCURVE",
"602 351 OFFCURVE",
"496 370 CURVE",
"496 351 LINE",
"584 372 OFFCURVE",
"641 430 OFFCURVE",
"641 520 CURVE SMOOTH",
"641 641 OFFCURVE",
"545 720 OFFCURVE",
"395 720 CURVE SMOOTH"
);
}
);
width = 727;
},
{
background = {
paths = (
{
closed = 1;
nodes = (
"694 0 LINE",
"694 710 LINE",
"538 710 LINE",
"538 0 LINE"
);
},
{
closed = 1;
nodes = (
"232 0 LINE",
"232 710 LINE",
"76 710 LINE",
"76 0 LINE"
);
},
{
closed = 1;
nodes = (
"634 290 LINE",
"634 426 LINE",
"144 426 LINE",
"144 290 LINE"
);
},
{
closed = 1;
nodes = (
"196 720 OFFCURVE",
"76 606 OFFCURVE",
"76 396 CURVE SMOOTH",
"76 0 LINE",
"232 0 LINE",
"232 399 LINE SMOOTH",
"232 528 OFFCURVE",
"293 590 OFFCURVE",
"424 590 CURVE SMOOTH",
"505 590 OFFCURVE",
"556 558 OFFCURVE",
"556 503 CURVE SMOOTH",
"556 448 OFFCURVE",
"518 423 OFFCURVE",
"440 423 CURVE SMOOTH",
"389 423 LINE",
"389 294 LINE",
"459 294 LINE SMOOTH",
"541 294 OFFCURVE",
"582 264 OFFCURVE",
"582 203 CURVE SMOOTH",
"582 153 OFFCURVE",
"550 123 OFFCURVE",
"498 123 CURVE SMOOTH",
"443 123 OFFCURVE",
"405 157 OFFCURVE",
"398 214 CURVE",
"267 179 LINE",
"287 60 OFFCURVE",
"369 -10 OFFCURVE",
"501 -10 CURVE SMOOTH",
"642 -10 OFFCURVE",
"732 68 OFFCURVE",
"732 188 CURVE SMOOTH",
"732 282 OFFCURVE",
"674 350 OFFCURVE",
"572 375 CURVE",
"570 355 LINE",
"658 376 OFFCURVE",
"706 430 OFFCURVE",
"706 515 CURVE SMOOTH",
"706 641 OFFCURVE",
"597 720 OFFCURVE",
"425 720 CURVE SMOOTH"
);
}
);
};
layerId = "014D4A40-7C7F-4023-B30E-1F55CE5EA091";
paths = (
{
closed = 1;
nodes = (
"196 720 OFFCURVE",
"76 606 OFFCURVE",
"76 396 CURVE SMOOTH",
"76 0 LINE",
"232 0 LINE",
"232 399 LINE SMOOTH",
"232 528 OFFCURVE",
"293 590 OFFCURVE",
"420 590 CURVE SMOOTH",
"497 590 OFFCURVE",
"548 558 OFFCURVE",
"548 503 CURVE SMOOTH",
"548 448 OFFCURVE",
"510 423 OFFCURVE",
"432 423 CURVE SMOOTH",
"381 423 LINE",
"381 294 LINE",
"451 294 LINE SMOOTH",
"533 294 OFFCURVE",
"574 264 OFFCURVE",
"574 203 CURVE SMOOTH",
"574 153 OFFCURVE",
"544 123 OFFCURVE",
"494 123 CURVE SMOOTH",
"441 123 OFFCURVE",
"405 157 OFFCURVE",
"398 214 CURVE",
"267 179 LINE",
"287 60 OFFCURVE",
"369 -10 OFFCURVE",
"497 -10 CURVE SMOOTH",
"634 -10 OFFCURVE",
"724 68 OFFCURVE",
"724 188 CURVE SMOOTH",
"724 282 OFFCURVE",
"666 350 OFFCURVE",
"564 375 CURVE",
"562 355 LINE",
"650 376 OFFCURVE",
"698 430 OFFCURVE",
"698 515 CURVE SMOOTH",
"698 641 OFFCURVE",
"589 720 OFFCURVE",
"421 720 CURVE SMOOTH"
);
}
);
width = 767;
}
);
leftMetricsKey = H;
rightMetricsKey = B;
unicode = 1E9E;
},
{
color = 3;
glyphname = T;
lastChange = "2019-03-12 13:07:15 +0000";
layers = (
{
layerId = "A3B50665-EA37-4AC6-885C-1233CA61B6BD";
paths = (
{
closed = 1;
nodes = (
"17 710 LINE",
"17 639 LINE",
"249 639 LINE",
"249 0 LINE",
"332 0 LINE",
"332 639 LINE",
"559 639 LINE",
"569 710 LINE"
);
}
);
width = 581;
},
{
background = {
paths = (
{
closed = 1;
nodes = (
"10 710 LINE",
"10 574 LINE",
"236 574 LINE",
"236 0 LINE",
"392 0 LINE",
"392 574 LINE",
"618 574 LINE",
"618 710 LINE"
);
}
);
};
layerId = "014D4A40-7C7F-4023-B30E-1F55CE5EA091";
paths = (
{
closed = 1;
nodes = (
"10 710 LINE",
"10 576 LINE",
"236 576 LINE",
"236 0 LINE",
"392 0 LINE",
"392 576 LINE",
"608 576 LINE",
"628 710 LINE"
);
}
);
width = 628;
}
);
unicode = 0054;
},
{
color = 3;
glyphname = U;
lastChange = "2019-03-12 13:07:15 +0000";
layers = (
{
background = {
paths = (
{
closed = 1;
nodes = (
"578 345 LINE SMOOTH",
"579 155 OFFCURVE",
"512 68 OFFCURVE",
"367 68 CURVE SMOOTH",
"227 68 OFFCURVE",
"166 142 OFFCURVE",
"166 312 CURVE SMOOTH",
"166 710 LINE",
"82 710 LINE",
"82 308 LINE SMOOTH",
"82 92 OFFCURVE",
"179 -8 OFFCURVE",
"367 -8 CURVE SMOOTH",
"558 -8 OFFCURVE",
"661 115 OFFCURVE",
"660 343 CURVE SMOOTH",
"659 710 LINE",
"577 710 LINE"
);
}
);
};
guideLines = (
{
angle = 90;
position = "{754, 356}";
},
{
angle = 90;
position = "{817, 356}";
}
);
layerId = "A3B50665-EA37-4AC6-885C-1233CA61B6BD";
paths = (
{
closed = 1;
nodes = (
"578 342 LINE SMOOTH",
"579 155 OFFCURVE",
"517 68 OFFCURVE",
"372 68 CURVE SMOOTH",
"235 68 OFFCURVE",
"176 140 OFFCURVE",
"176 307 CURVE SMOOTH",
"176 710 LINE",
"92 710 LINE",
"92 303 LINE SMOOTH",
"92 88 OFFCURVE",
"184 -8 OFFCURVE",
"372 -8 CURVE SMOOTH",
"563 -8 OFFCURVE",
"661 115 OFFCURVE",
"660 340 CURVE SMOOTH",
"659 710 LINE",
"577 710 LINE"
);
}
);
width = 752;
},
{
background = {
paths = (
{
closed = 1;
nodes = (
"1549 -10 OFFCURVE",
"1689 174 OFFCURVE",
"1689 362 CURVE SMOOTH",
"1689 578 OFFCURVE",
"1534 720 OFFCURVE",
"1324 720 CURVE SMOOTH",
"1088 720 OFFCURVE",
"947 534 OFFCURVE",
"947 346 CURVE SMOOTH",
"947 131 OFFCURVE",
"1101 -10 OFFCURVE",
"1312 -10 CURVE SMOOTH"
);
},
{
closed = 1;
nodes = (
"1191 127 OFFCURVE",
"1106 210 OFFCURVE",
"1106 349 CURVE SMOOTH",
"1106 483 OFFCURVE",
"1191 585 OFFCURVE",
"1322 585 CURVE SMOOTH",
"1443 585 OFFCURVE",
"1530 499 OFFCURVE",
"1530 359 CURVE SMOOTH",
"1530 221 OFFCURVE",
"1450 127 OFFCURVE",
"1314 127 CURVE SMOOTH"
);
},
{
closed = 1;
nodes = (
"603 -8 OFFCURVE",
"753 139 OFFCURVE",
"753 369 CURVE SMOOTH",
"753 580 OFFCURVE",
"618 720 OFFCURVE",
"416 720 CURVE SMOOTH",
"198 720 OFFCURVE",
"47 564 OFFCURVE",
"47 342 CURVE SMOOTH",
"47 120 OFFCURVE",
"180 -8 OFFCURVE",
"396 -8 CURVE SMOOTH"
);
},
{
closed = 1;
nodes = (
"278 127 OFFCURVE",
"206 205 OFFCURVE",
"206 345 CURVE SMOOTH",
"206 489 OFFCURVE",
"292 585 OFFCURVE",
"412 585 CURVE SMOOTH",
"523 585 OFFCURVE",
"594 500 OFFCURVE",
"594 368 CURVE SMOOTH",
"594 215 OFFCURVE",
"513 127 OFFCURVE",
"397 127 CURVE SMOOTH"
);
},
{
closed = 1;
nodes = (
"553 426 LINE",
"247 426 LINE",
"247 710 LINE",
"91 710 LINE",
"91 0 LINE",
"247 0 LINE",
"247 290 LINE",
"553 290 LINE",
"553 0 LINE",
"709 0 LINE",
"709 710 LINE",
"553 710 LINE"
);
}
);
};
layerId = "014D4A40-7C7F-4023-B30E-1F55CE5EA091";
paths = (
{
closed = 1;
nodes = (
"546 336 LINE SMOOTH",
"547 194 OFFCURVE",
"491 129 OFFCURVE",
"390 129 CURVE SMOOTH",
"287 129 OFFCURVE",
"230 183 OFFCURVE",
"230 313 CURVE SMOOTH",
"230 710 LINE",
"74 710 LINE",
"74 300 LINE SMOOTH",
"74 94 OFFCURVE",
"183 -12 OFFCURVE",
"393 -10 CURVE SMOOTH",
"582 -8 OFFCURVE",
"703 123 OFFCURVE",
"702 327 CURVE SMOOTH",
"700 710 LINE",
"544 710 LINE"
);
}
);
width = 776;
}
);
rightMetricsKey = "=|";
unicode = 0055;
},
{
color = 3;
glyphname = V;
lastChange = "2019-03-12 13:07:15 +0000";
layers = (
{
background = {
paths = (
{
closed = 1;
nodes = (
"286 24 LINE",
"304 23 LINE",
"101 710 LINE",
"14 710 LINE",
"236 0 LINE",
"348 0 LINE",
"615 710 LINE",
"532 710 LINE"
);
}
);
};
layerId = "A3B50665-EA37-4AC6-885C-1233CA61B6BD";
paths = (
{
closed = 1;
nodes = (
"286 24 LINE",
"313 23 LINE",
"106 710 LINE",
"21 710 LINE",
"241 0 LINE",
"352 0 LINE",
"618 710 LINE",
"536 710 LINE"
);
}
);
width = 615;
},
{
background = {
paths = (
{
closed = 1;
nodes = (
"298 33 LINE",
"362 33 LINE",
"168 710 LINE",
"0 710 LINE",
"212 0 LINE",
"435 0 LINE",
"689 710 LINE",
"532 710 LINE"
);
}
);
};
guideLines = (
{
angle = 68.7799;
position = "{371, 235}";
}
);
layerId = "014D4A40-7C7F-4023-B30E-1F55CE5EA091";
paths = (
{
closed = 1;
nodes = (
"298 33 LINE",
"362 33 LINE",
"168 710 LINE",
"2 710 LINE",
"214 0 LINE",
"433 0 LINE",
"687 710 LINE",
"532 710 LINE"
);
}
);
width = 666;
}
);
unicode = 0056;
},
{
color = 3;
glyphname = W;
lastChange = "2019-03-12 13:07:15 +0000";
layers = (
{
background = {
paths = (
{
closed = 1;
nodes = (
"1600 24 LINE",
"1639 23 LINE",
"1495 497 LINE",
"1411 497 LINE",
"1236 24 LINE",
"1278 23 LINE",
"1136 497 LINE",
"1050 497 LINE",
"1206 0 LINE",
"1302 0 LINE",
"1462 427 LINE",
"1439 427 LINE",
"1571 0 LINE",
"1667 0 LINE",
"1852 497 LINE",
"1769 497 LINE"
);
},
{
closed = 1;
nodes = (
"655 71 LINE",
"722 70 LINE",
"575 710 LINE",
"390 710 LINE",
"213 71 LINE",
"285 70 LINE",
"134 710 LINE",
"-25 710 LINE",
"152 0 LINE",
"329 0 LINE",
"480 541 LINE",
"466 541 LINE",
"592 0 LINE",
"769 0 LINE",
"972 710 LINE",
"829 710 LINE"
);
}
);
};
layerId = "A3B50665-EA37-4AC6-885C-1233CA61B6BD";
paths = (
{
closed = 1;
nodes = (
"664 24 LINE",
"705 23 LINE",
"538 710 LINE",
"450 710 LINE",
"252 24 LINE",
"292 23 LINE",
"128 710 LINE",
"44 710 LINE",
"220 0 LINE",
"316 0 LINE",
"501 640 LINE",
"478 640 LINE",
"635 0 LINE",
"731 0 LINE",
"937 710 LINE",
"856 710 LINE"
);
}
);
width = 966;
},
{
background = {
paths = (
{
closed = 1;
nodes = (
"665 46 LINE",
"720 46 LINE",
"591 508 LINE",
"451 508 LINE",
"300 46 LINE",
"357 46 LINE",
"226 508 LINE",
"77 508 LINE",
"235 0 LINE",
"411 0 LINE",
"526 339 LINE",
"510 339 LINE",
"607 0 LINE",
"783 0 LINE",
"958 508 LINE",
"816 508 LINE"
);
}
);
};
layerId = "014D4A40-7C7F-4023-B30E-1F55CE5EA091";
paths = (
{
closed = 1;
nodes = (
"701 67 LINE",
"767 66 LINE",
"620 710 LINE",
"436 710 LINE",
"259 67 LINE",
"329 66 LINE",
"178 710 LINE",
"21 710 LINE",
"198 0 LINE",
"375 0 LINE",
"526 541 LINE",
"512 541 LINE",
"638 0 LINE",
"815 0 LINE",
"1020 710 LINE",
"877 710 LINE"
);
}
);
width = 1024;
}
);
unicode = 0057;
},
{
color = 3;
glyphname = X;
lastChange = "2019-03-12 13:07:15 +0000";
layers = (
{
background = {
paths = (
{
closed = 1;
nodes = (
"594 0 LINE",
"118 710 LINE",
"25 710 LINE",
"499 0 LINE"
);
},
{
closed = 1;
nodes = (
"583 710 LINE",
"496 710 LINE",
"13 0 LINE",
"104 0 LINE"
);
}
);
};
layerId = "A3B50665-EA37-4AC6-885C-1233CA61B6BD";
paths = (
{
closed = 1;
nodes = (
"599 0 LINE",
"354 365 LINE",
"312 428 LINE",
"126 710 LINE",
"33 710 LINE",
"264 361 LINE",
"308 296 LINE",
"504 0 LINE"
);
},
{
closed = 1;
nodes = (
"308 296 LINE",
"354 365 LINE",
"588 710 LINE",
"501 710 LINE",
"312 428 LINE",
"264 361 LINE",
"18 0 LINE",
"109 0 LINE"
);
}
);
width = 620;
},
{
background = {
paths = (
{
closed = 1;
nodes = (
"1345 0 LINE",
"892 710 LINE",
"721 710 LINE",
"1171 0 LINE"
);
},
{
closed = 1;
nodes = (
"1335 710 LINE",
"1173 710 LINE",
"709 0 LINE",
"872 0 LINE"
);
},
{
closed = 1;
nodes = (
"647 0 LINE",
"194 710 LINE",
"19 710 LINE",
"469 0 LINE"
);
},
{
closed = 1;
nodes = (
"637 710 LINE",
"471 710 LINE",
"7 0 LINE",
"174 0 LINE"
);
}
);
};
layerId = "014D4A40-7C7F-4023-B30E-1F55CE5EA091";
paths = (
{
closed = 1;
nodes = (
"645 0 LINE",
"412 367 LINE",
"332 491 LINE",
"195 710 LINE",
"20 710 LINE",
"243 359 LINE",
"326 232 LINE",
"467 0 LINE"
);
},
{
closed = 1;
nodes = (
"326 232 LINE",
"412 367 LINE",
"635 710 LINE",
"469 710 LINE",
"332 491 LINE",
"243 359 LINE",
"7 0 LINE",
"178 0 LINE"
);
}
);
width = 656;
}
);
unicode = 0058;
},
{
color = 3;
glyphname = Y;
lastChange = "2019-03-12 13:07:15 +0000";
layers = (
{
background = {
paths = (
{
closed = 1;
nodes = (
"293 422 LINE",
"103 710 LINE",
"10 710 LINE",
"262 329 LINE",
"311 323 LINE",
"565 710 LINE",
"478 710 LINE"
);
},
{
closed = 1;
nodes = (
"331 0 LINE",
"331 410 LINE",
"248 410 LINE",
"248 0 LINE"
);
}
);
};
layerId = "A3B50665-EA37-4AC6-885C-1233CA61B6BD";
paths = (
{
closed = 1;
nodes = (
"298 392 LINE",
"88 710 LINE",
"-5 710 LINE",
"267 299 LINE",
"316 293 LINE",
"589 710 LINE",
"502 710 LINE"
);
},
{
closed = 1;
nodes = (
"336 0 LINE",
"336 370 LINE",
"253 370 LINE",
"253 0 LINE"
);
}
);
width = 589;
},
{
background = {
paths = (
{
closed = 1;
nodes = (
"313 481 LINE",
"169 710 LINE",
"-6 710 LINE",
"255 299 LINE",
"349 289 LINE",
"609 710 LINE",
"443 710 LINE"
);
},
{
closed = 1;
nodes = (
"384 0 LINE",
"384 418 LINE",
"228 418 LINE",
"228 0 LINE"
);
}
);
};
layerId = "014D4A40-7C7F-4023-B30E-1F55CE5EA091";
paths = (
{
closed = 1;
nodes = (
"313 451 LINE",
"150 710 LINE",
"-25 710 LINE",
"255 269 LINE",
"349 259 LINE",
"626 710 LINE",
"460 710 LINE"
);
},
{
closed = 1;
nodes = (
"384 0 LINE",
"384 418 LINE",
"228 418 LINE",
"228 0 LINE"
);
}
);
width = 612;
}
);
unicode = 0059;
},
{
color = 3;
glyphname = Z;
lastChange = "2019-03-12 13:07:15 +0000";
layers = (
{
background = {
paths = (
{
closed = 1;
nodes = (
"580 0 LINE",
"580 67 LINE",
"118 67 LINE",
"123 27 LINE",
"575 655 LINE",
"575 710 LINE",
"64 710 LINE",
"64 645 LINE",
"509 645 LINE",
"501 683 LINE",
"49 55 LINE",
"49 0 LINE"
);
}
);
};
layerId = "A3B50665-EA37-4AC6-885C-1233CA61B6BD";
paths = (
{
closed = 1;
nodes = (
"585 0 LINE",
"585 71 LINE",
"123 71 LINE",
"126 27 LINE",
"580 650 LINE",
"580 710 LINE",
"69 710 LINE",
"69 641 LINE",
"514 641 LINE",
"508 683 LINE",
"54 60 LINE",
"54 0 LINE"
);
}
);
width = 628;
},
{
background = {
paths = (
{
closed = 1;
nodes = (
"669 0 LINE",
"669 710 LINE",
"513 710 LINE",
"513 0 LINE"
);
},
{
closed = 1;
nodes = (
"207 0 LINE",
"207 710 LINE",
"51 710 LINE",
"51 0 LINE"
);
},
{
closed = 1;
nodes = (
"609 290 LINE",
"609 426 LINE",
"99 426 LINE",
"99 290 LINE"
);
}
);
};
layerId = "014D4A40-7C7F-4023-B30E-1F55CE5EA091";
paths = (
{
closed = 1;
nodes = (
"622 0 LINE",
"622 135 LINE",
"196 135 LINE",
"215 84 LINE",
"620 598 LINE",
"620 710 LINE",
"69 710 LINE",
"69 575 LINE",
"473 575 LINE",
"456 626 LINE",
"51 112 LINE",
"51 0 LINE"
);
}
);
width = 664;
}
);
unicode = 005A;
},
{
color = 1;
glyphname = a;
lastChange = "2019-03-29 12:27:07 +0000";
layers = (
{
background = {
paths = (
{
closed = 1;
nodes = (
"363 -10 OFFCURVE",
"428 34 OFFCURVE",
"462 107 CURVE",
"468 107 LINE",
"468 0 LINE",
"547 0 LINE",
"547 522 LINE",
"488 522 LINE",
"475 429 LINE",
"469 429 LINE",
"443 490 OFFCURVE",
"380 529 OFFCURVE",
"297 529 CURVE SMOOTH",
"158 529 OFFCURVE",
"61 418 OFFCURVE",
"60 246 CURVE SMOOTH",
"59 90 OFFCURVE",
"148 -10 OFFCURVE",
"278 -10 CURVE SMOOTH"
);
},
{
closed = 1;
nodes = (
"200 67 OFFCURVE",
"141 139 OFFCURVE",
"142 252 CURVE SMOOTH",
"143 377 OFFCURVE",
"206 452 OFFCURVE",
"311 452 CURVE SMOOTH",
"406 452 OFFCURVE",
"467 384 OFFCURVE",
"467 280 CURVE SMOOTH",
"467 153 OFFCURVE",
"396 67 OFFCURVE",
"292 67 CURVE SMOOTH"
);
}
);
};
layerId = "A3B50665-EA37-4AC6-885C-1233CA61B6BD";
paths = (
{
closed = 1;
nodes = (
"369 -10 OFFCURVE",
"428 34 OFFCURVE",
"472 117 CURVE",
"468 117 LINE",
"468 0 LINE",
"547 0 LINE",
"547 522 LINE",
"488 522 LINE",
"475 419 LINE",
"479 419 LINE",
"443 490 OFFCURVE",
"386 529 OFFCURVE",
"305 529 CURVE SMOOTH",
"162 529 OFFCURVE",
"61 418 OFFCURVE",
"60 246 CURVE SMOOTH",
"59 90 OFFCURVE",
"145 -10 OFFCURVE",
"286 -10 CURVE SMOOTH"
);
},
{
closed = 1;
nodes = (
"197 67 OFFCURVE",
"141 139 OFFCURVE",
"142 252 CURVE SMOOTH",
"143 377 OFFCURVE",
"214 452 OFFCURVE",
"311 452 CURVE SMOOTH",
"406 452 OFFCURVE",
"468 384 OFFCURVE",
"468 280 CURVE SMOOTH",
"468 153 OFFCURVE",
"396 67 OFFCURVE",
"292 67 CURVE SMOOTH"
);
}
);
width = 640;
},
{
background = {
hints = (
{
horizontal = 1;
place = "{-8, 129}";
type = Stem;
},
{
horizontal = 1;
place = "{386, 129}";
type = Stem;
},
{
horizontal = 1;
place = "{672, -20}";
target = down;
type = TopGhost;
},
{
place = "{46, 134}";
type = Stem;
},
{
place = "{366, 134}";
type = Stem;
},
{
horizontal = 1;
place = "{0, 21}";
target = up;
type = BottomGhost;
},
{
place = "{385, 115}";
type = Stem;
}
);
paths = (
{
closed = 1;
nodes = (
"382 -13 OFFCURVE",
"450 21 OFFCURVE",
"474 81 CURVE",
"483 81 LINE",
"483 0 LINE",
"630 0 LINE",
"630 534 LINE",
"527 534 LINE",
"507 445 LINE",
"500 445 LINE",
"474 509 OFFCURVE",
"404 543 OFFCURVE",
"324 543 CURVE SMOOTH",
"156 543 OFFCURVE",
"56 427 OFFCURVE",
"55 253 CURVE SMOOTH",
"54 97 OFFCURVE",
"152 -13 OFFCURVE",
"309 -13 CURVE SMOOTH"
);
},
{
closed = 1;
nodes = (
"259 125 OFFCURVE",
"210 177 OFFCURVE",
"211 260 CURVE SMOOTH",
"212 351 OFFCURVE",
"264 405 OFFCURVE",
"352 405 CURVE SMOOTH",
"431 405 OFFCURVE",
"480 357 OFFCURVE",
"480 278 CURVE SMOOTH",
"480 187 OFFCURVE",
"421 125 OFFCURVE",
"336 125 CURVE SMOOTH"
);
}
);
};
layerId = "014D4A40-7C7F-4023-B30E-1F55CE5EA091";
paths = (
{
closed = 1;
nodes = (
"388 -13 OFFCURVE",
"450 17 OFFCURVE",
"484 84 CURVE",
"483 84 LINE",
"483 0 LINE",
"630 0 LINE",
"630 534 LINE",
"527 534 LINE",
"507 442 LINE",
"510 442 LINE",
"474 512 OFFCURVE",
"410 543 OFFCURVE",
"330 543 CURVE SMOOTH",
"162 543 OFFCURVE",
"56 427 OFFCURVE",
"55 253 CURVE SMOOTH",
"54 97 OFFCURVE",
"154 -13 OFFCURVE",
"315 -13 CURVE SMOOTH"
);
},
{
closed = 1;
nodes = (
"259 125 OFFCURVE",
"210 177 OFFCURVE",
"211 260 CURVE SMOOTH",
"212 351 OFFCURVE",
"272 405 OFFCURVE",
"352 405 CURVE SMOOTH",
"431 405 OFFCURVE",
"480 357 OFFCURVE",
"480 278 CURVE SMOOTH",
"480 187 OFFCURVE",
"421 125 OFFCURVE",
"336 125 CURVE SMOOTH"
);
}
);
width = 709;
}
);
leftKerningGroup = o;
leftMetricsKey = o;
note = d;
rightMetricsKey = "=|n";
unicode = 0061;
},
{
color = 9;
glyphname = ae;
lastChange = "2019-03-27 21:38:34 +0000";
layers = (
{
background = {
paths = (
{
closed = 1;
nodes = (
"395 220 LINE SMOOTH",
"395 119 OFFCURVE",
"343 60 OFFCURVE",
"247 60 CURVE SMOOTH",
"174 60 OFFCURVE",
"140 95 OFFCURVE",
"140 139 CURVE SMOOTH",
"140 190 OFFCURVE",
"177 222 OFFCURVE",
"251 222 CURVE SMOOTH",
"422 222 LINE",
"422 286 LINE",
"257 286 LINE SMOOTH",
"131 286 OFFCURVE",
"58 229 OFFCURVE",
"58 136 CURVE SMOOTH",
"58 50 OFFCURVE",
"135 -8 OFFCURVE",
"239 -8 CURVE SMOOTH",
"355 -8 OFFCURVE",
"415 44 OFFCURVE",
"445 147 CURVE",
"467 309 LINE",
"467 437 OFFCURVE",
"397 507 OFFCURVE",
"272 507 CURVE SMOOTH",
"158 507 OFFCURVE",
"77 442 OFFCURVE",
"66 347 CURVE",
"139 334 LINE",
"150 402 OFFCURVE",
"191 436 OFFCURVE",
"268 436 CURVE SMOOTH",
"348 436 OFFCURVE",
"395 397 OFFCURVE",
"395 306 CURVE SMOOTH"
);
},
{
closed = 1;
nodes = (
"723 -8 OFFCURVE",
"787 24 OFFCURVE",
"832 89 CURVE",
"780 134 LINE",
"745 86 OFFCURVE",
"690 64 OFFCURVE",
"646 64 CURVE SMOOTH",
"541 64 OFFCURVE",
"477 123 OFFCURVE",
"477 231 CURVE SMOOTH",
"477 258 LINE SMOOTH",
"477 359 OFFCURVE",
"539 442 OFFCURVE",
"632 442 CURVE SMOOTH",
"712 442 OFFCURVE",
"771 391 OFFCURVE",
"761 272 CURVE",
"781 286 LINE",
"443 286 LINE",
"443 222 LINE",
"829 222 LINE",
"850 410 OFFCURVE",
"768 507 OFFCURVE",
"633 507 CURVE SMOOTH",
"503 507 OFFCURVE",
"408 400 OFFCURVE",
"408 242 CURVE SMOOTH",
"408 85 OFFCURVE",
"491 -8 OFFCURVE",
"643 -8 CURVE SMOOTH"
);
}
);
};
layerId = "A3B50665-EA37-4AC6-885C-1233CA61B6BD";
paths = (
{
closed = 1;
nodes = (
"340 -8 OFFCURVE",
"421 52 OFFCURVE",
"444 143 CURVE",
"422 140 LINE",
"453 44 OFFCURVE",
"530 -8 OFFCURVE",
"643 -8 CURVE SMOOTH",
"723 -8 OFFCURVE",
"787 24 OFFCURVE",
"832 89 CURVE",
"780 134 LINE",
"749 92 OFFCURVE",
"697 64 OFFCURVE",
"646 64 CURVE SMOOTH",
"539 64 OFFCURVE",
"477 125 OFFCURVE",
"477 229 CURVE SMOOTH",
"477 263 LINE SMOOTH",
"477 365 OFFCURVE",
"544 442 OFFCURVE",
"632 442 CURVE SMOOTH",
"722 442 OFFCURVE",
"770 379 OFFCURVE",
"761 270 CURVE",
"781 283 LINE",
"453 283 LINE",
"453 220 LINE",
"829 220 LINE",
"849 400 OFFCURVE",
"776 507 OFFCURVE",
"633 507 CURVE SMOOTH",
"547 507 OFFCURVE",
"474 460 OFFCURVE",
"438 377 CURVE",
"460 375 LINE",
"437 462 OFFCURVE",
"375 507 OFFCURVE",
"277 507 CURVE SMOOTH",
"169 507 OFFCURVE",
"87 444 OFFCURVE",
"72 347 CURVE",
"140 334 LINE",
"155 403 OFFCURVE",
"201 437 OFFCURVE",
"275 437 CURVE SMOOTH",
"356 437 OFFCURVE",
"395 394 OFFCURVE",
"395 306 CURVE SMOOTH",
"395 218 LINE SMOOTH",
"395 123 OFFCURVE",
"337 60 OFFCURVE",
"247 60 CURVE SMOOTH",
"181 60 OFFCURVE",
"140 90 OFFCURVE",
"140 139 CURVE SMOOTH",
"140 190 OFFCURVE",
"179 221 OFFCURVE",
"257 221 CURVE SMOOTH",
"422 221 LINE",
"422 284 LINE",
"257 284 LINE SMOOTH",
"130 284 OFFCURVE",
"58 227 OFFCURVE",
"58 136 CURVE SMOOTH",
"58 52 OFFCURVE",
"133 -8 OFFCURVE",
"239 -8 CURVE SMOOTH"
);
}
);
width = 884;
},
{
background = {
paths = (
{
closed = 1;
nodes = (
"354 215 LINE SMOOTH",
"354 136 OFFCURVE",
"323 102 OFFCURVE",
"260 102 CURVE SMOOTH",
"215 102 OFFCURVE",
"186 126 OFFCURVE",
"186 156 CURVE SMOOTH",
"186 189 OFFCURVE",
"212 212 OFFCURVE",
"254 212 CURVE SMOOTH",
"368 212 LINE",
"368 309 LINE",
"239 309 LINE SMOOTH",
"121 309 OFFCURVE",
"43 238 OFFCURVE",
"43 146 CURVE SMOOTH",
"43 59 OFFCURVE",
"120 -10 OFFCURVE",
"242 -10 CURVE SMOOTH",
"350 -10 OFFCURVE",
"418 42 OFFCURVE",
"452 144 CURVE",
"490 293 LINE",
"490 446 OFFCURVE",
"421 516 OFFCURVE",
"281 516 CURVE SMOOTH",
"156 516 OFFCURVE",
"70 452 OFFCURVE",
"50 356 CURVE",
"180 341 LINE",
"193 381 OFFCURVE",
"220 399 OFFCURVE",
"269 399 CURVE SMOOTH",
"322 399 OFFCURVE",
"354 375 OFFCURVE",
"354 335 CURVE SMOOTH"
);
},
{
closed = 1;
nodes = (
"729 -10 OFFCURVE",
"791 24 OFFCURVE",
"836 83 CURVE",
"753 163 LINE",
"724 131 OFFCURVE",
"679 114 OFFCURVE",
"645 114 CURVE SMOOTH",
"561 114 OFFCURVE",
"512 163 OFFCURVE",
"512 225 CURVE SMOOTH",
"512 272 LINE SMOOTH",
"512 354 OFFCURVE",
"555 410 OFFCURVE",
"620 410 CURVE SMOOTH",
"678 410 OFFCURVE",
"715 375 OFFCURVE",
"706 294 CURVE",
"738 309 LINE",
"474 309 LINE",
"474 212 LINE",
"830 212 LINE",
"853 396 OFFCURVE",
"777 516 OFFCURVE",
"617 516 CURVE SMOOTH",
"484 516 OFFCURVE",
"374 407 OFFCURVE",
"374 246 CURVE SMOOTH",
"374 85 OFFCURVE",
"470 -10 OFFCURVE",
"634 -10 CURVE SMOOTH"
);
}
);
};
hints = (
{
horizontal = 1;
place = "{0, 21}";
target = up;
type = BottomGhost;
},
{
horizontal = 1;
place = "{472, 148}";
type = Stem;
},
{
place = "{49, 151}";
type = Stem;
},
{
place = "{419, 161}";
type = Stem;
},
{
horizontal = 1;
place = "{-10, 148}";
type = Stem;
},
{
place = "{441, 139}";
type = Stem;
},
{
place = "{49, 170}";
type = Stem;
}
);
layerId = "014D4A40-7C7F-4023-B30E-1F55CE5EA091";
paths = (
{
closed = 1;
nodes = (
"340 -10 OFFCURVE",
"406 31 OFFCURVE",
"442 114 CURVE",
"412 109 LINE",
"455 28 OFFCURVE",
"521 -10 OFFCURVE",
"624 -10 CURVE SMOOTH",
"713 -10 OFFCURVE",
"778 20 OFFCURVE",
"826 83 CURVE",
"743 163 LINE",
"717 134 OFFCURVE",
"673 114 OFFCURVE",
"635 114 CURVE SMOOTH",
"556 114 OFFCURVE",
"502 159 OFFCURVE",
"502 223 CURVE SMOOTH",
"502 270 LINE SMOOTH",
"502 355 OFFCURVE",
"545 410 OFFCURVE",
"610 410 CURVE SMOOTH",
"674 410 OFFCURVE",
"704 369 OFFCURVE",
"696 292 CURVE",
"728 306 LINE",
"474 306 LINE",
"474 211 LINE",
"820 211 LINE",
"844 402 OFFCURVE",
"763 516 OFFCURVE",
"614 516 CURVE SMOOTH",
"543 516 OFFCURVE",
"462 475 OFFCURVE",
"424 406 CURVE",
"468 394 LINE",
"439 484 OFFCURVE",
"362 516 OFFCURVE",
"276 516 CURVE SMOOTH",
"157 516 OFFCURVE",
"75 451 OFFCURVE",
"48 359 CURVE",
"174 335 LINE",
"188 375 OFFCURVE",
"218 399 OFFCURVE",
"271 399 CURVE SMOOTH",
"323 399 OFFCURVE",
"354 371 OFFCURVE",
"354 318 CURVE SMOOTH",
"354 193 LINE SMOOTH",
"354 133 OFFCURVE",
"322 98 OFFCURVE",
"260 98 CURVE SMOOTH",
"218 98 OFFCURVE",
"186 122 OFFCURVE",
"186 156 CURVE SMOOTH",
"186 190 OFFCURVE",
"209 213 OFFCURVE",
"267 213 CURVE SMOOTH",
"398 213 LINE",
"398 306 LINE",
"255 306 LINE SMOOTH",
"115 306 OFFCURVE",
"43 244 OFFCURVE",
"43 150 CURVE SMOOTH",
"43 57 OFFCURVE",
"128 -10 OFFCURVE",
"245 -10 CURVE SMOOTH"
);
}
);
width = 870;
}
);
note = A;
rightMetricsKey = e;
unicode = 00E6;
},
{
color = 4;
glyphname = b;
lastChange = "2019-03-21 14:52:30 +0000";
layers = (
{
background = {
paths = (
{
closed = 1;
nodes = (
"147 1 LINE",
"156 83 LINE",
"151 81 LINE",
"169 29 OFFCURVE",
"226 -8 OFFCURVE",
"295 -8 CURVE SMOOTH",
"438 -8 OFFCURVE",
"536 108 OFFCURVE",
"536 274 CURVE SMOOTH",
"536 411 OFFCURVE",
"466 507 OFFCURVE",
"340 507 CURVE SMOOTH",
"244 507 OFFCURVE",
"169 441 OFFCURVE",
"141 335 CURVE",
"157 321 LINE",
"162 499 LINE",
"83 499 LINE",
"83 1 LINE"
);
},
{
closed = 1;
nodes = (
"211 64 OFFCURVE",
"160 121 OFFCURVE",
"160 216 CURVE SMOOTH",
"160 345 OFFCURVE",
"233 436 OFFCURVE",
"329 436 CURVE SMOOTH",
"407 436 OFFCURVE",
"455 374 OFFCURVE",
"455 269 CURVE SMOOTH",
"455 145 OFFCURVE",
"391 64 OFFCURVE",
"293 64 CURVE SMOOTH"
);
}
);
};
layerId = "A3B50665-EA37-4AC6-885C-1233CA61B6BD";
paths = (
{
closed = 1;
nodes = (
"147 0 LINE",
"156 82 LINE",
"151 81 LINE",
"169 29 OFFCURVE",
"226 -8 OFFCURVE",
"295 -8 CURVE SMOOTH",
"438 -8 OFFCURVE",
"536 108 OFFCURVE",
"536 274 CURVE SMOOTH",
"536 411 OFFCURVE",
"466 507 OFFCURVE",
"340 507 CURVE SMOOTH",
"244 507 OFFCURVE",
"169 441 OFFCURVE",
"141 335 CURVE",
"156 321 LINE",
"161 499 LINE",
"161 740 LINE",
"83 740 LINE",
"83 0 LINE"
);
},
{
closed = 1;
nodes = (
"211 64 OFFCURVE",
"160 121 OFFCURVE",
"160 216 CURVE SMOOTH",
"160 345 OFFCURVE",
"233 436 OFFCURVE",
"329 436 CURVE SMOOTH",
"407 436 OFFCURVE",
"455 374 OFFCURVE",
"455 269 CURVE SMOOTH",
"455 145 OFFCURVE",
"391 64 OFFCURVE",
"293 64 CURVE SMOOTH"
);
}
);
width = 596;
},
{
background = {
paths = (
{
closed = 1;
nodes = (
"174 0 LINE",
"192 84 LINE",
"178 64 LINE",
"202 21 OFFCURVE",
"257 -10 OFFCURVE",
"328 -10 CURVE SMOOTH",
"478 -10 OFFCURVE",
"593 108 OFFCURVE",
"593 283 CURVE SMOOTH",
"593 418 OFFCURVE",
"519 516 OFFCURVE",
"382 516 CURVE SMOOTH",
"280 516 OFFCURVE",
"208 457 OFFCURVE",
"178 351 CURVE",
"206 329 LINE",
"215 508 LINE",
"215 740 LINE",
"69 740 LINE",
"69 0 LINE"
);
},
{
closed = 1;
nodes = (
"253 118 OFFCURVE",
"215 160 OFFCURVE",
"215 229 CURVE SMOOTH",
"215 320 OFFCURVE",
"271 389 OFFCURVE",
"344 389 CURVE SMOOTH",
"402 389 OFFCURVE",
"438 347 OFFCURVE",
"438 273 CURVE SMOOTH",
"438 182 OFFCURVE",
"390 118 OFFCURVE",
"314 118 CURVE SMOOTH"
);
}
);
};
layerId = "014D4A40-7C7F-4023-B30E-1F55CE5EA091";
paths = (
{
closed = 1;
nodes = (
"174 0 LINE",
"192 84 LINE",
"182 64 LINE",
"207 21 OFFCURVE",
"263 -10 OFFCURVE",
"332 -10 CURVE SMOOTH",
"480 -10 OFFCURVE",
"593 104 OFFCURVE",
"593 274 CURVE SMOOTH",
"593 414 OFFCURVE",
"518 516 OFFCURVE",
"378 516 CURVE SMOOTH",
"276 516 OFFCURVE",
"205 457 OFFCURVE",
"177 351 CURVE",
"206 329 LINE",
"215 508 LINE",
"215 740 LINE",
"69 740 LINE",
"69 0 LINE"
);
},
{
closed = 1;
nodes = (
"254 118 OFFCURVE",
"215 161 OFFCURVE",
"215 231 CURVE SMOOTH",
"215 325 OFFCURVE",
"270 389 OFFCURVE",
"342 389 CURVE SMOOTH",
"400 389 OFFCURVE",
"438 346 OFFCURVE",
"438 270 CURVE SMOOTH",
"438 181 OFFCURVE",
"391 118 OFFCURVE",
"315 118 CURVE SMOOTH"
);
}
);
width = 638;
}
);
leftMetricsKey = h;
note = b;
rightKerningGroup = o;
rightMetricsKey = o;
unicode = 0062;
},
{
color = 3;
glyphname = c;
lastChange = "2019-03-20 09:58:16 +0000";
layers = (
{
background = {
paths = (
{
closed = 1;
nodes = (
"150 507 OFFCURVE",
"55 392 OFFCURVE",
"55 240 CURVE SMOOTH",
"55 87 OFFCURVE",
"140 -8 OFFCURVE",
"281 -8 CURVE SMOOTH",
"422 -8 OFFCURVE",
"518 107 OFFCURVE",
"518 259 CURVE SMOOTH",
"518 412 OFFCURVE",
"433 507 OFFCURVE",
"295 507 CURVE SMOOTH"
);
},
{
closed = 1;
nodes = (
"189 63 OFFCURVE",
"135 126 OFFCURVE",
"135 240 CURVE SMOOTH",
"135 356 OFFCURVE",
"198 436 OFFCURVE",
"296 436 CURVE SMOOTH",
"384 436 OFFCURVE",
"438 373 OFFCURVE",
"438 259 CURVE SMOOTH",
"438 142 OFFCURVE",
"375 63 OFFCURVE",
"281 63 CURVE SMOOTH"
);
},
{
closed = 1;
nodes = (
"978 -8 OFFCURVE",
"1044 18 OFFCURVE",
"1093 87 CURVE",
"1034 140 LINE",
"997 83 OFFCURVE",
"952 66 OFFCURVE",
"898 66 CURVE SMOOTH",
"798 66 OFFCURVE",
"737 123 OFFCURVE",
"737 240 CURVE SMOOTH",
"737 357 OFFCURVE",
"804 434 OFFCURVE",
"906 434 CURVE SMOOTH",
"952 434 OFFCURVE",
"997 418 OFFCURVE",
"1034 361 CURVE",
"1093 412 LINE",
"1045 486 OFFCURVE",
"978 507 OFFCURVE",
"908 507 CURVE SMOOTH",
"752 507 OFFCURVE",
"655 394 OFFCURVE",
"655 240 CURVE SMOOTH",
"655 84 OFFCURVE",
"745 -8 OFFCURVE",
"895 -8 CURVE SMOOTH"
);
}
);
};
guideLines = (
{
angle = 90;
position = "{485, 142}";
}
);
layerId = "A3B50665-EA37-4AC6-885C-1233CA61B6BD";
paths = (
{
closed = 1;
nodes = (
"379 -8 OFFCURVE",
"443 24 OFFCURVE",
"484 89 CURVE",
"427 134 LINE",
"397 86 OFFCURVE",
"351 65 OFFCURVE",
"298 65 CURVE SMOOTH",
"197 65 OFFCURVE",
"142 126 OFFCURVE",
"142 240 CURVE SMOOTH",
"142 358 OFFCURVE",
"207 435 OFFCURVE",
"305 435 CURVE SMOOTH",
"359 435 OFFCURVE",
"398 413 OFFCURVE",
"425 365 CURVE",
"484 410 LINE",
"446 475 OFFCURVE",
"388 507 OFFCURVE",
"307 507 CURVE SMOOTH",
"160 507 OFFCURVE",
"60 399 OFFCURVE",
"60 240 CURVE SMOOTH",
"60 84 OFFCURVE",
"148 -8 OFFCURVE",
"295 -8 CURVE SMOOTH"
);
}
);
width = 504;
},
{
background = {
paths = (
{
closed = 1;
nodes = (
"150 516 OFFCURVE",
"45 399 OFFCURVE",
"45 241 CURVE SMOOTH",
"45 87 OFFCURVE",
"137 -10 OFFCURVE",
"290 -10 CURVE SMOOTH",
"452 -10 OFFCURVE",
"558 107 OFFCURVE",
"558 265 CURVE SMOOTH",
"558 419 OFFCURVE",
"465 516 OFFCURVE",
"312 516 CURVE SMOOTH"
);
},
{
closed = 1;
nodes = (
"232 117 OFFCURVE",
"195 163 OFFCURVE",
"195 241 CURVE SMOOTH",
"195 331 OFFCURVE",
"239 389 OFFCURVE",
"308 389 CURVE SMOOTH",
"370 389 OFFCURVE",
"408 343 OFFCURVE",
"408 265 CURVE SMOOTH",
"408 175 OFFCURVE",
"364 117 OFFCURVE",
"297 117 CURVE SMOOTH"
);
},
{
closed = 1;
nodes = (
"-314 -10 OFFCURVE",
"-237 18 OFFCURVE",
"-186 95 CURVE",
"-286 176 LINE",
"-310 136 OFFCURVE",
"-346 120 OFFCURVE",
"-386 120 CURVE SMOOTH",
"-462 120 OFFCURVE",
"-503 164 OFFCURVE",
"-503 246 CURVE SMOOTH",
"-503 331 OFFCURVE",
"-452 387 OFFCURVE",
"-381 387 CURVE SMOOTH",
"-339 387 OFFCURVE",
"-309 368 OFFCURVE",
"-288 332 CURVE",
"-185 410 LINE",
"-229 484 OFFCURVE",
"-295 516 OFFCURVE",
"-384 516 CURVE SMOOTH",
"-545 516 OFFCURVE",
"-655 406 OFFCURVE",
"-655 244 CURVE SMOOTH",
"-655 84 OFFCURVE",
"-558 -10 OFFCURVE",
"-397 -10 CURVE SMOOTH"
);
}
);
};
layerId = "014D4A40-7C7F-4023-B30E-1F55CE5EA091";
paths = (
{
closed = 1;
nodes = (
"387 -10 OFFCURVE",
"464 18 OFFCURVE",
"510 95 CURVE",
"410 176 LINE",
"387 136 OFFCURVE",
"351 120 OFFCURVE",
"312 120 CURVE SMOOTH",
"237 120 OFFCURVE",
"197 164 OFFCURVE",
"197 246 CURVE SMOOTH",
"197 331 OFFCURVE",
"247 387 OFFCURVE",
"317 387 CURVE SMOOTH",
"358 387 OFFCURVE",
"387 368 OFFCURVE",
"408 332 CURVE",
"511 410 LINE",
"467 484 OFFCURVE",
"402 516 OFFCURVE",
"314 516 CURVE SMOOTH",
"154 516 OFFCURVE",
"45 406 OFFCURVE",
"45 244 CURVE SMOOTH",
"45 84 OFFCURVE",
"145 -10 OFFCURVE",
"301 -10 CURVE SMOOTH"
);
}
);
width = 519;
}
);
leftKerningGroup = o;
leftMetricsKey = o;
unicode = 0063;
},
{
color = 4;
glyphname = d;
lastChange = "2019-03-28 10:14:40 +0000";
layers = (
{
background = {
paths = (
{
closed = 1;
nodes = (
"449 498 LINE",
"440 416 LINE",
"445 418 LINE",
"427 470 OFFCURVE",
"370 507 OFFCURVE",
"301 507 CURVE SMOOTH",
"158 507 OFFCURVE",
"60 391 OFFCURVE",
"60 225 CURVE SMOOTH",
"60 88 OFFCURVE",
"130 -8 OFFCURVE",
"256 -8 CURVE SMOOTH",
"352 -8 OFFCURVE",
"426 60 OFFCURVE",
"455 164 CURVE",
"439 178 LINE",
"434 0 LINE",
"513 0 LINE",
"513 498 LINE"
);
},
{
closed = 1;
nodes = (
"385 436 OFFCURVE",
"436 379 OFFCURVE",
"436 284 CURVE SMOOTH",
"436 155 OFFCURVE",
"364 64 OFFCURVE",
"267 64 CURVE SMOOTH",
"189 64 OFFCURVE",
"141 126 OFFCURVE",
"141 231 CURVE SMOOTH",
"141 355 OFFCURVE",
"205 436 OFFCURVE",
"303 436 CURVE SMOOTH"
);
}
);
};
layerId = "A3B50665-EA37-4AC6-885C-1233CA61B6BD";
paths = (
{
closed = 1;
nodes = (
"435 740 LINE",
"435 498 LINE",
"437 407 LINE",
"445 418 LINE",
"427 470 OFFCURVE",
"370 507 OFFCURVE",
"301 507 CURVE SMOOTH",
"158 507 OFFCURVE",
"60 391 OFFCURVE",
"60 225 CURVE SMOOTH",
"60 88 OFFCURVE",
"130 -8 OFFCURVE",
"256 -8 CURVE SMOOTH",
"352 -8 OFFCURVE",
"426 60 OFFCURVE",
"455 164 CURVE",
"439 178 LINE",
"434 0 LINE",
"513 0 LINE",
"513 740 LINE"
);
},
{
closed = 1;
nodes = (
"385 436 OFFCURVE",
"436 379 OFFCURVE",
"436 284 CURVE SMOOTH",
"436 155 OFFCURVE",
"363 64 OFFCURVE",
"267 64 CURVE SMOOTH",
"189 64 OFFCURVE",
"141 126 OFFCURVE",
"141 231 CURVE SMOOTH",
"141 355 OFFCURVE",
"205 436 OFFCURVE",
"303 436 CURVE SMOOTH"
);
}
);
width = 596;
},
{
background = {
paths = (
{
closed = 1;
nodes = (
"1223 740 LINE",
"1223 508 LINE",
"1227 418 LINE",
"1260 436 LINE",
"1236 483 OFFCURVE",
"1181 516 OFFCURVE",
"1110 516 CURVE SMOOTH",
"958 516 OFFCURVE",
"845 398 OFFCURVE",
"845 223 CURVE SMOOTH",
"845 88 OFFCURVE",
"916 -10 OFFCURVE",
"1056 -10 CURVE SMOOTH",
"1158 -10 OFFCURVE",
"1230 49 OFFCURVE",
"1260 155 CURVE",
"1232 179 LINE",
"1222 0 LINE",
"1369 0 LINE",
"1369 740 LINE"
);
},
{
closed = 1;
nodes = (
"1185 389 OFFCURVE",
"1223 347 OFFCURVE",
"1223 278 CURVE SMOOTH",
"1223 187 OFFCURVE",
"1167 118 OFFCURVE",
"1094 118 CURVE SMOOTH",
"1036 118 OFFCURVE",
"1000 160 OFFCURVE",
"1000 234 CURVE SMOOTH",
"1000 325 OFFCURVE",
"1048 389 OFFCURVE",
"1125 389 CURVE SMOOTH"
);
},
{
closed = 1;
nodes = (
"464 506 LINE",
"446 422 LINE",
"456 442 LINE",
"431 485 OFFCURVE",
"375 516 OFFCURVE",
"306 516 CURVE SMOOTH",
"158 516 OFFCURVE",
"45 402 OFFCURVE",
"45 232 CURVE SMOOTH",
"45 92 OFFCURVE",
"120 -10 OFFCURVE",
"260 -10 CURVE SMOOTH",
"362 -10 OFFCURVE",
"433 49 OFFCURVE",
"461 155 CURVE",
"432 179 LINE",
"422 0 LINE",
"569 0 LINE",
"569 506 LINE"
);
},
{
closed = 1;
nodes = (
"384 389 OFFCURVE",
"423 346 OFFCURVE",
"423 276 CURVE SMOOTH",
"423 182 OFFCURVE",
"368 118 OFFCURVE",
"296 118 CURVE SMOOTH",
"238 118 OFFCURVE",
"200 161 OFFCURVE",
"200 237 CURVE SMOOTH",
"200 326 OFFCURVE",
"247 389 OFFCURVE",
"323 389 CURVE SMOOTH"
);
}
);
};
layerId = "014D4A40-7C7F-4023-B30E-1F55CE5EA091";
paths = (
{
closed = 1;
nodes = (
"423 740 LINE",
"423 508 LINE",
"427 418 LINE",
"456 442 LINE",
"431 485 OFFCURVE",
"375 516 OFFCURVE",
"306 516 CURVE SMOOTH",
"158 516 OFFCURVE",
"45 402 OFFCURVE",
"45 232 CURVE SMOOTH",
"45 92 OFFCURVE",
"120 -10 OFFCURVE",
"260 -10 CURVE SMOOTH",
"362 -10 OFFCURVE",
"433 49 OFFCURVE",
"461 155 CURVE",
"432 179 LINE",
"422 0 LINE",
"569 0 LINE",
"569 740 LINE"
);
},
{
closed = 1;
nodes = (
"384 389 OFFCURVE",
"423 346 OFFCURVE",
"423 276 CURVE SMOOTH",
"423 182 OFFCURVE",
"368 118 OFFCURVE",
"296 118 CURVE SMOOTH",
"238 118 OFFCURVE",
"200 161 OFFCURVE",
"200 237 CURVE SMOOTH",
"200 326 OFFCURVE",
"247 389 OFFCURVE",
"323 389 CURVE SMOOTH"
);
}
);
width = 638;
}
);
leftKerningGroup = o;
leftMetricsKey = o;
note = d;
rightMetricsKey = "=|h";
unicode = 0064;
},
{
color = 3;
glyphname = eth;
lastChange = "2019-03-18 22:13:39 +0000";
layers = (
{
background = {
paths = (
{
closed = 1;
nodes = (
"1023 -8 OFFCURVE",
"1114 107 OFFCURVE",
"1114 293 CURVE SMOOTH",
"1114 523 OFFCURVE",
"1005 675 OFFCURVE",
"785 752 CURVE",
"759 691 LINE",
"936 629 OFFCURVE",
"1029 508 OFFCURVE",
"1037 334 CURVE",
"1062 324 LINE",
"1048 414 OFFCURVE",
"974 470 OFFCURVE",
"882 470 CURVE SMOOTH",
"751 470 OFFCURVE",
"656 367 OFFCURVE",
"656 224 CURVE SMOOTH",
"656 79 OFFCURVE",
"739 -8 OFFCURVE",
"876 -8 CURVE SMOOTH"
);
},
{
closed = 1;
nodes = (
"787 62 OFFCURVE",
"736 121 OFFCURVE",
"736 224 CURVE SMOOTH",
"736 332 OFFCURVE",
"798 403 OFFCURVE",
"892 403 CURVE SMOOTH",
"979 403 OFFCURVE",
"1031 342 OFFCURVE",
"1031 241 CURVE SMOOTH",
"1031 133 OFFCURVE",
"970 62 OFFCURVE",
"878 62 CURVE SMOOTH"
);
},
{
closed = 1;
nodes = (
"1098 646 LINE",
"1077 702 LINE",
"757 574 LINE",
"778 518 LINE"
);
},
{
closed = 1;
nodes = (
"434 461 LINE",
"425 379 LINE",
"434 381 LINE",
"417 433 OFFCURVE",
"360 470 OFFCURVE",
"291 470 CURVE SMOOTH",
"146 470 OFFCURVE",
"45 351 OFFCURVE",
"45 180 CURVE SMOOTH",
"45 48 OFFCURVE",
"114 -45 OFFCURVE",
"238 -45 CURVE SMOOTH",
"334 -45 OFFCURVE",
"408 21 OFFCURVE",
"440 127 CURVE",
"424 141 LINE",
"419 -37 LINE",
"498 -37 LINE",
"498 461 LINE"
);
},
{
closed = 1;
nodes = (
"372 399 OFFCURVE",
"421 343 OFFCURVE",
"421 250 CURVE SMOOTH",
"421 123 OFFCURVE",
"346 27 OFFCURVE",
"249 27 CURVE SMOOTH",
"173 27 OFFCURVE",
"126 86 OFFCURVE",
"126 186 CURVE SMOOTH",
"126 314 OFFCURVE",
"191 399 OFFCURVE",
"291 399 CURVE SMOOTH"
);
}
);
};
layerId = "A3B50665-EA37-4AC6-885C-1233CA61B6BD";
paths = (
{
closed = 1;
nodes = (
"423 -8 OFFCURVE",
"514 117 OFFCURVE",
"514 293 CURVE SMOOTH",
"514 523 OFFCURVE",
"408 675 OFFCURVE",
"188 752 CURVE",
"162 691 LINE",
"339 629 OFFCURVE",
"428 508 OFFCURVE",
"436 334 CURVE",
"458 324 LINE",
"444 416 OFFCURVE",
"374 470 OFFCURVE",
"283 470 CURVE SMOOTH",
"157 470 OFFCURVE",
"56 364 OFFCURVE",
"56 218 CURVE SMOOTH",
"56 79 OFFCURVE",
"141 -8 OFFCURVE",
"275 -8 CURVE SMOOTH"
);
},
{
closed = 1;
nodes = (
"184 63 OFFCURVE",
"136 124 OFFCURVE",
"136 218 CURVE SMOOTH",
"136 329 OFFCURVE",
"205 401 OFFCURVE",
"293 401 CURVE SMOOTH",
"379 401 OFFCURVE",
"431 342 OFFCURVE",
"431 241 CURVE SMOOTH",
"431 138 OFFCURVE",
"365 63 OFFCURVE",
"280 63 CURVE SMOOTH"
);
},
{
closed = 1;
nodes = (
"496 653 LINE",
"477 702 LINE",
"143 574 LINE",
"162 525 LINE"
);
}
);
width = 567;
},
{
background = {
paths = (
{
closed = 1;
nodes = (
"1075 -10 OFFCURVE",
"1179 125 OFFCURVE",
"1179 307 CURVE SMOOTH",
"1179 522 OFFCURVE",
"1039 688 OFFCURVE",
"798 756 CURVE",
"751 648 LINE",
"915 603 OFFCURVE",
"1018 494 OFFCURVE",
"1032 356 CURVE",
"1071 341 LINE",
"1044 426 OFFCURVE",
"982 470 OFFCURVE",
"886 470 CURVE SMOOTH",
"744 470 OFFCURVE",
"639 367 OFFCURVE",
"639 223 CURVE SMOOTH",
"639 82 OFFCURVE",
"734 -10 OFFCURVE",
"894 -10 CURVE SMOOTH"
);
},
{
closed = 1;
nodes = (
"829 112 OFFCURVE",
"790 157 OFFCURVE",
"790 221 CURVE SMOOTH",
"790 300 OFFCURVE",
"840 353 OFFCURVE",
"913 353 CURVE SMOOTH",
"980 353 OFFCURVE",
"1020 311 OFFCURVE",
"1020 242 CURVE SMOOTH",
"1020 174 OFFCURVE",
"972 112 OFFCURVE",
"900 112 CURVE SMOOTH"
);
},
{
closed = 1;
nodes = (
"1165 600 LINE",
"1145 680 LINE",
"745 571 LINE",
"765 491 LINE"
);
},
{
closed = 1;
nodes = (
"448 467 LINE",
"430 383 LINE",
"444 403 LINE",
"420 446 OFFCURVE",
"365 477 OFFCURVE",
"294 477 CURVE SMOOTH",
"144 477 OFFCURVE",
"29 359 OFFCURVE",
"29 184 CURVE SMOOTH",
"29 49 OFFCURVE",
"103 -49 OFFCURVE",
"240 -49 CURVE SMOOTH",
"342 -49 OFFCURVE",
"414 10 OFFCURVE",
"444 116 CURVE",
"416 140 LINE",
"406 -39 LINE",
"553 -39 LINE",
"553 467 LINE"
);
},
{
closed = 1;
nodes = (
"369 350 OFFCURVE",
"407 308 OFFCURVE",
"407 239 CURVE SMOOTH",
"407 148 OFFCURVE",
"351 79 OFFCURVE",
"278 79 CURVE SMOOTH",
"220 79 OFFCURVE",
"184 121 OFFCURVE",
"184 195 CURVE SMOOTH",
"184 286 OFFCURVE",
"232 350 OFFCURVE",
"309 350 CURVE SMOOTH"
);
}
);
};
layerId = "014D4A40-7C7F-4023-B30E-1F55CE5EA091";
paths = (
{
closed = 1;
nodes = (
"475 -10 OFFCURVE",
"579 125 OFFCURVE",
"579 307 CURVE SMOOTH",
"579 522 OFFCURVE",
"439 688 OFFCURVE",
"198 756 CURVE",
"151 648 LINE",
"315 603 OFFCURVE",
"418 494 OFFCURVE",
"432 356 CURVE",
"472 331 LINE",
"443 426 OFFCURVE",
"380 470 OFFCURVE",
"286 470 CURVE SMOOTH",
"144 470 OFFCURVE",
"39 367 OFFCURVE",
"39 223 CURVE SMOOTH",
"39 82 OFFCURVE",
"134 -10 OFFCURVE",
"294 -10 CURVE SMOOTH"
);
},
{
closed = 1;
nodes = (
"232 115 OFFCURVE",
"190 158 OFFCURVE",
"190 224 CURVE SMOOTH",
"190 301 OFFCURVE",
"239 350 OFFCURVE",
"311 350 CURVE SMOOTH",
"379 350 OFFCURVE",
"420 308 OFFCURVE",
"420 242 CURVE SMOOTH",
"420 174 OFFCURVE",
"372 115 OFFCURVE",
"300 115 CURVE SMOOTH"
);
},
{
closed = 1;
nodes = (
"565 600 LINE",
"545 680 LINE",
"145 571 LINE",
"165 491 LINE"
);
}
);
width = 615;
}
);
unicode = 00F0;
},
{
color = 9;
glyphname = e;
lastChange = "2019-03-29 15:26:48 +0000";
layers = (
{
background = {
paths = (
{
closed = 1;
nodes = (
"423 -11 OFFCURVE",
"487 13 OFFCURVE",
"534 55 CURVE",
"497 122 LINE",
"456 86 OFFCURVE",
"401 67 OFFCURVE",
"340 67 CURVE SMOOTH",
"222 67 OFFCURVE",
"143 137 OFFCURVE",
"143 246 CURVE SMOOTH",
"143 273 LINE SMOOTH",
"143 382 OFFCURVE",
"214 457 OFFCURVE",
"318 457 CURVE SMOOTH",
"419 457 OFFCURVE",
"473 398 OFFCURVE",
"476 285 CURVE",
"495 298 LINE",
"107 298 LINE",
"108 230 LINE",
"554 230 LINE",
"557 427 OFFCURVE",
"478 529 OFFCURVE",
"320 529 CURVE SMOOTH",
"166 529 OFFCURVE",
"60 416 OFFCURVE",
"60 253 CURVE SMOOTH",
"60 92 OFFCURVE",
"169 -11 OFFCURVE",
"338 -11 CURVE SMOOTH"
);
}
);
};
layerId = "A3B50665-EA37-4AC6-885C-1233CA61B6BD";
paths = (
{
closed = 1;
nodes = (
"419 -11 OFFCURVE",
"485 11 OFFCURVE",
"534 55 CURVE",
"497 122 LINE",
"456 86 OFFCURVE",
"401 67 OFFCURVE",
"340 67 CURVE SMOOTH",
"221 67 OFFCURVE",
"143 138 OFFCURVE",
"143 246 CURVE SMOOTH",
"143 273 LINE SMOOTH",
"143 382 OFFCURVE",
"214 457 OFFCURVE",
"318 457 CURVE SMOOTH",
"419 457 OFFCURVE",
"473 398 OFFCURVE",
"476 285 CURVE",
"495 298 LINE",
"107 298 LINE",
"108 230 LINE",
"554 230 LINE",
"557 428 OFFCURVE",
"478 529 OFFCURVE",
"320 529 CURVE SMOOTH",
"166 529 OFFCURVE",
"60 416 OFFCURVE",
"60 255 CURVE SMOOTH",
"60 92 OFFCURVE",
"169 -11 OFFCURVE",
"338 -11 CURVE SMOOTH"
);
}
);
width = 614;
},
{
background = {
paths = (
{
closed = 1;
nodes = (
"461 -9 OFFCURVE",
"525 10 OFFCURVE",
"571 42 CURVE",
"513 159 LINE",
"478 137 OFFCURVE",
"436 124 OFFCURVE",
"394 122 CURVE SMOOTH",
"277 115 OFFCURVE",
"206 168 OFFCURVE",
"206 242 CURVE SMOOTH",
"206 306 LINE SMOOTH",
"206 372 OFFCURVE",
"261 428 OFFCURVE",
"340 428 CURVE SMOOTH",
"417 428 OFFCURVE",
"457 386 OFFCURVE",
"462 311 CURVE",
"496 329 LINE",
"149 329 LINE",
"153 217 LINE",
"598 217 LINE",
"604 440 OFFCURVE",
"515 546 OFFCURVE",
"341 546 CURVE SMOOTH",
"172 546 OFFCURVE",
"55 429 OFFCURVE",
"55 261 CURVE SMOOTH",
"55 95 OFFCURVE",
"176 -12 OFFCURVE",
"379 -10 CURVE SMOOTH"
);
}
);
};
layerId = "014D4A40-7C7F-4023-B30E-1F55CE5EA091";
paths = (
{
closed = 1;
nodes = (
"457 -9 OFFCURVE",
"523 9 OFFCURVE",
"571 42 CURVE",
"513 159 LINE",
"478 137 OFFCURVE",
"436 124 OFFCURVE",
"394 122 CURVE SMOOTH",
"283 115 OFFCURVE",
"206 164 OFFCURVE",
"206 242 CURVE SMOOTH",
"206 306 LINE SMOOTH",
"206 375 OFFCURVE",
"264 428 OFFCURVE",
"340 428 CURVE SMOOTH",
"415 428 OFFCURVE",
"457 388 OFFCURVE",
"462 311 CURVE",
"496 329 LINE",
"149 329 LINE",
"153 217 LINE",
"598 217 LINE",
"604 436 OFFCURVE",
"518 546 OFFCURVE",
"341 546 CURVE SMOOTH",
"175 546 OFFCURVE",
"55 429 OFFCURVE",
"55 263 CURVE SMOOTH",
"55 92 OFFCURVE",
"179 -12 OFFCURVE",
"379 -10 CURVE SMOOTH"
);
}
);
width = 654;
}
);
leftKerningGroup = o;
leftMetricsKey = o;
note = e;
unicode = 0065;
},
{
color = 3;
glyphname = f;
lastChange = "2019-03-14 10:23:03 +0000";
layers = (
{
background = {
paths = (
{
closed = 1;
nodes = (
"180 0 LINE",
"180 454 LINE",
"179 489 LINE",
"179 555 LINE SMOOTH",
"179 638 OFFCURVE",
"220 683 OFFCURVE",
"288 683 CURVE SMOOTH",
"341 683 OFFCURVE",
"375 655 OFFCURVE",
"379 610 CURVE",
"444 618 LINE",
"437 702 OFFCURVE",
"382 750 OFFCURVE",
"289 750 CURVE SMOOTH",
"177 750 OFFCURVE",
"102 672 OFFCURVE",
"102 547 CURVE SMOOTH",
"102 0 LINE"
);
},
{
closed = 1;
nodes = (
"3 432 LINE",
"347 432 LINE",
"347 498 LINE",
"3 498 LINE"
);
}
);
};
layerId = "A3B50665-EA37-4AC6-885C-1233CA61B6BD";
paths = (
{
closed = 1;
nodes = (
"185 0 LINE",
"185 454 LINE",
"184 489 LINE",
"184 540 LINE SMOOTH",
"184 636 OFFCURVE",
"225 683 OFFCURVE",
"293 683 CURVE SMOOTH",
"346 683 OFFCURVE",
"380 655 OFFCURVE",
"384 610 CURVE",
"449 618 LINE",
"442 702 OFFCURVE",
"387 750 OFFCURVE",
"294 750 CURVE SMOOTH",
"182 750 OFFCURVE",
"107 670 OFFCURVE",
"107 532 CURVE SMOOTH",
"107 0 LINE"
);
},
{
closed = 1;
nodes = (
"8 432 LINE",
"352 432 LINE",
"352 498 LINE",
"8 498 LINE"
);
}
);
width = 360;
},
{
background = {
paths = (
{
closed = 1;
nodes = (
"239 0 LINE",
"239 419 LINE",
"237 487 LINE",
"237 540 LINE SMOOTH",
"237 596 OFFCURVE",
"267 627 OFFCURVE",
"311 627 CURVE SMOOTH",
"347 627 OFFCURVE",
"370 611 OFFCURVE",
"374 582 CURVE",
"500 597 LINE",
"485 701 OFFCURVE",
"423 750 OFFCURVE",
"317 750 CURVE SMOOTH",
"187 750 OFFCURVE",
"93 662 OFFCURVE",
"93 535 CURVE SMOOTH",
"93 0 LINE"
);
},
{
closed = 1;
nodes = (
"-2 387 LINE",
"377 387 LINE",
"377 510 LINE",
"-2 510 LINE"
);
}
);
};
layerId = "014D4A40-7C7F-4023-B30E-1F55CE5EA091";
paths = (
{
closed = 1;
nodes = (
"239 0 LINE",
"239 419 LINE",
"237 487 LINE",
"237 539 LINE SMOOTH",
"237 596 OFFCURVE",
"267 627 OFFCURVE",
"315 627 CURVE SMOOTH",
"347 627 OFFCURVE",
"370 611 OFFCURVE",
"374 582 CURVE",
"500 597 LINE",
"485 701 OFFCURVE",
"423 750 OFFCURVE",
"317 750 CURVE SMOOTH",
"187 750 OFFCURVE",
"93 662 OFFCURVE",
"93 525 CURVE SMOOTH",
"93 0 LINE"
);
},
{
closed = 1;
nodes = (
"-2 389 LINE",
"377 389 LINE",
"377 510 LINE",
"-2 510 LINE"
);
}
);
width = 393;
}
);
unicode = 0066;
},
{
color = 4;
glyphname = g;
lastChange = "2019-03-21 14:52:30 +0000";
layers = (
{
background = {
paths = (
{
closed = 1;
nodes = (
"429 -210 OFFCURVE",
"517 -116 OFFCURVE",
"517 70 CURVE SMOOTH",
"517 498 LINE",
"453 498 LINE",
"444 416 LINE",
"453 418 LINE",
"436 470 OFFCURVE",
"379 507 OFFCURVE",
"308 507 CURVE SMOOTH",
"162 507 OFFCURVE",
"60 390 OFFCURVE",
"60 223 CURVE SMOOTH",
"60 93 OFFCURVE",
"130 2 OFFCURVE",
"256 2 CURVE SMOOTH",
"353 2 OFFCURVE",
"427 68 OFFCURVE",
"459 174 CURVE",
"443 188 LINE",
"440 58 LINE SMOOTH",
"437 -80 OFFCURVE",
"389 -139 OFFCURVE",
"262 -139 CURVE SMOOTH",
"213 -139 OFFCURVE",
"160 -127 OFFCURVE",
"116 -105 CURVE",
"95 -175 LINE",
"138 -199 OFFCURVE",
"203 -210 OFFCURVE",
"260 -210 CURVE SMOOTH"
);
},
{
closed = 1;
nodes = (
"390 436 OFFCURVE",
"440 382 OFFCURVE",
"440 291 CURVE SMOOTH",
"440 167 OFFCURVE",
"364 74 OFFCURVE",
"266 74 CURVE SMOOTH",
"189 74 OFFCURVE",
"141 131 OFFCURVE",
"141 229 CURVE SMOOTH",
"141 353 OFFCURVE",
"207 436 OFFCURVE",
"308 436 CURVE SMOOTH"
);
}
);
};
layerId = "A3B50665-EA37-4AC6-885C-1233CA61B6BD";
paths = (
{
closed = 1;
nodes = (
"429 -210 OFFCURVE",
"517 -116 OFFCURVE",
"517 70 CURVE SMOOTH",
"517 498 LINE",
"453 498 LINE",
"444 416 LINE",
"449 418 LINE",
"431 470 OFFCURVE",
"374 507 OFFCURVE",
"303 507 CURVE SMOOTH",
"159 507 OFFCURVE",
"60 393 OFFCURVE",
"60 230 CURVE SMOOTH",
"60 96 OFFCURVE",
"131 2 OFFCURVE",
"259 2 CURVE SMOOTH",
"356 2 OFFCURVE",
"429 68 OFFCURVE",
"459 174 CURVE",
"443 188 LINE",
"440 58 LINE SMOOTH",
"437 -80 OFFCURVE",
"389 -139 OFFCURVE",
"262 -139 CURVE SMOOTH",
"213 -139 OFFCURVE",
"160 -127 OFFCURVE",
"116 -105 CURVE",
"95 -175 LINE",
"138 -199 OFFCURVE",
"203 -210 OFFCURVE",
"260 -210 CURVE SMOOTH"
);
},
{
closed = 1;
nodes = (
"388 436 OFFCURVE",
"440 381 OFFCURVE",
"440 289 CURVE SMOOTH",
"440 166 OFFCURVE",
"366 74 OFFCURVE",
"269 74 CURVE SMOOTH",
"190 74 OFFCURVE",
"141 134 OFFCURVE",
"141 237 CURVE SMOOTH",
"141 357 OFFCURVE",
"206 436 OFFCURVE",
"305 436 CURVE SMOOTH"
);
}
);
width = 600;
},
{
background = {
paths = (
{
closed = 1;
nodes = (
"450 -210 OFFCURVE",
"573 -114 OFFCURVE",
"573 96 CURVE SMOOTH",
"573 506 LINE",
"468 506 LINE",
"450 422 LINE",
"464 442 LINE",
"440 485 OFFCURVE",
"384 516 OFFCURVE",
"313 516 CURVE SMOOTH",
"159 516 OFFCURVE",
"45 402 OFFCURVE",
"45 234 CURVE SMOOTH",
"45 103 OFFCURVE",
"117 9 OFFCURVE",
"258 9 CURVE SMOOTH",
"362 9 OFFCURVE",
"434 68 OFFCURVE",
"464 174 CURVE",
"436 198 LINE",
"429 79 LINE SMOOTH",
"422 -32 OFFCURVE",
"380 -82 OFFCURVE",
"267 -82 CURVE SMOOTH",
"203 -82 OFFCURVE",
"153 -67 OFFCURVE",
"108 -44 CURVE",
"73 -169 LINE",
"118 -198 OFFCURVE",
"198 -210 OFFCURVE",
"259 -210 CURVE SMOOTH"
);
},
{
closed = 1;
nodes = (
"388 389 OFFCURVE",
"427 350 OFFCURVE",
"427 286 CURVE SMOOTH",
"427 201 OFFCURVE",
"370 137 OFFCURVE",
"296 137 CURVE SMOOTH",
"237 137 OFFCURVE",
"200 176 OFFCURVE",
"200 245 CURVE SMOOTH",
"200 329 OFFCURVE",
"249 389 OFFCURVE",
"326 389 CURVE SMOOTH"
);
}
);
};
layerId = "014D4A40-7C7F-4023-B30E-1F55CE5EA091";
paths = (
{
closed = 1;
nodes = (
"450 -210 OFFCURVE",
"573 -114 OFFCURVE",
"573 96 CURVE SMOOTH",
"573 506 LINE",
"468 506 LINE",
"450 422 LINE",
"461 442 LINE",
"436 485 OFFCURVE",
"380 516 OFFCURVE",
"309 516 CURVE SMOOTH",
"156 516 OFFCURVE",
"45 404 OFFCURVE",
"45 238 CURVE SMOOTH",
"45 105 OFFCURVE",
"119 9 OFFCURVE",
"262 9 CURVE SMOOTH",
"366 9 OFFCURVE",
"437 68 OFFCURVE",
"466 174 CURVE",
"436 198 LINE",
"429 79 LINE SMOOTH",
"422 -32 OFFCURVE",
"380 -82 OFFCURVE",
"267 -82 CURVE SMOOTH",
"203 -82 OFFCURVE",
"153 -67 OFFCURVE",
"108 -44 CURVE",
"73 -169 LINE",
"118 -198 OFFCURVE",
"198 -210 OFFCURVE",
"259 -210 CURVE SMOOTH"
);
},
{
closed = 1;
nodes = (
"387 389 OFFCURVE",
"427 349 OFFCURVE",
"427 284 CURVE SMOOTH",
"427 200 OFFCURVE",
"371 137 OFFCURVE",
"298 137 CURVE SMOOTH",
"238 137 OFFCURVE",
"200 177 OFFCURVE",
"200 248 CURVE SMOOTH",
"200 330 OFFCURVE",
"248 389 OFFCURVE",
"324 389 CURVE SMOOTH"
);
}
);
width = 642;
}
);
leftKerningGroup = o;
leftMetricsKey = o;
note = g;
rightMetricsKey = "=|n";
unicode = 0067;
},
{
color = 4;
glyphname = h;
lastChange = "2019-03-20 10:03:28 +0000";
layers = (
{
background = {
paths = (
{
closed = 1;
nodes = (
"160 0 LINE",
"161 328 OFFCURVE",
"235 434 OFFCURVE",
"337 434 CURVE SMOOTH",
"407 434 OFFCURVE",
"438 385 OFFCURVE",
"437 290 CURVE SMOOTH",
"435 0 LINE",
"513 0 LINE",
"515 299 LINE SMOOTH",
"516 433 OFFCURVE",
"459 507 OFFCURVE",
"356 507 CURVE SMOOTH",
"248 507 OFFCURVE",
"170 426 OFFCURVE",
"143 282 CURVE",
"154 290 LINE",
"162 498 LINE",
"83 498 LINE",
"83 0 LINE"
);
}
);
};
layerId = "A3B50665-EA37-4AC6-885C-1233CA61B6BD";
paths = (
{
closed = 1;
nodes = (
"160 0 LINE",
"161 328 OFFCURVE",
"235 434 OFFCURVE",
"337 434 CURVE SMOOTH",
"407 434 OFFCURVE",
"438 385 OFFCURVE",
"437 290 CURVE SMOOTH",
"435 0 LINE",
"513 0 LINE",
"515 299 LINE SMOOTH",
"516 433 OFFCURVE",
"459 507 OFFCURVE",
"356 507 CURVE SMOOTH",
"248 507 OFFCURVE",
"170 426 OFFCURVE",
"143 282 CURVE",
"154 290 LINE",
"162 498 LINE",
"161 740 LINE",
"83 740 LINE",
"83 0 LINE"
);
}
);
width = 594;
},
{
background = {
paths = (
{
closed = 1;
nodes = (
"214 0 LINE",
"218 297 OFFCURVE",
"276 381 OFFCURVE",
"359 381 CURVE SMOOTH",
"408 381 OFFCURVE",
"430 341 OFFCURVE",
"429 270 CURVE SMOOTH",
"427 0 LINE",
"573 0 LINE",
"575 281 LINE SMOOTH",
"576 432 OFFCURVE",
"516 516 OFFCURVE",
"397 516 CURVE SMOOTH",
"284 516 OFFCURVE",
"197 431 OFFCURVE",
"172 289 CURVE",
"203 309 LINE",
"214 508 LINE",
"69 508 LINE",
"69 0 LINE"
);
}
);
};
layerId = "014D4A40-7C7F-4023-B30E-1F55CE5EA091";
paths = (
{
closed = 1;
nodes = (
"214 0 LINE",
"218 297 OFFCURVE",
"276 381 OFFCURVE",
"359 381 CURVE SMOOTH",
"408 381 OFFCURVE",
"430 341 OFFCURVE",
"429 270 CURVE SMOOTH",
"427 0 LINE",
"573 0 LINE",
"575 281 LINE SMOOTH",
"576 432 OFFCURVE",
"516 516 OFFCURVE",
"397 516 CURVE SMOOTH",
"284 516 OFFCURVE",
"197 431 OFFCURVE",
"172 289 CURVE",
"203 309 LINE",
"216 508 LINE",
"215 740 LINE",
"69 740 LINE",
"69 0 LINE"
);
}
);
width = 638;
}
);
leftMetricsKey = n;
note = h;
rightMetricsKey = n;
unicode = 0068;
},
{
color = 3;
glyphname = i;
lastChange = "2019-03-14 10:23:03 +0000";
layers = (
{
background = {
paths = (
{
closed = 1;
nodes = (
"78 498 LINE",
"78 0 LINE",
"155 0 LINE",
"155 498 LINE"
);
},
{
closed = 1;
nodes = (
"152 604 OFFCURVE",
"173 629 OFFCURVE",
"173 660 CURVE SMOOTH",
"173 690 OFFCURVE",
"152 715 OFFCURVE",
"117 715 CURVE SMOOTH",
"82 715 OFFCURVE",
"60 690 OFFCURVE",
"60 660 CURVE SMOOTH",
"60 629 OFFCURVE",
"82 604 OFFCURVE",
"117 604 CURVE SMOOTH"
);
}
);
};
layerId = "A3B50665-EA37-4AC6-885C-1233CA61B6BD";
paths = (
{
closed = 1;
nodes = (
"83 498 LINE",
"83 0 LINE",
"160 0 LINE",
"160 498 LINE"
);
},
{
closed = 1;
nodes = (
"157 604 OFFCURVE",
"178 629 OFFCURVE",
"178 660 CURVE SMOOTH",
"178 690 OFFCURVE",
"157 715 OFFCURVE",
"122 715 CURVE SMOOTH",
"87 715 OFFCURVE",
"65 690 OFFCURVE",
"65 660 CURVE SMOOTH",
"65 629 OFFCURVE",
"87 604 OFFCURVE",
"122 604 CURVE SMOOTH"
);
}
);
width = 243;
},
{
background = {
paths = (
{
closed = 1;
nodes = (
"69 508 LINE",
"69 0 LINE",
"215 0 LINE",
"215 508 LINE"
);
},
{
closed = 1;
nodes = (
"201 558 OFFCURVE",
"238 599 OFFCURVE",
"238 650 CURVE SMOOTH",
"238 701 OFFCURVE",
"201 742 OFFCURVE",
"142 742 CURVE SMOOTH",
"83 742 OFFCURVE",
"46 701 OFFCURVE",
"46 650 CURVE SMOOTH",
"46 599 OFFCURVE",
"83 558 OFFCURVE",
"142 558 CURVE SMOOTH"
);
}
);
};
layerId = "014D4A40-7C7F-4023-B30E-1F55CE5EA091";
paths = (
{
closed = 1;
nodes = (
"69 508 LINE",
"69 0 LINE",
"215 0 LINE",
"215 508 LINE"
);
},
{
closed = 1;
nodes = (
"201 568 OFFCURVE",
"238 609 OFFCURVE",
"238 660 CURVE SMOOTH",
"238 711 OFFCURVE",
"201 752 OFFCURVE",
"142 752 CURVE SMOOTH",
"83 752 OFFCURVE",
"46 711 OFFCURVE",
"46 660 CURVE SMOOTH",
"46 609 OFFCURVE",
"83 568 OFFCURVE",
"142 568 CURVE SMOOTH"
);
}
);
width = 284;
}
);
note = i;
unicode = 0069;
},
{
color = 3;
glyphname = j;
lastChange = "2019-03-14 10:23:03 +0000";
layers = (
{
background = {
paths = (
{
closed = 1;
nodes = (
"99 -200 OFFCURVE",
"173 -124 OFFCURVE",
"173 6 CURVE SMOOTH",
"173 498 LINE",
"96 498 LINE",
"96 10 LINE SMOOTH",
"96 -77 OFFCURVE",
"63 -130 OFFCURVE",
"-19 -130 CURVE SMOOTH",
"-46 -130 OFFCURVE",
"-73 -125 OFFCURVE",
"-98 -114 CURVE",
"-116 -180 LINE",
"-91 -194 OFFCURVE",
"-53 -200 OFFCURVE",
"-17 -200 CURVE SMOOTH"
);
},
{
closed = 1;
nodes = (
"168 604 OFFCURVE",
"191 627 OFFCURVE",
"191 660 CURVE SMOOTH",
"191 692 OFFCURVE",
"168 715 OFFCURVE",
"135 715 CURVE SMOOTH",
"102 715 OFFCURVE",
"78 692 OFFCURVE",
"78 660 CURVE SMOOTH",
"78 627 OFFCURVE",
"102 604 OFFCURVE",
"135 604 CURVE SMOOTH"
);
}
);
};
layerId = "A3B50665-EA37-4AC6-885C-1233CA61B6BD";
paths = (
{
closed = 1;
nodes = (
"104 -210 OFFCURVE",
"178 -134 OFFCURVE",
"178 -4 CURVE SMOOTH",
"178 498 LINE",
"101 498 LINE",
"101 0 LINE SMOOTH",
"101 -87 OFFCURVE",
"68 -140 OFFCURVE",
"-14 -140 CURVE SMOOTH",
"-41 -140 OFFCURVE",
"-68 -135 OFFCURVE",
"-93 -124 CURVE",
"-111 -190 LINE",
"-86 -204 OFFCURVE",
"-48 -210 OFFCURVE",
"-12 -210 CURVE SMOOTH"
);
},
{
closed = 1;
nodes = (
"173 604 OFFCURVE",
"196 627 OFFCURVE",
"196 660 CURVE SMOOTH",
"196 692 OFFCURVE",
"173 715 OFFCURVE",
"140 715 CURVE SMOOTH",
"107 715 OFFCURVE",
"83 692 OFFCURVE",
"83 660 CURVE SMOOTH",
"83 627 OFFCURVE",
"107 604 OFFCURVE",
"140 604 CURVE SMOOTH"
);
}
);
width = 261;
},
{
background = {
paths = (
{
closed = 1;
nodes = (
"129 -200 OFFCURVE",
"222 -119 OFFCURVE",
"222 27 CURVE SMOOTH",
"222 508 LINE",
"76 508 LINE",
"76 26 LINE SMOOTH",
"76 -44 OFFCURVE",
"48 -76 OFFCURVE",
"-15 -76 CURVE SMOOTH",
"-47 -76 OFFCURVE",
"-81 -69 OFFCURVE",
"-102 -63 CURVE",
"-123 -183 LINE",
"-94 -194 OFFCURVE",
"-53 -200 OFFCURVE",
"-10 -200 CURVE SMOOTH"
);
},
{
closed = 1;
nodes = (
"205 558 OFFCURVE",
"245 596 OFFCURVE",
"245 650 CURVE SMOOTH",
"245 704 OFFCURVE",
"205 742 OFFCURVE",
"149 742 CURVE SMOOTH",
"93 742 OFFCURVE",
"53 704 OFFCURVE",
"53 650 CURVE SMOOTH",
"53 596 OFFCURVE",
"93 558 OFFCURVE",
"149 558 CURVE SMOOTH"
);
}
);
};
layerId = "014D4A40-7C7F-4023-B30E-1F55CE5EA091";
paths = (
{
closed = 1;
nodes = (
"129 -200 OFFCURVE",
"222 -119 OFFCURVE",
"222 27 CURVE SMOOTH",
"222 508 LINE",
"76 508 LINE",
"76 26 LINE SMOOTH",
"76 -44 OFFCURVE",
"48 -76 OFFCURVE",
"-15 -76 CURVE SMOOTH",
"-47 -76 OFFCURVE",
"-81 -69 OFFCURVE",
"-102 -63 CURVE",
"-123 -183 LINE",
"-94 -194 OFFCURVE",
"-53 -200 OFFCURVE",
"-10 -200 CURVE SMOOTH"
);
},
{
closed = 1;
nodes = (
"205 568 OFFCURVE",
"245 606 OFFCURVE",
"245 660 CURVE SMOOTH",
"245 714 OFFCURVE",
"205 752 OFFCURVE",
"149 752 CURVE SMOOTH",
"93 752 OFFCURVE",
"53 714 OFFCURVE",
"53 660 CURVE SMOOTH",
"53 606 OFFCURVE",
"93 568 OFFCURVE",
"149 568 CURVE SMOOTH"
);
}
);
width = 291;
}
);
unicode = 006A;
},
{
color = 3;
glyphname = k;
lastChange = "2019-03-27 21:15:23 +0000";
layers = (
{
background = {
paths = (
{
closed = 1;
nodes = (
"482 74 LINE",
"468 66 OFFCURVE",
"451 61 OFFCURVE",
"434 61 CURVE SMOOTH",
"392 61 OFFCURVE",
"363 83 OFFCURVE",
"332 127 CURVE SMOOTH",
"274 209 LINE SMOOTH",
"240 257 OFFCURVE",
"212 275 OFFCURVE",
"189 275 CURVE",
"209 238 LINE",
"472 497 LINE",
"374 497 LINE",
"148 273 LINE",
"116 239 LINE",
"156 239 OFFCURVE",
"185 209 OFFCURVE",
"211 173 CURVE SMOOTH",
"283 70 LINE SMOOTH",
"320 17 OFFCURVE",
"365 -6 OFFCURVE",
"421 -6 CURVE SMOOTH",
"451 -6 OFFCURVE",
"477 0 OFFCURVE",
"501 14 CURVE"
);
},
{
closed = 1;
nodes = (
"161 0 LINE",
"161 740 LINE",
"83 740 LINE",
"83 0 LINE"
);
}
);
};
guideLines = (
{
angle = 128.8201;
position = "{354, 161}";
}
);
layerId = "A3B50665-EA37-4AC6-885C-1233CA61B6BD";
paths = (
{
closed = 1;
nodes = (
"482 74 LINE",
"468 66 OFFCURVE",
"451 61 OFFCURVE",
"434 61 CURVE SMOOTH",
"397 61 OFFCURVE",
"371 73 OFFCURVE",
"334 127 CURVE SMOOTH",
"286 196 LINE SMOOTH",
"243 258 OFFCURVE",
"212 275 OFFCURVE",
"179 275 CURVE",
"209 238 LINE",
"472 497 LINE",
"374 497 LINE",
"148 273 LINE",
"120 239 LINE",
"151 239 OFFCURVE",
"175 225 OFFCURVE",
"211 173 CURVE SMOOTH",
"283 70 LINE SMOOTH",
"320 17 OFFCURVE",
"365 -6 OFFCURVE",
"421 -6 CURVE SMOOTH",
"451 -6 OFFCURVE",
"477 0 OFFCURVE",
"501 15 CURVE"
);
},
{
closed = 1;
nodes = (
"161 0 LINE",
"161 740 LINE",
"83 740 LINE",
"83 0 LINE"
);
}
);
width = 499;
},
{
background = {
paths = (
{
closed = 1;
nodes = (
"573 126 LINE",
"556 117 OFFCURVE",
"538 112 OFFCURVE",
"517 112 CURVE SMOOTH",
"480 112 OFFCURVE",
"452 128 OFFCURVE",
"427 167 CURVE SMOOTH",
"394 218 LINE SMOOTH",
"368 258 OFFCURVE",
"321 288 OFFCURVE",
"285 288 CURVE",
"330 239 LINE",
"583 508 LINE",
"407 508 LINE",
"196 284 LINE",
"173 226 LINE",
"207 226 OFFCURVE",
"232 210 OFFCURVE",
"267 155 CURVE SMOOTH",
"309 90 LINE SMOOTH",
"354 19 OFFCURVE",
"405 -8 OFFCURVE",
"489 -10 CURVE SMOOTH",
"531 -11 OFFCURVE",
"569 -3 OFFCURVE",
"605 19 CURVE"
);
},
{
closed = 1;
nodes = (
"215 0 LINE",
"215 740 LINE",
"69 740 LINE",
"69 0 LINE"
);
}
);
};
guideLines = (
{
angle = 126.1496;
position = "{423, 166}";
}
);
layerId = "014D4A40-7C7F-4023-B30E-1F55CE5EA091";
paths = (
{
closed = 1;
nodes = (
"573 126 LINE",
"556 117 OFFCURVE",
"538 112 OFFCURVE",
"517 112 CURVE SMOOTH",
"480 112 OFFCURVE",
"451 128 OFFCURVE",
"430 160 CURVE SMOOTH",
"392 218 LINE SMOOTH",
"361 266 OFFCURVE",
"320 288 OFFCURVE",
"260 288 CURVE",
"330 239 LINE",
"583 508 LINE",
"407 508 LINE",
"196 284 LINE",
"153 226 LINE",
"207 226 OFFCURVE",
"232 210 OFFCURVE",
"267 155 CURVE SMOOTH",
"309 90 LINE SMOOTH",
"354 19 OFFCURVE",
"405 -8 OFFCURVE",
"489 -10 CURVE SMOOTH",
"531 -11 OFFCURVE",
"569 -3 OFFCURVE",
"605 19 CURVE"
);
},
{
closed = 1;
nodes = (
"215 0 LINE",
"215 740 LINE",
"69 740 LINE",
"69 0 LINE"
);
}
);
width = 596;
}
);
leftMetricsKey = h;
note = k;
unicode = 006B;
},
{
color = 3;
glyphname = kgreenlandic;
lastChange = "2019-03-27 21:19:17 +0000";
layers = (
{
layerId = "A3B50665-EA37-4AC6-885C-1233CA61B6BD";
paths = (
{
closed = 1;
nodes = (
"161 0 LINE",
"161 498 LINE",
"83 498 LINE",
"83 0 LINE"
);
},
{
closed = 1;
nodes = (
"482 74 LINE",
"468 66 OFFCURVE",
"451 61 OFFCURVE",
"434 61 CURVE SMOOTH",
"397 61 OFFCURVE",
"371 73 OFFCURVE",
"334 127 CURVE SMOOTH",
"286 196 LINE SMOOTH",
"243 258 OFFCURVE",
"212 275 OFFCURVE",
"179 275 CURVE",
"209 238 LINE",
"472 497 LINE",
"374 497 LINE",
"148 273 LINE",
"120 239 LINE",
"151 239 OFFCURVE",
"175 225 OFFCURVE",
"211 173 CURVE SMOOTH",
"283 70 LINE SMOOTH",
"320 17 OFFCURVE",
"365 -6 OFFCURVE",
"421 -6 CURVE SMOOTH",
"451 -6 OFFCURVE",
"477 0 OFFCURVE",
"501 15 CURVE"
);
}
);
width = 499;
},
{
layerId = "014D4A40-7C7F-4023-B30E-1F55CE5EA091";
paths = (
{
closed = 1;
nodes = (
"215 0 LINE",
"215 508 LINE",
"69 508 LINE",
"69 0 LINE"
);
},
{
closed = 1;
nodes = (
"573 126 LINE",
"556 117 OFFCURVE",
"538 112 OFFCURVE",
"517 112 CURVE SMOOTH",
"480 112 OFFCURVE",
"451 128 OFFCURVE",
"430 160 CURVE SMOOTH",
"392 218 LINE SMOOTH",
"361 266 OFFCURVE",
"320 288 OFFCURVE",
"260 288 CURVE",
"330 239 LINE",
"583 508 LINE",
"407 508 LINE",
"196 284 LINE",
"153 226 LINE",
"207 226 OFFCURVE",
"232 210 OFFCURVE",
"267 155 CURVE SMOOTH",
"309 90 LINE SMOOTH",
"354 19 OFFCURVE",
"405 -8 OFFCURVE",
"489 -10 CURVE SMOOTH",
"531 -11 OFFCURVE",
"569 -3 OFFCURVE",
"605 19 CURVE"
);
}
);
width = 596;
}
);
leftMetricsKey = n;
widthMetricsKey = k;
unicode = 0138;
},
{
color = 3;
glyphname = l;
lastChange = "2019-03-14 10:23:03 +0000";
layers = (
{
background = {
paths = (
{
closed = 1;
nodes = (
"239 -8 OFFCURVE",
"271 2 OFFCURVE",
"291 22 CURVE",
"259 79 LINE",
"248 72 OFFCURVE",
"233 62 OFFCURVE",
"212 62 CURVE SMOOTH",
"177 62 OFFCURVE",
"156 87 OFFCURVE",
"156 133 CURVE SMOOTH",
"156 710 LINE",
"78 710 LINE",
"78 130 LINE SMOOTH",
"78 42 OFFCURVE",
"124 -8 OFFCURVE",
"203 -8 CURVE SMOOTH"
);
}
);
};
layerId = "A3B50665-EA37-4AC6-885C-1233CA61B6BD";
paths = (
{
closed = 1;
nodes = (
"239 -8 OFFCURVE",
"273 2 OFFCURVE",
"291 22 CURVE",
"270 76 LINE",
"259 69 OFFCURVE",
"238 60 OFFCURVE",
"217 60 CURVE SMOOTH",
"182 60 OFFCURVE",
"161 85 OFFCURVE",
"161 124 CURVE SMOOTH",
"161 740 LINE",
"83 740 LINE",
"83 114 LINE SMOOTH",
"83 42 OFFCURVE",
"124 -8 OFFCURVE",
"208 -8 CURVE SMOOTH"
);
}
);
width = 285;
},
{
background = {
paths = (
{
closed = 1;
nodes = (
"868 -10 OFFCURVE",
"911 2 OFFCURVE",
"932 18 CURVE",
"898 129 LINE",
"888 122 OFFCURVE",
"874 117 OFFCURVE",
"858 117 CURVE SMOOTH",
"828 117 OFFCURVE",
"815 137 OFFCURVE",
"815 162 CURVE SMOOTH",
"815 710 LINE",
"669 709 LINE",
"669 139 LINE SMOOTH",
"669 51 OFFCURVE",
"725 -10 OFFCURVE",
"824 -10 CURVE SMOOTH"
);
},
{
closed = 1;
nodes = (
"277 -8 OFFCURVE",
"311 2 OFFCURVE",
"329 22 CURVE",
"308 76 LINE",
"297 69 OFFCURVE",
"276 59 OFFCURVE",
"255 59 CURVE SMOOTH",
"220 59 OFFCURVE",
"199 85 OFFCURVE",
"199 134 CURVE SMOOTH",
"199 710 LINE",
"121 710 LINE",
"121 124 LINE SMOOTH",
"121 42 OFFCURVE",
"162 -8 OFFCURVE",
"246 -8 CURVE SMOOTH"
);
}
);
};
layerId = "014D4A40-7C7F-4023-B30E-1F55CE5EA091";
paths = (
{
closed = 1;
nodes = (
"271 -10 OFFCURVE",
"313 4 OFFCURVE",
"335 27 CURVE",
"300 127 LINE",
"289 119 OFFCURVE",
"275 115 OFFCURVE",
"260 115 CURVE SMOOTH",
"231 115 OFFCURVE",
"215 132 OFFCURVE",
"215 162 CURVE SMOOTH",
"215 740 LINE",
"69 740 LINE",
"69 152 LINE SMOOTH",
"69 47 OFFCURVE",
"125 -10 OFFCURVE",
"226 -10 CURVE SMOOTH"
);
}
);
width = 325;
}
);
leftMetricsKey = h;
note = l;
unicode = 006C;
},
{
color = 4;
glyphname = m;
lastChange = "2019-03-20 10:05:33 +0000";
layers = (
{
background = {
paths = (
{
closed = 1;
nodes = (
"160 0 LINE",
"161 328 OFFCURVE",
"235 434 OFFCURVE",
"337 434 CURVE SMOOTH",
"407 434 OFFCURVE",
"438 385 OFFCURVE",
"437 290 CURVE SMOOTH",
"435 0 LINE",
"513 0 LINE",
"515 299 LINE SMOOTH",
"516 433 OFFCURVE",
"459 507 OFFCURVE",
"356 507 CURVE SMOOTH",
"248 507 OFFCURVE",
"170 426 OFFCURVE",
"143 282 CURVE",
"154 290 LINE",
"162 498 LINE",
"83 498 LINE",
"83 0 LINE"
);
}
);
};
layerId = "A3B50665-EA37-4AC6-885C-1233CA61B6BD";
paths = (
{
closed = 1;
nodes = (
"160 0 LINE",
"161 338 OFFCURVE",
"243 434 OFFCURVE",
"332 434 CURVE SMOOTH",
"400 434 OFFCURVE",
"429 385 OFFCURVE",
"429 290 CURVE SMOOTH",
"429 0 LINE",
"506 0 LINE",
"507 338 OFFCURVE",
"588 434 OFFCURVE",
"677 434 CURVE SMOOTH",
"745 434 OFFCURVE",
"777 385 OFFCURVE",
"776 290 CURVE SMOOTH",
"774 0 LINE",
"852 0 LINE",
"854 299 LINE SMOOTH",
"855 433 OFFCURVE",
"799 507 OFFCURVE",
"696 507 CURVE SMOOTH",
"601 507 OFFCURVE",
"513 435 OFFCURVE",
"486 294 CURVE",
"506 318 LINE",
"501 443 OFFCURVE",
"443 507 OFFCURVE",
"348 507 CURVE SMOOTH",
"254 507 OFFCURVE",
"173 435 OFFCURVE",
"143 282 CURVE",
"154 290 LINE",
"162 498 LINE",
"83 498 LINE",
"83 0 LINE"
);
}
);
width = 933;
},
{
background = {
paths = (
{
closed = 1;
nodes = (
"1315 0 LINE",
"1318 299 OFFCURVE",
"1377 381 OFFCURVE",
"1451 381 CURVE SMOOTH",
"1500 381 OFFCURVE",
"1521 341 OFFCURVE",
"1521 280 CURVE SMOOTH",
"1521 0 LINE",
"1666 0 LINE",
"1669 299 OFFCURVE",
"1728 381 OFFCURVE",
"1802 381 CURVE SMOOTH",
"1851 381 OFFCURVE",
"1874 341 OFFCURVE",
"1874 280 CURVE SMOOTH",
"1872 0 LINE",
"2018 0 LINE",
"2020 281 LINE SMOOTH",
"2021 431 OFFCURVE",
"1962 516 OFFCURVE",
"1844 516 CURVE SMOOTH",
"1749 516 OFFCURVE",
"1645 452 OFFCURVE",
"1622 313 CURVE",
"1665 327 LINE",
"1654 460 OFFCURVE",
"1584 516 OFFCURVE",
"1495 516 CURVE SMOOTH",
"1396 516 OFFCURVE",
"1302 446 OFFCURVE",
"1277 304 CURVE",
"1306 329 LINE",
"1315 508 LINE",
"1169 508 LINE",
"1169 0 LINE"
);
},
{
closed = 1;
nodes = (
"214 0 LINE",
"218 297 OFFCURVE",
"276 381 OFFCURVE",
"359 381 CURVE SMOOTH",
"408 381 OFFCURVE",
"430 341 OFFCURVE",
"429 270 CURVE SMOOTH",
"427 0 LINE",
"573 0 LINE",
"575 281 LINE SMOOTH",
"576 432 OFFCURVE",
"516 516 OFFCURVE",
"397 516 CURVE SMOOTH",
"284 516 OFFCURVE",
"197 431 OFFCURVE",
"172 289 CURVE",
"203 309 LINE",
"214 508 LINE",
"69 508 LINE",
"69 0 LINE"
);
}
);
};
layerId = "014D4A40-7C7F-4023-B30E-1F55CE5EA091";
paths = (
{
closed = 1;
nodes = (
"214 0 LINE",
"218 299 OFFCURVE",
"277 381 OFFCURVE",
"351 381 CURVE SMOOTH",
"400 381 OFFCURVE",
"421 341 OFFCURVE",
"421 280 CURVE SMOOTH",
"421 0 LINE",
"566 0 LINE",
"569 299 OFFCURVE",
"628 381 OFFCURVE",
"702 381 CURVE SMOOTH",
"751 381 OFFCURVE",
"774 341 OFFCURVE",
"774 280 CURVE SMOOTH",
"772 0 LINE",
"918 0 LINE",
"920 281 LINE SMOOTH",
"921 431 OFFCURVE",
"862 516 OFFCURVE",
"744 516 CURVE SMOOTH",
"649 516 OFFCURVE",
"545 452 OFFCURVE",
"522 313 CURVE",
"565 327 LINE",
"554 460 OFFCURVE",
"484 516 OFFCURVE",
"395 516 CURVE SMOOTH",
"296 516 OFFCURVE",
"202 446 OFFCURVE",
"172 289 CURVE",
"203 309 LINE",
"214 508 LINE",
"69 508 LINE",
"69 0 LINE"
);
}
);
width = 983;
}
);
leftMetricsKey = n;
note = m;
rightMetricsKey = n;
unicode = 006D;
},
{
color = 1;
glyphname = n;
lastChange = "2019-03-29 12:52:15 +0000";
layers = (
{
background = {
paths = (
{
closed = 1;
nodes = (
"170 0 LINE",
"170 60 LINE SMOOTH",
"170 372 OFFCURVE",
"269 449 OFFCURVE",
"373 449 CURVE SMOOTH",
"449 449 OFFCURVE",
"491 398 OFFCURVE",
"491 304 CURVE SMOOTH",
"491 0 LINE",
"568 0 LINE",
"568 317 LINE SMOOTH",
"568 452 OFFCURVE",
"501 529 OFFCURVE",
"383 529 CURVE SMOOTH",
"273 529 OFFCURVE",
"193 449 OFFCURVE",
"166 334 CURVE",
"170 334 LINE",
"170 520 LINE",
"93 520 LINE",
"93 0 LINE"
);
}
);
};
layerId = "A3B50665-EA37-4AC6-885C-1233CA61B6BD";
paths = (
{
closed = 1;
nodes = (
"173 0 LINE",
"173 100 LINE SMOOTH",
"173 329 OFFCURVE",
"235 449 OFFCURVE",
"370 449 CURVE SMOOTH",
"449 449 OFFCURVE",
"491 398 OFFCURVE",
"491 304 CURVE SMOOTH",
"491 0 LINE",
"571 0 LINE",
"571 317 LINE SMOOTH",
"571 452 OFFCURVE",
"501 529 OFFCURVE",
"385 529 CURVE SMOOTH",
"278 529 OFFCURVE",
"195 459 OFFCURVE",
"166 354 CURVE",
"173 354 LINE",
"173 520 LINE",
"93 520 LINE",
"93 0 LINE"
);
}
);
width = 660;
},
{
background = {
paths = (
{
closed = 0;
nodes = (
"232 0 LINE",
"232 88 LINE SMOOTH",
"232 289 OFFCURVE",
"282 395 OFFCURVE",
"391 395 CURVE SMOOTH",
"454 395 OFFCURVE",
"488 350 OFFCURVE",
"488 267 CURVE SMOOTH",
"488 0 LINE"
);
}
);
};
layerId = "014D4A40-7C7F-4023-B30E-1F55CE5EA091";
paths = (
{
closed = 1;
nodes = (
"232 0 LINE",
"232 90 LINE SMOOTH",
"232 289 OFFCURVE",
"282 395 OFFCURVE",
"391 395 CURVE SMOOTH",
"454 395 OFFCURVE",
"488 350 OFFCURVE",
"488 267 CURVE SMOOTH",
"488 0 LINE",
"641 0 LINE",
"641 287 LINE SMOOTH",
"641 451 OFFCURVE",
"565 543 OFFCURVE",
"427 543 CURVE SMOOTH",
"336 543 OFFCURVE",
"258 490 OFFCURVE",
"225 421 CURVE",
"232 421 LINE",
"232 535 LINE",
"79 535 LINE",
"79 0 LINE"
);
}
);
width = 713;
}
);
note = n;
unicode = 006E;
},
{
color = 3;
glyphname = eng;
lastChange = "2019-03-27 21:27:33 +0000";
layers = (
{
layerId = "A3B50665-EA37-4AC6-885C-1233CA61B6BD";
paths = (
{
closed = 1;
nodes = (
"515 299 LINE SMOOTH",
"516 433 OFFCURVE",
"459 507 OFFCURVE",
"356 507 CURVE SMOOTH",
"248 507 OFFCURVE",
"170 426 OFFCURVE",
"143 282 CURVE",
"154 290 LINE",
"162 498 LINE",
"83 498 LINE",
"83 0 LINE",
"160 0 LINE",
"161 328 OFFCURVE",
"235 434 OFFCURVE",
"337 434 CURVE SMOOTH",
"407 434 OFFCURVE",
"438 385 OFFCURVE",
"437 290 CURVE SMOOTH",
"435 -10 LINE SMOOTH",
"434 -89 OFFCURVE",
"407 -142 OFFCURVE",
"327 -142 CURVE SMOOTH",
"300 -142 OFFCURVE",
"270 -137 OFFCURVE",
"245 -127 CURVE",
"227 -191 LINE",
"252 -204 OFFCURVE",
"293 -210 OFFCURVE",
"329 -210 CURVE SMOOTH",
"443 -210 OFFCURVE",
"513 -134 OFFCURVE",
"514 -14 CURVE SMOOTH"
);
}
);
width = 594;
},
{
background = {
paths = (
{
closed = 1;
nodes = (
"575 281 LINE SMOOTH",
"576 432 OFFCURVE",
"516 516 OFFCURVE",
"397 516 CURVE SMOOTH",
"284 516 OFFCURVE",
"197 431 OFFCURVE",
"172 289 CURVE",
"203 309 LINE",
"214 508 LINE",
"69 508 LINE",
"69 0 LINE",
"214 0 LINE",
"218 297 OFFCURVE",
"276 381 OFFCURVE",
"359 381 CURVE SMOOTH",
"408 381 OFFCURVE",
"430 341 OFFCURVE",
"429 270 CURVE SMOOTH",
"427 26 LINE SMOOTH",
"427 -44 OFFCURVE",
"399 -76 OFFCURVE",
"336 -76 CURVE SMOOTH",
"304 -76 OFFCURVE",
"270 -69 OFFCURVE",
"249 -63 CURVE",
"228 -183 LINE",
"257 -194 OFFCURVE",
"298 -200 OFFCURVE",
"341 -200 CURVE SMOOTH",
"480 -200 OFFCURVE",
"573 -119 OFFCURVE",
"573 27 CURVE SMOOTH"
);
}
);
};
layerId = "014D4A40-7C7F-4023-B30E-1F55CE5EA091";
paths = (
{
closed = 1;
nodes = (
"575 281 LINE SMOOTH",
"576 432 OFFCURVE",
"516 516 OFFCURVE",
"397 516 CURVE SMOOTH",
"284 516 OFFCURVE",
"197 431 OFFCURVE",
"172 289 CURVE",
"203 309 LINE",
"214 508 LINE",
"69 508 LINE",
"69 0 LINE",
"214 0 LINE",
"218 297 OFFCURVE",
"276 381 OFFCURVE",
"359 381 CURVE SMOOTH",
"408 381 OFFCURVE",
"430 341 OFFCURVE",
"429 270 CURVE SMOOTH",
"427 26 LINE SMOOTH",
"426 -44 OFFCURVE",
"400 -80 OFFCURVE",
"344 -80 CURVE SMOOTH",
"320 -80 OFFCURVE",
"296 -77 OFFCURVE",
"277 -70 CURVE",
"252 -184 LINE",
"279 -195 OFFCURVE",
"317 -200 OFFCURVE",
"352 -200 CURVE SMOOTH",
"484 -200 OFFCURVE",
"572 -116 OFFCURVE",
"573 27 CURVE SMOOTH"
);
}
);
width = 638;
}
);
leftMetricsKey = n;
widthMetricsKey = n;
unicode = 014B;
},
{
color = 1;
glyphname = o;
lastChange = "2019-03-29 12:16:15 +0000";
layers = (
{
background = {
paths = (
{
closed = 1;
nodes = (
"154 529 OFFCURVE",
"55 407 OFFCURVE",
"60 246 CURVE SMOOTH",
"66 86 OFFCURVE",
"158 -11 OFFCURVE",
"307 -11 CURVE SMOOTH",
"462 -11 OFFCURVE",
"565 111 OFFCURVE",
"560 273 CURVE SMOOTH",
"554 432 OFFCURVE",
"462 529 OFFCURVE",
"316 529 CURVE SMOOTH"
);
},
{
closed = 1;
nodes = (
"203 66 OFFCURVE",
"142 134 OFFCURVE",
"142 257 CURVE SMOOTH",
"142 372 OFFCURVE",
"210 452 OFFCURVE",
"317 452 CURVE SMOOTH",
"416 452 OFFCURVE",
"478 384 OFFCURVE",
"478 262 CURVE SMOOTH",
"478 145 OFFCURVE",
"410 66 OFFCURVE",
"306 66 CURVE SMOOTH"
);
}
);
};
layerId = "A3B50665-EA37-4AC6-885C-1233CA61B6BD";
paths = (
{
closed = 1;
nodes = (
"166 529 OFFCURVE",
"60 419 OFFCURVE",
"60 251 CURVE SMOOTH",
"60 92 OFFCURVE",
"152 -11 OFFCURVE",
"305 -11 CURVE SMOOTH",
"456 -11 OFFCURVE",
"560 101 OFFCURVE",
"560 267 CURVE SMOOTH",
"560 425 OFFCURVE",
"465 529 OFFCURVE",
"318 529 CURVE SMOOTH"
);
},
{
closed = 1;
nodes = (
"202 66 OFFCURVE",
"142 136 OFFCURVE",
"142 257 CURVE SMOOTH",
"142 374 OFFCURVE",
"212 452 OFFCURVE",
"317 452 CURVE SMOOTH",
"418 452 OFFCURVE",
"478 381 OFFCURVE",
"478 262 CURVE SMOOTH",
"478 144 OFFCURVE",
"409 66 OFFCURVE",
"306 66 CURVE SMOOTH"
);
}
);
width = 620;
},
{
background = {
paths = (
{
closed = 1;
nodes = (
"158 543 OFFCURVE",
"47 421 OFFCURVE",
"56 252 CURVE SMOOTH",
"64 88 OFFCURVE",
"172 -13 OFFCURVE",
"343 -13 CURVE SMOOTH",
"524 -13 OFFCURVE",
"636 109 OFFCURVE",
"627 278 CURVE SMOOTH",
"619 442 OFFCURVE",
"510 543 OFFCURVE",
"338 543 CURVE SMOOTH"
);
},
{
closed = 1;
nodes = (
"264 125 OFFCURVE",
"216 171 OFFCURVE",
"211 253 CURVE SMOOTH",
"207 347 OFFCURVE",
"257 405 OFFCURVE",
"341 405 CURVE SMOOTH",
"418 405 OFFCURVE",
"467 359 OFFCURVE",
"471 277 CURVE SMOOTH",
"476 183 OFFCURVE",
"426 125 OFFCURVE",
"344 125 CURVE SMOOTH"
);
}
);
};
layerId = "014D4A40-7C7F-4023-B30E-1F55CE5EA091";
paths = (
{
closed = 1;
nodes = (
"168 543 OFFCURVE",
"55 427 OFFCURVE",
"55 266 CURVE SMOOTH",
"55 93 OFFCURVE",
"163 -13 OFFCURVE",
"336 -13 CURVE SMOOTH",
"514 -13 OFFCURVE",
"628 103 OFFCURVE",
"628 264 CURVE SMOOTH",
"628 437 OFFCURVE",
"519 543 OFFCURVE",
"345 543 CURVE SMOOTH"
);
},
{
closed = 1;
nodes = (
"259 125 OFFCURVE",
"211 173 OFFCURVE",
"211 259 CURVE SMOOTH",
"211 349 OFFCURVE",
"262 405 OFFCURVE",
"345 405 CURVE SMOOTH",
"424 405 OFFCURVE",
"471 356 OFFCURVE",
"471 268 CURVE SMOOTH",
"471 180 OFFCURVE",
"420 125 OFFCURVE",
"339 125 CURVE SMOOTH"
);
}
);
width = 683;
}
);
leftKerningGroup = o;
note = o;
rightKerningGroup = o;
rightMetricsKey = "=|";
unicode = 006F;
},
{
color = 9;
glyphname = oe;
lastChange = "2019-03-27 21:39:37 +0000";
layers = (
{
background = {
paths = (
{
closed = 1;
nodes = (
"155 507 OFFCURVE",
"60 392 OFFCURVE",
"60 240 CURVE SMOOTH",
"60 87 OFFCURVE",
"145 -8 OFFCURVE",
"286 -8 CURVE SMOOTH",
"427 -8 OFFCURVE",
"523 107 OFFCURVE",
"523 259 CURVE SMOOTH",
"523 412 OFFCURVE",
"438 507 OFFCURVE",
"300 507 CURVE SMOOTH"
);
},
{
closed = 1;
nodes = (
"194 63 OFFCURVE",
"140 126 OFFCURVE",
"140 240 CURVE SMOOTH",
"140 356 OFFCURVE",
"203 436 OFFCURVE",
"301 436 CURVE SMOOTH",
"389 436 OFFCURVE",
"443 373 OFFCURVE",
"443 259 CURVE SMOOTH",
"443 142 OFFCURVE",
"380 63 OFFCURVE",
"286 63 CURVE SMOOTH"
);
},
{
closed = 1;
nodes = (
"775 -8 OFFCURVE",
"839 24 OFFCURVE",
"884 89 CURVE",
"832 134 LINE",
"797 86 OFFCURVE",
"742 64 OFFCURVE",
"695 64 CURVE SMOOTH",
"587 64 OFFCURVE",
"523 123 OFFCURVE",
"523 231 CURVE SMOOTH",
"523 258 LINE SMOOTH",
"523 359 OFFCURVE",
"585 442 OFFCURVE",
"681 442 CURVE SMOOTH",
"764 442 OFFCURVE",
"823 391 OFFCURVE",
"813 272 CURVE",
"833 286 LINE",
"489 286 LINE",
"489 222 LINE",
"881 222 LINE",
"902 410 OFFCURVE",
"820 507 OFFCURVE",
"682 507 CURVE SMOOTH",
"544 507 OFFCURVE",
"444 400 OFFCURVE",
"444 242 CURVE SMOOTH",
"444 85 OFFCURVE",
"537 -8 OFFCURVE",
"692 -8 CURVE SMOOTH"
);
}
);
};
layerId = "A3B50665-EA37-4AC6-885C-1233CA61B6BD";
paths = (
{
closed = 1;
nodes = (
"155 507 OFFCURVE",
"60 392 OFFCURVE",
"60 240 CURVE SMOOTH",
"60 87 OFFCURVE",
"145 -8 OFFCURVE",
"286 -8 CURVE SMOOTH",
"423 -8 OFFCURVE",
"513 107 OFFCURVE",
"513 259 CURVE SMOOTH",
"513 412 OFFCURVE",
"434 507 OFFCURVE",
"297 507 CURVE SMOOTH"
);
},
{
closed = 1;
nodes = (
"194 63 OFFCURVE",
"140 126 OFFCURVE",
"140 240 CURVE SMOOTH",
"140 356 OFFCURVE",
"203 436 OFFCURVE",
"301 436 CURVE SMOOTH",
"389 436 OFFCURVE",
"443 373 OFFCURVE",
"443 259 CURVE SMOOTH",
"443 142 OFFCURVE",
"380 63 OFFCURVE",
"286 63 CURVE SMOOTH"
);
},
{
closed = 1;
nodes = (
"775 -8 OFFCURVE",
"839 24 OFFCURVE",
"884 89 CURVE",
"832 134 LINE",
"797 86 OFFCURVE",
"742 64 OFFCURVE",
"695 64 CURVE SMOOTH",
"587 64 OFFCURVE",
"523 123 OFFCURVE",
"523 231 CURVE SMOOTH",
"523 258 LINE SMOOTH",
"523 359 OFFCURVE",
"585 442 OFFCURVE",
"681 442 CURVE SMOOTH",
"764 442 OFFCURVE",
"823 391 OFFCURVE",
"813 272 CURVE",
"833 285 LINE",
"489 285 LINE",
"489 222 LINE",
"881 222 LINE",
"902 410 OFFCURVE",
"820 507 OFFCURVE",
"682 507 CURVE SMOOTH",
"548 507 OFFCURVE",
"455 400 OFFCURVE",
"455 242 CURVE SMOOTH",
"455 85 OFFCURVE",
"541 -8 OFFCURVE",
"692 -8 CURVE SMOOTH"
);
}
);
width = 936;
},
{
background = {
paths = (
{
closed = 1;
nodes = (
"152 516 OFFCURVE",
"45 399 OFFCURVE",
"45 241 CURVE SMOOTH",
"45 87 OFFCURVE",
"139 -10 OFFCURVE",
"295 -10 CURVE SMOOTH",
"460 -10 OFFCURVE",
"568 107 OFFCURVE",
"568 265 CURVE SMOOTH",
"568 419 OFFCURVE",
"473 516 OFFCURVE",
"317 516 CURVE SMOOTH"
);
},
{
closed = 1;
nodes = (
"234 117 OFFCURVE",
"195 163 OFFCURVE",
"195 241 CURVE SMOOTH",
"195 331 OFFCURVE",
"241 389 OFFCURVE",
"313 389 CURVE SMOOTH",
"378 389 OFFCURVE",
"418 343 OFFCURVE",
"418 265 CURVE SMOOTH",
"418 175 OFFCURVE",
"372 117 OFFCURVE",
"302 117 CURVE SMOOTH"
);
},
{
closed = 1;
nodes = (
"791 -10 OFFCURVE",
"853 24 OFFCURVE",
"898 83 CURVE",
"815 163 LINE",
"786 131 OFFCURVE",
"741 114 OFFCURVE",
"704 114 CURVE SMOOTH",
"616 114 OFFCURVE",
"567 163 OFFCURVE",
"567 225 CURVE SMOOTH",
"567 266 LINE SMOOTH",
"567 354 OFFCURVE",
"610 410 OFFCURVE",
"679 410 CURVE SMOOTH",
"740 410 OFFCURVE",
"777 375 OFFCURVE",
"768 294 CURVE",
"800 309 LINE",
"529 309 LINE",
"529 212 LINE",
"892 212 LINE",
"915 396 OFFCURVE",
"839 516 OFFCURVE",
"676 516 CURVE SMOOTH",
"529 516 OFFCURVE",
"419 407 OFFCURVE",
"419 246 CURVE SMOOTH",
"419 85 OFFCURVE",
"525 -10 OFFCURVE",
"693 -10 CURVE SMOOTH"
);
}
);
};
layerId = "014D4A40-7C7F-4023-B30E-1F55CE5EA091";
paths = (
{
closed = 1;
nodes = (
"152 516 OFFCURVE",
"45 399 OFFCURVE",
"45 241 CURVE SMOOTH",
"45 87 OFFCURVE",
"139 -10 OFFCURVE",
"292 -10 CURVE SMOOTH",
"450 -10 OFFCURVE",
"538 107 OFFCURVE",
"538 265 CURVE SMOOTH",
"538 419 OFFCURVE",
"463 516 OFFCURVE",
"307 516 CURVE SMOOTH"
);
},
{
closed = 1;
nodes = (
"234 117 OFFCURVE",
"195 163 OFFCURVE",
"195 241 CURVE SMOOTH",
"195 331 OFFCURVE",
"241 389 OFFCURVE",
"313 389 CURVE SMOOTH",
"378 389 OFFCURVE",
"418 343 OFFCURVE",
"418 265 CURVE SMOOTH",
"418 175 OFFCURVE",
"372 117 OFFCURVE",
"302 117 CURVE SMOOTH"
);
},
{
closed = 1;
nodes = (
"791 -10 OFFCURVE",
"853 24 OFFCURVE",
"898 83 CURVE",
"815 163 LINE",
"786 131 OFFCURVE",
"741 114 OFFCURVE",
"704 114 CURVE SMOOTH",
"616 114 OFFCURVE",
"567 163 OFFCURVE",
"567 225 CURVE SMOOTH",
"567 266 LINE SMOOTH",
"567 354 OFFCURVE",
"610 410 OFFCURVE",
"679 410 CURVE SMOOTH",
"740 410 OFFCURVE",
"777 375 OFFCURVE",
"768 294 CURVE",
"800 309 LINE",
"529 309 LINE",
"529 212 LINE",
"892 212 LINE",
"915 396 OFFCURVE",
"839 516 OFFCURVE",
"676 516 CURVE SMOOTH",
"533 516 OFFCURVE",
"444 407 OFFCURVE",
"444 246 CURVE SMOOTH",
"444 85 OFFCURVE",
"529 -10 OFFCURVE",
"693 -10 CURVE SMOOTH"
);
}
);
width = 942;
}
);
leftMetricsKey = o;
rightMetricsKey = e;
unicode = 0153;
},
{
color = 4;
glyphname = p;
lastChange = "2019-03-25 16:16:20 +0000";
layers = (
{
background = {
paths = (
{
closed = 1;
nodes = (
"147 0 LINE",
"156 82 LINE",
"151 81 LINE",
"169 29 OFFCURVE",
"226 -8 OFFCURVE",
"295 -8 CURVE SMOOTH",
"438 -8 OFFCURVE",
"536 108 OFFCURVE",
"536 274 CURVE SMOOTH",
"536 411 OFFCURVE",
"466 507 OFFCURVE",
"340 507 CURVE SMOOTH",
"244 507 OFFCURVE",
"169 441 OFFCURVE",
"141 335 CURVE",
"156 321 LINE",
"161 499 LINE",
"161 740 LINE",
"83 740 LINE",
"83 0 LINE"
);
},
{
closed = 1;
nodes = (
"211 64 OFFCURVE",
"160 121 OFFCURVE",
"160 216 CURVE SMOOTH",
"160 345 OFFCURVE",
"233 436 OFFCURVE",
"329 436 CURVE SMOOTH",
"407 436 OFFCURVE",
"455 374 OFFCURVE",
"455 269 CURVE SMOOTH",
"455 145 OFFCURVE",
"391 64 OFFCURVE",
"293 64 CURVE SMOOTH"
);
}
);
};
layerId = "A3B50665-EA37-4AC6-885C-1233CA61B6BD";
paths = (
{
closed = 1;
nodes = (
"161 -200 LINE",
"161 0 LINE",
"159 90 LINE",
"151 81 LINE",
"169 29 OFFCURVE",
"226 -8 OFFCURVE",
"295 -8 CURVE SMOOTH",
"438 -8 OFFCURVE",
"536 108 OFFCURVE",
"536 274 CURVE SMOOTH",
"536 411 OFFCURVE",
"466 507 OFFCURVE",
"340 507 CURVE SMOOTH",
"244 507 OFFCURVE",
"169 441 OFFCURVE",
"141 335 CURVE",
"157 320 LINE",
"162 498 LINE",
"83 498 LINE",
"83 -200 LINE"
);
},
{
closed = 1;
nodes = (
"211 64 OFFCURVE",
"160 121 OFFCURVE",
"160 216 CURVE SMOOTH",
"160 345 OFFCURVE",
"233 436 OFFCURVE",
"329 436 CURVE SMOOTH",
"407 436 OFFCURVE",
"455 374 OFFCURVE",
"455 269 CURVE SMOOTH",
"455 145 OFFCURVE",
"391 64 OFFCURVE",
"293 64 CURVE SMOOTH"
);
}
);
width = 596;
},
{
background = {
paths = (
{
closed = 1;
nodes = (
"215 -200 LINE",
"215 0 LINE",
"211 90 LINE",
"182 64 LINE",
"207 21 OFFCURVE",
"263 -10 OFFCURVE",
"332 -10 CURVE SMOOTH",
"480 -10 OFFCURVE",
"593 104 OFFCURVE",
"593 274 CURVE SMOOTH",
"593 414 OFFCURVE",
"518 516 OFFCURVE",
"378 516 CURVE SMOOTH",
"276 516 OFFCURVE",
"205 457 OFFCURVE",
"177 351 CURVE",
"206 329 LINE",
"216 508 LINE",
"69 508 LINE",
"69 -200 LINE"
);
},
{
closed = 1;
nodes = (
"254 118 OFFCURVE",
"215 161 OFFCURVE",
"215 231 CURVE SMOOTH",
"215 325 OFFCURVE",
"270 389 OFFCURVE",
"342 389 CURVE SMOOTH",
"400 389 OFFCURVE",
"438 346 OFFCURVE",
"438 270 CURVE SMOOTH",
"438 181 OFFCURVE",
"391 118 OFFCURVE",
"315 118 CURVE SMOOTH"
);
}
);
};
layerId = "014D4A40-7C7F-4023-B30E-1F55CE5EA091";
paths = (
{
closed = 1;
nodes = (
"215 -200 LINE",
"215 0 LINE",
"211 90 LINE",
"194 47 LINE",
"214 21 OFFCURVE",
"263 -10 OFFCURVE",
"332 -10 CURVE SMOOTH",
"480 -10 OFFCURVE",
"593 104 OFFCURVE",
"593 274 CURVE SMOOTH",
"593 414 OFFCURVE",
"518 516 OFFCURVE",
"378 516 CURVE SMOOTH",
"276 516 OFFCURVE",
"205 457 OFFCURVE",
"177 351 CURVE",
"206 329 LINE",
"216 508 LINE",
"69 508 LINE",
"69 -200 LINE"
);
},
{
closed = 1;
nodes = (
"254 118 OFFCURVE",
"215 161 OFFCURVE",
"215 231 CURVE SMOOTH",
"215 325 OFFCURVE",
"270 389 OFFCURVE",
"342 389 CURVE SMOOTH",
"400 389 OFFCURVE",
"438 346 OFFCURVE",
"438 270 CURVE SMOOTH",
"438 181 OFFCURVE",
"391 118 OFFCURVE",
"315 118 CURVE SMOOTH"
);
}
);
width = 638;
}
);
leftMetricsKey = n;
note = p;
rightMetricsKey = o;
unicode = 0070;
},
{
color = 3;
glyphname = thorn;
lastChange = "2019-03-27 22:13:57 +0000";
layers = (
{
background = {
paths = (
{
closed = 1;
nodes = (
"147 0 LINE",
"156 82 LINE",
"151 81 LINE",
"169 29 OFFCURVE",
"226 -8 OFFCURVE",
"295 -8 CURVE SMOOTH",
"438 -8 OFFCURVE",
"536 108 OFFCURVE",
"536 274 CURVE SMOOTH",
"536 411 OFFCURVE",
"466 507 OFFCURVE",
"340 507 CURVE SMOOTH",
"244 507 OFFCURVE",
"169 441 OFFCURVE",
"141 335 CURVE",
"156 321 LINE",
"161 499 LINE",
"161 740 LINE",
"83 740 LINE",
"83 0 LINE"
);
},
{
closed = 1;
nodes = (
"211 64 OFFCURVE",
"160 121 OFFCURVE",
"160 216 CURVE SMOOTH",
"160 345 OFFCURVE",
"233 436 OFFCURVE",
"329 436 CURVE SMOOTH",
"407 436 OFFCURVE",
"455 374 OFFCURVE",
"455 269 CURVE SMOOTH",
"455 145 OFFCURVE",
"391 64 OFFCURVE",
"293 64 CURVE SMOOTH"
);
}
);
};
layerId = "A3B50665-EA37-4AC6-885C-1233CA61B6BD";
paths = (
{
closed = 1;
nodes = (
"161 -200 LINE",
"161 0 LINE",
"159 90 LINE",
"151 81 LINE",
"169 29 OFFCURVE",
"226 -8 OFFCURVE",
"295 -8 CURVE SMOOTH",
"438 -8 OFFCURVE",
"536 108 OFFCURVE",
"536 274 CURVE SMOOTH",
"536 411 OFFCURVE",
"466 507 OFFCURVE",
"340 507 CURVE SMOOTH",
"244 507 OFFCURVE",
"169 441 OFFCURVE",
"141 335 CURVE",
"157 320 LINE",
"161 499 LINE",
"161 740 LINE",
"83 740 LINE",
"83 -200 LINE"
);
},
{
closed = 1;
nodes = (
"211 64 OFFCURVE",
"160 121 OFFCURVE",
"160 216 CURVE SMOOTH",
"160 345 OFFCURVE",
"233 436 OFFCURVE",
"329 436 CURVE SMOOTH",
"407 436 OFFCURVE",
"455 374 OFFCURVE",
"455 269 CURVE SMOOTH",
"455 145 OFFCURVE",
"391 64 OFFCURVE",
"293 64 CURVE SMOOTH"
);
}
);
width = 596;
},
{
background = {
paths = (
{
closed = 1;
nodes = (
"174 0 LINE",
"192 84 LINE",
"182 64 LINE",
"207 21 OFFCURVE",
"263 -10 OFFCURVE",
"332 -10 CURVE SMOOTH",
"480 -10 OFFCURVE",
"593 104 OFFCURVE",
"593 274 CURVE SMOOTH",
"593 414 OFFCURVE",
"518 516 OFFCURVE",
"378 516 CURVE SMOOTH",
"276 516 OFFCURVE",
"205 457 OFFCURVE",
"177 351 CURVE",
"206 329 LINE",
"215 508 LINE",
"215 740 LINE",
"69 740 LINE",
"69 0 LINE"
);
},
{
closed = 1;
nodes = (
"254 118 OFFCURVE",
"215 161 OFFCURVE",
"215 231 CURVE SMOOTH",
"215 325 OFFCURVE",
"270 389 OFFCURVE",
"342 389 CURVE SMOOTH",
"400 389 OFFCURVE",
"438 346 OFFCURVE",
"438 270 CURVE SMOOTH",
"438 181 OFFCURVE",
"391 118 OFFCURVE",
"315 118 CURVE SMOOTH"
);
}
);
};
layerId = "014D4A40-7C7F-4023-B30E-1F55CE5EA091";
paths = (
{
closed = 1;
nodes = (
"215 -200 LINE",
"215 0 LINE",
"211 90 LINE",
"194 47 LINE",
"214 21 OFFCURVE",
"263 -10 OFFCURVE",
"332 -10 CURVE SMOOTH",
"480 -10 OFFCURVE",
"593 104 OFFCURVE",
"593 274 CURVE SMOOTH",
"593 414 OFFCURVE",
"518 516 OFFCURVE",
"378 516 CURVE SMOOTH",
"276 516 OFFCURVE",
"205 457 OFFCURVE",
"177 351 CURVE",
"206 329 LINE",
"215 508 LINE",
"215 740 LINE",
"69 740 LINE",
"69 -200 LINE"
);
},
{
closed = 1;
nodes = (
"254 118 OFFCURVE",
"215 161 OFFCURVE",
"215 231 CURVE SMOOTH",
"215 325 OFFCURVE",
"270 389 OFFCURVE",
"342 389 CURVE SMOOTH",
"400 389 OFFCURVE",
"438 346 OFFCURVE",
"438 270 CURVE SMOOTH",
"438 181 OFFCURVE",
"391 118 OFFCURVE",
"315 118 CURVE SMOOTH"
);
}
);
width = 638;
}
);
leftMetricsKey = n;
widthMetricsKey = p;
unicode = 00FE;
},
{
color = 4;
glyphname = q;
lastChange = "2019-03-21 14:52:30 +0000";
layers = (
{
background = {
paths = (
{
closed = 1;
nodes = (
"449 498 LINE",
"440 416 LINE",
"445 418 LINE",
"427 470 OFFCURVE",
"370 507 OFFCURVE",
"301 507 CURVE SMOOTH",
"158 507 OFFCURVE",
"60 391 OFFCURVE",
"60 225 CURVE SMOOTH",
"60 88 OFFCURVE",
"130 -8 OFFCURVE",
"256 -8 CURVE SMOOTH",
"352 -8 OFFCURVE",
"427 58 OFFCURVE",
"455 164 CURVE",
"439 178 LINE",
"434 0 LINE",
"513 0 LINE",
"513 498 LINE"
);
},
{
closed = 1;
nodes = (
"385 436 OFFCURVE",
"436 379 OFFCURVE",
"436 284 CURVE SMOOTH",
"436 155 OFFCURVE",
"363 64 OFFCURVE",
"267 64 CURVE SMOOTH",
"189 64 OFFCURVE",
"141 126 OFFCURVE",
"141 231 CURVE SMOOTH",
"141 355 OFFCURVE",
"205 436 OFFCURVE",
"303 436 CURVE SMOOTH"
);
}
);
};
layerId = "A3B50665-EA37-4AC6-885C-1233CA61B6BD";
paths = (
{
closed = 1;
nodes = (
"449 498 LINE",
"440 416 LINE",
"445 418 LINE",
"427 470 OFFCURVE",
"370 507 OFFCURVE",
"301 507 CURVE SMOOTH",
"158 507 OFFCURVE",
"60 391 OFFCURVE",
"60 225 CURVE SMOOTH",
"60 88 OFFCURVE",
"130 -8 OFFCURVE",
"256 -8 CURVE SMOOTH",
"352 -8 OFFCURVE",
"427 58 OFFCURVE",
"455 164 CURVE",
"440 178 LINE",
"435 0 LINE",
"435 -200 LINE",
"513 -200 LINE",
"513 498 LINE"
);
},
{
closed = 1;
nodes = (
"385 436 OFFCURVE",
"436 379 OFFCURVE",
"436 284 CURVE SMOOTH",
"436 155 OFFCURVE",
"363 64 OFFCURVE",
"267 64 CURVE SMOOTH",
"189 64 OFFCURVE",
"141 126 OFFCURVE",
"141 231 CURVE SMOOTH",
"141 355 OFFCURVE",
"205 436 OFFCURVE",
"303 436 CURVE SMOOTH"
);
}
);
width = 596;
},
{
background = {
paths = (
{
closed = 1;
nodes = (
"464 506 LINE",
"446 422 LINE",
"456 442 LINE",
"431 485 OFFCURVE",
"375 516 OFFCURVE",
"306 516 CURVE SMOOTH",
"158 516 OFFCURVE",
"45 402 OFFCURVE",
"45 232 CURVE SMOOTH",
"45 92 OFFCURVE",
"120 -10 OFFCURVE",
"260 -10 CURVE SMOOTH",
"362 -10 OFFCURVE",
"433 49 OFFCURVE",
"461 155 CURVE",
"432 179 LINE",
"422 0 LINE",
"569 0 LINE",
"569 506 LINE"
);
},
{
closed = 1;
nodes = (
"384 389 OFFCURVE",
"423 346 OFFCURVE",
"423 276 CURVE SMOOTH",
"423 182 OFFCURVE",
"368 118 OFFCURVE",
"296 118 CURVE SMOOTH",
"238 118 OFFCURVE",
"200 161 OFFCURVE",
"200 237 CURVE SMOOTH",
"200 326 OFFCURVE",
"247 389 OFFCURVE",
"323 389 CURVE SMOOTH"
);
}
);
};
layerId = "014D4A40-7C7F-4023-B30E-1F55CE5EA091";
paths = (
{
closed = 1;
nodes = (
"464 508 LINE",
"446 424 LINE",
"456 442 LINE",
"431 485 OFFCURVE",
"375 516 OFFCURVE",
"306 516 CURVE SMOOTH",
"158 516 OFFCURVE",
"45 402 OFFCURVE",
"45 232 CURVE SMOOTH",
"45 92 OFFCURVE",
"120 -10 OFFCURVE",
"260 -10 CURVE SMOOTH",
"362 -10 OFFCURVE",
"433 49 OFFCURVE",
"461 155 CURVE",
"432 179 LINE",
"423 0 LINE",
"423 -200 LINE",
"569 -200 LINE",
"569 508 LINE"
);
},
{
closed = 1;
nodes = (
"384 389 OFFCURVE",
"423 346 OFFCURVE",
"423 276 CURVE SMOOTH",
"423 182 OFFCURVE",
"368 118 OFFCURVE",
"296 118 CURVE SMOOTH",
"238 118 OFFCURVE",
"200 161 OFFCURVE",
"200 237 CURVE SMOOTH",
"200 326 OFFCURVE",
"247 389 OFFCURVE",
"323 389 CURVE SMOOTH"
);
}
);
width = 638;
}
);
leftMetricsKey = o;
note = q;
rightMetricsKey = "=|n";
unicode = 0071;
},
{
color = 4;
glyphname = r;
lastChange = "2019-03-20 13:51:48 +0000";
layers = (
{
background = {
paths = (
{
closed = 1;
nodes = (
"379 499 LINE",
"368 504 OFFCURVE",
"350 507 OFFCURVE",
"330 507 CURVE SMOOTH",
"246 507 OFFCURVE",
"165 440 OFFCURVE",
"144 290 CURVE",
"157 320 LINE",
"160 498 LINE",
"81 498 LINE",
"83 320 LINE",
"83 0 LINE",
"161 0 LINE",
"162 100 LINE SMOOTH",
"165 362 OFFCURVE",
"244 429 OFFCURVE",
"327 429 CURVE SMOOTH",
"342 429 OFFCURVE",
"354 428 OFFCURVE",
"368 422 CURVE"
);
}
);
};
layerId = "A3B50665-EA37-4AC6-885C-1233CA61B6BD";
paths = (
{
closed = 1;
nodes = (
"379 500 LINE",
"368 505 OFFCURVE",
"350 507 OFFCURVE",
"330 507 CURVE SMOOTH",
"246 507 OFFCURVE",
"166 440 OFFCURVE",
"145 274 CURVE",
"154 290 LINE",
"160 498 LINE",
"82 498 LINE",
"83 320 LINE",
"83 0 LINE",
"160 0 LINE",
"160 302 OFFCURVE",
"210 429 OFFCURVE",
"327 429 CURVE SMOOTH",
"342 429 OFFCURVE",
"354 428 OFFCURVE",
"368 424 CURVE"
);
}
);
width = 382;
},
{
background = {
paths = (
{
closed = 1;
nodes = (
"437 507 LINE",
"420 515 OFFCURVE",
"401 516 OFFCURVE",
"382 516 CURVE SMOOTH",
"298 516 OFFCURVE",
"210 456 OFFCURVE",
"186 301 CURVE",
"206 329 LINE",
"213 508 LINE",
"66 508 LINE",
"69 329 LINE",
"69 0 LINE",
"215 0 LINE",
"215 80 LINE SMOOTH",
"215 315 OFFCURVE",
"289 375 OFFCURVE",
"362 375 CURVE SMOOTH",
"381 375 OFFCURVE",
"399 372 OFFCURVE",
"412 366 CURVE"
);
}
);
};
layerId = "014D4A40-7C7F-4023-B30E-1F55CE5EA091";
paths = (
{
closed = 1;
nodes = (
"437 508 LINE",
"420 515 OFFCURVE",
"401 516 OFFCURVE",
"382 516 CURVE SMOOTH",
"298 516 OFFCURVE",
"210 455 OFFCURVE",
"184 279 CURVE",
"203 289 LINE",
"213 508 LINE",
"68 508 LINE",
"69 329 LINE",
"69 0 LINE",
"214 0 LINE",
"214 273 OFFCURVE",
"254 375 OFFCURVE",
"362 375 CURVE SMOOTH",
"381 375 OFFCURVE",
"399 372 OFFCURVE",
"412 366 CURVE"
);
}
);
width = 438;
}
);
note = r;
unicode = 0072;
},
{
color = 9;
glyphname = s;
lastChange = "2019-03-27 13:03:58 +0000";
layers = (
{
background = {
paths = (
{
closed = 1;
nodes = (
"356 -8 OFFCURVE",
"437 55 OFFCURVE",
"435 140 CURVE SMOOTH",
"434 219 OFFCURVE",
"387 253 OFFCURVE",
"263 277 CURVE SMOOTH",
"175 294 OFFCURVE",
"149 316 OFFCURVE",
"149 358 CURVE SMOOTH",
"149 406 OFFCURVE",
"189 439 OFFCURVE",
"252 439 CURVE SMOOTH",
"312 439 OFFCURVE",
"347 411 OFFCURVE",
"357 362 CURVE",
"425 372 LINE",
"412 458 OFFCURVE",
"347 506 OFFCURVE",
"253 506 CURVE SMOOTH",
"149 506 OFFCURVE",
"72 441 OFFCURVE",
"72 355 CURVE SMOOTH",
"72 276 OFFCURVE",
"117 231 OFFCURVE",
"244 208 CURVE SMOOTH",
"331 192 OFFCURVE",
"358 172 OFFCURVE",
"358 134 CURVE SMOOTH",
"358 90 OFFCURVE",
"316 60 OFFCURVE",
"243 60 CURVE SMOOTH",
"161 60 OFFCURVE",
"121 91 OFFCURVE",
"112 156 CURVE",
"43 146 LINE",
"52 45 OFFCURVE",
"123 -8 OFFCURVE",
"245 -8 CURVE SMOOTH"
);
}
);
};
layerId = "A3B50665-EA37-4AC6-885C-1233CA61B6BD";
paths = (
{
closed = 1;
nodes = (
"360 -8 OFFCURVE",
"436 55 OFFCURVE",
"435 140 CURVE SMOOTH",
"433 322 OFFCURVE",
"149 233 OFFCURVE",
"149 358 CURVE SMOOTH",
"149 406 OFFCURVE",
"189 439 OFFCURVE",
"252 439 CURVE SMOOTH",
"312 439 OFFCURVE",
"347 411 OFFCURVE",
"357 362 CURVE",
"424 379 LINE",
"411 458 OFFCURVE",
"347 506 OFFCURVE",
"253 506 CURVE SMOOTH",
"149 506 OFFCURVE",
"72 441 OFFCURVE",
"72 355 CURVE SMOOTH",
"72 161 OFFCURVE",
"358 250 OFFCURVE",
"358 134 CURVE SMOOTH",
"358 90 OFFCURVE",
"320 59 OFFCURVE",
"249 59 CURVE SMOOTH",
"163 59 OFFCURVE",
"121 91 OFFCURVE",
"112 156 CURVE",
"44 140 LINE",
"54 45 OFFCURVE",
"123 -8 OFFCURVE",
"249 -8 CURVE SMOOTH"
);
}
);
width = 476;
},
{
background = {
paths = (
{
closed = 1;
nodes = (
"384 -10 OFFCURVE",
"476 56 OFFCURVE",
"476 155 CURVE SMOOTH",
"476 236 OFFCURVE",
"429 282 OFFCURVE",
"294 308 CURVE SMOOTH",
"214 323 OFFCURVE",
"197 337 OFFCURVE",
"197 361 CURVE SMOOTH",
"197 384 OFFCURVE",
"218 404 OFFCURVE",
"265 404 CURVE SMOOTH",
"314 404 OFFCURVE",
"342 382 OFFCURVE",
"348 352 CURVE",
"467 372 LINE",
"457 458 OFFCURVE",
"379 516 OFFCURVE",
"269 516 CURVE SMOOTH",
"143 516 OFFCURVE",
"55 445 OFFCURVE",
"55 346 CURVE SMOOTH",
"55 265 OFFCURVE",
"104 218 OFFCURVE",
"240 192 CURVE SMOOTH",
"317 177 OFFCURVE",
"334 164 OFFCURVE",
"334 142 CURVE SMOOTH",
"334 117 OFFCURVE",
"308 103 OFFCURVE",
"255 103 CURVE SMOOTH",
"189 103 OFFCURVE",
"155 129 OFFCURVE",
"152 169 CURVE",
"26 151 LINE",
"35 47 OFFCURVE",
"112 -10 OFFCURVE",
"258 -10 CURVE SMOOTH"
);
}
);
};
layerId = "014D4A40-7C7F-4023-B30E-1F55CE5EA091";
paths = (
{
closed = 1;
nodes = (
"384 -10 OFFCURVE",
"476 54 OFFCURVE",
"476 152 CURVE SMOOTH",
"476 340 OFFCURVE",
"197 280 OFFCURVE",
"197 361 CURVE SMOOTH",
"197 384 OFFCURVE",
"218 404 OFFCURVE",
"265 404 CURVE SMOOTH",
"314 404 OFFCURVE",
"342 382 OFFCURVE",
"351 349 CURVE",
"466 382 LINE",
"454 458 OFFCURVE",
"379 516 OFFCURVE",
"269 516 CURVE SMOOTH",
"143 516 OFFCURVE",
"55 445 OFFCURVE",
"55 349 CURVE SMOOTH",
"55 159 OFFCURVE",
"334 221 OFFCURVE",
"334 142 CURVE SMOOTH",
"334 117 OFFCURVE",
"308 102 OFFCURVE",
"255 102 CURVE SMOOTH",
"191 102 OFFCURVE",
"155 129 OFFCURVE",
"147 171 CURVE",
"26 141 LINE",
"39 48 OFFCURVE",
"112 -10 OFFCURVE",
"258 -10 CURVE SMOOTH"
);
}
);
width = 506;
}
);
note = s;
unicode = 0073;
},
{
color = 3;
glyphname = germandbls;
lastChange = "2019-03-28 09:16:04 +0000";
layers = (
{
background = {
paths = (
{
closed = 1;
nodes = (
"562 -8 OFFCURVE",
"641 48 OFFCURVE",
"641 138 CURVE SMOOTH",
"641 213 OFFCURVE",
"596 250 OFFCURVE",
"484 284 CURVE SMOOTH",
"386 314 OFFCURVE",
"368 335 OFFCURVE",
"368 373 CURVE SMOOTH",
"368 405 OFFCURVE",
"386 428 OFFCURVE",
"445 474 CURVE SMOOTH",
"486 507 OFFCURVE",
"526 551 OFFCURVE",
"526 614 CURVE SMOOTH",
"526 694 OFFCURVE",
"457 750 OFFCURVE",
"352 750 CURVE SMOOTH",
"200 750 OFFCURVE",
"107 647 OFFCURVE",
"107 486 CURVE SMOOTH",
"107 0 LINE",
"185 0 LINE",
"185 490 LINE SMOOTH",
"185 615 OFFCURVE",
"244 687 OFFCURVE",
"352 687 CURVE SMOOTH",
"418 687 OFFCURVE",
"457 657 OFFCURVE",
"457 615 CURVE SMOOTH",
"457 578 OFFCURVE",
"442 551 OFFCURVE",
"379 500 CURVE SMOOTH",
"316 449 OFFCURVE",
"294 410 OFFCURVE",
"294 360 CURVE SMOOTH",
"294 288 OFFCURVE",
"336 250 OFFCURVE",
"452 217 CURVE SMOOTH",
"538 192 OFFCURVE",
"564 171 OFFCURVE",
"564 130 CURVE SMOOTH",
"564 88 OFFCURVE",
"530 57 OFFCURVE",
"458 57 CURVE SMOOTH",
"389 57 OFFCURVE",
"341 91 OFFCURVE",
"332 156 CURVE",
"264 140 LINE",
"274 45 OFFCURVE",
"349 -8 OFFCURVE",
"454 -8 CURVE SMOOTH"
);
},
{
closed = 1;
nodes = (
"152 432 LINE",
"152 498 LINE",
"8 498 LINE",
"8 432 LINE"
);
}
);
};
layerId = "A3B50665-EA37-4AC6-885C-1233CA61B6BD";
paths = (
{
closed = 1;
nodes = (
"562 -8 OFFCURVE",
"641 48 OFFCURVE",
"641 138 CURVE SMOOTH",
"641 311 OFFCURVE",
"368 257 OFFCURVE",
"368 373 CURVE SMOOTH",
"368 461 OFFCURVE",
"526 486 OFFCURVE",
"526 614 CURVE SMOOTH",
"526 694 OFFCURVE",
"457 750 OFFCURVE",
"352 750 CURVE SMOOTH",
"202 750 OFFCURVE",
"107 647 OFFCURVE",
"107 486 CURVE SMOOTH",
"107 0 LINE",
"185 0 LINE",
"185 490 LINE SMOOTH",
"185 615 OFFCURVE",
"244 687 OFFCURVE",
"352 687 CURVE SMOOTH",
"418 687 OFFCURVE",
"457 657 OFFCURVE",
"457 615 CURVE SMOOTH",
"457 510 OFFCURVE",
"294 493 OFFCURVE",
"294 360 CURVE SMOOTH",
"294 189 OFFCURVE",
"564 246 OFFCURVE",
"564 130 CURVE SMOOTH",
"564 88 OFFCURVE",
"530 57 OFFCURVE",
"458 57 CURVE SMOOTH",
"389 57 OFFCURVE",
"341 91 OFFCURVE",
"332 156 CURVE",
"264 140 LINE",
"274 45 OFFCURVE",
"349 -8 OFFCURVE",
"454 -8 CURVE SMOOTH"
);
},
{
closed = 1;
nodes = (
"152 432 LINE",
"152 498 LINE",
"8 498 LINE",
"8 432 LINE"
);
}
);
width = 703;
},
{
background = {
paths = (
{
closed = 1;
nodes = (
"629 -10 OFFCURVE",
"714 63 OFFCURVE",
"714 155 CURVE SMOOTH",
"714 243 OFFCURVE",
"663 290 OFFCURVE",
"549 321 CURVE SMOOTH",
"473 341 OFFCURVE",
"457 354 OFFCURVE",
"457 375 CURVE SMOOTH",
"457 396 OFFCURVE",
"468 409 OFFCURVE",
"517 448 CURVE SMOOTH",
"575 493 OFFCURVE",
"601 538 OFFCURVE",
"601 594 CURVE SMOOTH",
"601 687 OFFCURVE",
"517 750 OFFCURVE",
"387 750 CURVE SMOOTH",
"210 750 OFFCURVE",
"95 640 OFFCURVE",
"95 462 CURVE SMOOTH",
"95 0 LINE",
"241 0 LINE",
"241 469 LINE SMOOTH",
"241 576 OFFCURVE",
"296 637 OFFCURVE",
"385 637 CURVE SMOOTH",
"443 637 OFFCURVE",
"469 617 OFFCURVE",
"469 587 CURVE SMOOTH",
"469 563 OFFCURVE",
"461 547 OFFCURVE",
"397 494 CURVE SMOOTH",
"341 446 OFFCURVE",
"319 405 OFFCURVE",
"319 351 CURVE SMOOTH",
"319 276 OFFCURVE",
"368 230 OFFCURVE",
"478 203 CURVE SMOOTH",
"551 185 OFFCURVE",
"572 172 OFFCURVE",
"572 146 CURVE SMOOTH",
"572 118 OFFCURVE",
"550 101 OFFCURVE",
"505 101 CURVE SMOOTH",
"460 101 OFFCURVE",
"431 121 OFFCURVE",
"419 164 CURVE",
"289 133 LINE",
"311 41 OFFCURVE",
"380 -10 OFFCURVE",
"504 -10 CURVE SMOOTH"
);
},
{
closed = 1;
nodes = (
"177 389 LINE",
"177 510 LINE",
"-2 510 LINE",
"-2 389 LINE"
);
}
);
};
layerId = "014D4A40-7C7F-4023-B30E-1F55CE5EA091";
paths = (
{
closed = 1;
nodes = (
"629 -10 OFFCURVE",
"714 63 OFFCURVE",
"714 155 CURVE SMOOTH",
"714 342 OFFCURVE",
"457 305 OFFCURVE",
"457 375 CURVE SMOOTH",
"457 436 OFFCURVE",
"601 468 OFFCURVE",
"601 594 CURVE SMOOTH",
"601 687 OFFCURVE",
"517 750 OFFCURVE",
"387 750 CURVE SMOOTH",
"210 750 OFFCURVE",
"95 640 OFFCURVE",
"95 462 CURVE SMOOTH",
"95 0 LINE",
"241 0 LINE",
"241 469 LINE SMOOTH",
"241 576 OFFCURVE",
"296 637 OFFCURVE",
"385 637 CURVE SMOOTH",
"443 637 OFFCURVE",
"469 617 OFFCURVE",
"469 587 CURVE SMOOTH",
"469 512 OFFCURVE",
"319 480 OFFCURVE",
"319 351 CURVE SMOOTH",
"319 178 OFFCURVE",
"572 226 OFFCURVE",
"572 146 CURVE SMOOTH",
"572 118 OFFCURVE",
"550 101 OFFCURVE",
"505 101 CURVE SMOOTH",
"460 101 OFFCURVE",
"431 121 OFFCURVE",
"419 164 CURVE",
"289 133 LINE",
"311 41 OFFCURVE",
"380 -10 OFFCURVE",
"502 -10 CURVE SMOOTH"
);
},
{
closed = 1;
nodes = (
"177 389 LINE",
"177 510 LINE",
"-2 510 LINE",
"-2 389 LINE"
);
}
);
width = 732;
}
);
leftMetricsKey = f;
unicode = 00DF;
},
{
color = 9;
glyphname = schwa;
lastChange = "2019-03-28 09:37:28 +0000";
layers = (
{
layerId = "A3B50665-EA37-4AC6-885C-1233CA61B6BD";
paths = (
{
closed = 1;
nodes = (
"174 506 OFFCURVE",
"102 471 OFFCURVE",
"55 413 CURVE",
"102 363 LINE",
"139 413 OFFCURVE",
"196 435 OFFCURVE",
"257 435 CURVE SMOOTH",
"351 435 OFFCURVE",
"415 375 OFFCURVE",
"415 267 CURVE SMOOTH",
"415 240 LINE SMOOTH",
"415 139 OFFCURVE",
"360 55 OFFCURVE",
"259 55 CURVE SMOOTH",
"175 55 OFFCURVE",
"117 107 OFFCURVE",
"127 226 CURVE",
"107 213 LINE",
"447 213 LINE",
"447 276 LINE",
"51 276 LINE",
"29 81 OFFCURVE",
"118 -9 OFFCURVE",
"259 -9 CURVE SMOOTH",
"394 -9 OFFCURVE",
"492 98 OFFCURVE",
"492 256 CURVE SMOOTH",
"492 413 OFFCURVE",
"399 506 OFFCURVE",
"260 506 CURVE SMOOTH"
);
}
);
width = 552;
},
{
background = {
paths = (
{
closed = 1;
nodes = (
"151 516 OFFCURVE",
"89 482 OFFCURVE",
"44 423 CURVE",
"127 343 LINE",
"156 375 OFFCURVE",
"201 392 OFFCURVE",
"238 392 CURVE SMOOTH",
"326 392 OFFCURVE",
"375 343 OFFCURVE",
"375 281 CURVE SMOOTH",
"375 240 LINE SMOOTH",
"375 152 OFFCURVE",
"332 96 OFFCURVE",
"263 96 CURVE SMOOTH",
"202 96 OFFCURVE",
"165 131 OFFCURVE",
"174 212 CURVE",
"142 197 LINE",
"413 197 LINE",
"413 294 LINE",
"50 294 LINE",
"27 110 OFFCURVE",
"103 -10 OFFCURVE",
"266 -10 CURVE SMOOTH",
"413 -10 OFFCURVE",
"523 99 OFFCURVE",
"523 260 CURVE SMOOTH",
"523 421 OFFCURVE",
"417 516 OFFCURVE",
"249 516 CURVE SMOOTH"
);
}
);
};
layerId = "014D4A40-7C7F-4023-B30E-1F55CE5EA091";
paths = (
{
closed = 1;
nodes = (
"171 516 OFFCURVE",
"99 482 OFFCURVE",
"49 433 CURVE",
"122 344 LINE",
"156 376 OFFCURVE",
"201 393 OFFCURVE",
"248 393 CURVE SMOOTH",
"336 393 OFFCURVE",
"381 343 OFFCURVE",
"381 281 CURVE SMOOTH",
"381 240 LINE SMOOTH",
"381 142 OFFCURVE",
"338 96 OFFCURVE",
"269 96 CURVE SMOOTH",
"208 96 OFFCURVE",
"171 131 OFFCURVE",
"180 212 CURVE",
"142 197 LINE",
"423 197 LINE",
"423 294 LINE",
"46 294 LINE",
"14 103 OFFCURVE",
"98 -10 OFFCURVE",
"271 -10 CURVE SMOOTH",
"413 -10 OFFCURVE",
"523 99 OFFCURVE",
"523 260 CURVE SMOOTH",
"523 421 OFFCURVE",
"417 516 OFFCURVE",
"263 516 CURVE SMOOTH"
);
}
);
width = 568;
}
);
widthMetricsKey = e;
rightMetricsKey = "=|e";
unicode = 0259;
},
{
color = 4;
glyphname = t;
lastChange = "2019-03-20 09:03:50 +0000";
layers = (
{
background = {
paths = (
{
closed = 1;
nodes = (
"319 -8 OFFCURVE",
"362 3 OFFCURVE",
"391 28 CURVE",
"366 90 LINE",
"336 68 OFFCURVE",
"312 62 OFFCURVE",
"281 62 CURVE SMOOTH",
"213 62 OFFCURVE",
"181 103 OFFCURVE",
"182 166 CURVE SMOOTH",
"187 600 LINE",
"126 600 LINE",
"117 559 OFFCURVE",
"111 518 OFFCURVE",
"107 477 CURVE",
"103 160 LINE SMOOTH",
"102 58 OFFCURVE",
"161 -8 OFFCURVE",
"277 -8 CURVE SMOOTH"
);
},
{
closed = 1;
nodes = (
"358 432 LINE",
"358 498 LINE",
"19 498 LINE",
"19 432 LINE"
);
}
);
};
layerId = "A3B50665-EA37-4AC6-885C-1233CA61B6BD";
paths = (
{
closed = 1;
nodes = (
"319 -8 OFFCURVE",
"362 3 OFFCURVE",
"391 28 CURVE",
"366 90 LINE",
"336 68 OFFCURVE",
"312 62 OFFCURVE",
"281 62 CURVE SMOOTH",
"213 62 OFFCURVE",
"181 103 OFFCURVE",
"182 166 CURVE SMOOTH",
"187 602 LINE",
"109 602 LINE",
"103 160 LINE SMOOTH",
"102 58 OFFCURVE",
"161 -8 OFFCURVE",
"277 -8 CURVE SMOOTH"
);
},
{
closed = 1;
nodes = (
"358 432 LINE",
"358 498 LINE",
"19 498 LINE",
"19 432 LINE"
);
}
);
width = 402;
},
{
background = {
paths = (
{
closed = 1;
nodes = (
"356 -10 OFFCURVE",
"410 5 OFFCURVE",
"442 32 CURVE",
"400 143 LINE",
"370 122 OFFCURVE",
"344 116 OFFCURVE",
"315 116 CURVE SMOOTH",
"263 116 OFFCURVE",
"236 145 OFFCURVE",
"237 205 CURVE SMOOTH",
"243 610 LINE",
"129 610 LINE",
"114 569 OFFCURVE",
"102 529 OFFCURVE",
"95 488 CURVE",
"91 189 LINE SMOOTH",
"89 56 OFFCURVE",
"165 -10 OFFCURVE",
"291 -10 CURVE SMOOTH"
);
},
{
closed = 1;
nodes = (
"402 387 LINE",
"402 508 LINE",
"10 508 LINE",
"10 387 LINE"
);
}
);
};
guideLines = (
{
angle = 268.9258;
position = "{234, 307}";
}
);
layerId = "014D4A40-7C7F-4023-B30E-1F55CE5EA091";
paths = (
{
closed = 1;
nodes = (
"356 -10 OFFCURVE",
"410 5 OFFCURVE",
"442 32 CURVE",
"400 143 LINE",
"370 122 OFFCURVE",
"344 116 OFFCURVE",
"315 116 CURVE SMOOTH",
"263 116 OFFCURVE",
"236 145 OFFCURVE",
"237 205 CURVE SMOOTH",
"243 612 LINE",
"99 612 LINE",
"91 189 LINE SMOOTH",
"89 66 OFFCURVE",
"167 -10 OFFCURVE",
"291 -10 CURVE SMOOTH"
);
},
{
closed = 1;
nodes = (
"402 387 LINE",
"402 508 LINE",
"10 508 LINE",
"10 387 LINE"
);
}
);
width = 455;
}
);
unicode = 0074;
},
{
glyphname = tbar;
lastChange = "2019-03-28 14:28:21 +0000";
layers = (
{
background = {
paths = (
{
closed = 1;
nodes = (
"638 0 LINE",
"638 467 LINE",
"662 467 LINE",
"662 353 LINE",
"700 446 OFFCURVE",
"788 477 OFFCURVE",
"839 477 CURVE",
"935 477 OFFCURVE",
"1040 435 OFFCURVE",
"1040 271 CURVE",
"1040 0 LINE",
"1018 0 LINE",
"1018 271 LINE",
"1018 419 OFFCURVE",
"924 456 OFFCURVE",
"839 456 CURVE",
"781 456 OFFCURVE",
"665 411 OFFCURVE",
"662 252 CURVE",
"662 0 LINE"
);
},
{
closed = 1;
nodes = (
"1001 403 OFFCURVE",
"922 439 OFFCURVE",
"848 439 CURVE",
"792 439 OFFCURVE",
"680 397 OFFCURVE",
"679 241 CURVE",
"679 0 LINE",
"635 0 LINE",
"635 468 LINE",
"679 468 LINE",
"679 359 LINE",
"712 445 OFFCURVE",
"791 477 OFFCURVE",
"850 477 CURVE",
"948 477 OFFCURVE",
"1044 428 OFFCURVE",
"1044 269 CURVE",
"1044 0 LINE",
"1001 0 LINE",
"1001 269 LINE"
);
},
{
closed = 1;
nodes = (
"982 380 OFFCURVE",
"921 417 OFFCURVE",
"860 417 CURVE",
"809 417 OFFCURVE",
"703 379 OFFCURVE",
"701 228 CURVE",
"701 0 LINE",
"630 0 LINE",
"630 470 LINE",
"701 470 LINE",
"701 370 LINE",
"726 444 OFFCURVE",
"796 479 OFFCURVE",
"866 479 CURVE",
"968 479 OFFCURVE",
"1052 420 OFFCURVE",
"1052 267 CURVE",
"1052 0 LINE",
"982 0 LINE",
"982 267 LINE"
);
},
{
closed = 1;
nodes = (
"966 366 OFFCURVE",
"919 401 OFFCURVE",
"869 401 CURVE",
"820 401 OFFCURVE",
"718 368 OFFCURVE",
"718 219 CURVE",
"718 0 LINE",
"627 0 LINE",
"627 471 LINE",
"718 471 LINE",
"718 377 LINE",
"737 444 OFFCURVE",
"799 481 OFFCURVE",
"876 481 CURVE",
"977 481 OFFCURVE",
"1057 418 OFFCURVE",
"1057 266 CURVE",
"1057 0 LINE",
"966 0 LINE",
"966 266 LINE"
);
},
{
closed = 1;
nodes = (
"736 477 LINE",
"736 396 LINE",
"766 459 OFFCURVE",
"822 487 OFFCURVE",
"890 487 CURVE",
"1009 487 OFFCURVE",
"1067 402 OFFCURVE",
"1067 264 CURVE",
"1067 0 LINE",
"951 0 LINE",
"951 262 LINE",
"951 345 OFFCURVE",
"916 389 OFFCURVE",
"858 389 CURVE",
"790 389 OFFCURVE",
"736 338 OFFCURVE",
"736 238 CURVE",
"736 0 LINE",
"620 0 LINE",
"620 477 LINE"
);
},
{
closed = 1;
nodes = (
"754 484 LINE",
"754 418 LINE",
"794 474 OFFCURVE",
"845 494 OFFCURVE",
"904 494 CURVE",
"1040 494 OFFCURVE",
"1076 386 OFFCURVE",
"1076 262 CURVE",
"1076 0 LINE",
"936 0 LINE",
"936 260 LINE",
"936 327 OFFCURVE",
"911 378 OFFCURVE",
"847 378 CURVE",
"782 378 OFFCURVE",
"754 326 OFFCURVE",
"754 259 CURVE",
"754 0 LINE",
"614 0 LINE",
"614 484 LINE"
);
},
{
closed = 1;
nodes = (
"770 488 LINE",
"770 424 LINE",
"805 476 OFFCURVE",
"853 498 OFFCURVE",
"916 498 CURVE",
"1058 498 OFFCURVE",
"1088 379 OFFCURVE",
"1088 273 CURVE",
"1088 0 LINE",
"926 0 LINE",
"926 264 LINE",
"926 311 OFFCURVE",
"908 369 OFFCURVE",
"849 369 CURVE",
"790 369 OFFCURVE",
"770 320 OFFCURVE",
"770 264 CURVE",
"770 0 LINE",
"608 0 LINE",
"609 488 LINE"
);
},
{
closed = 1;
nodes = (
"910 310 OFFCURVE",
"902 355 OFFCURVE",
"852 355 CURVE",
"802 355 OFFCURVE",
"794 310 OFFCURVE",
"794 271 CURVE",
"794 0 LINE",
"600 0 LINE",
"600 495 LINE",
"794 495 LINE",
"794 435 LINE",
"821 478 OFFCURVE",
"865 506 OFFCURVE",
"932 506 CURVE",
"1085 506 OFFCURVE",
"1104 371 OFFCURVE",
"1104 290 CURVE",
"1104 0 LINE",
"910 0 LINE",
"910 271 LINE"
);
}
);
};
layerId = "A3B50665-EA37-4AC6-885C-1233CA61B6BD";
width = 600;
},
{
layerId = "014D4A40-7C7F-4023-B30E-1F55CE5EA091";
width = 600;
}
);
unicode = 0167;
},
{
color = 4;
glyphname = u;
lastChange = "2019-03-20 10:07:07 +0000";
layers = (
{
background = {
paths = (
{
closed = 1;
nodes = (
"340 -8 OFFCURVE",
"417 73 OFFCURVE",
"443 207 CURVE",
"433 208 LINE",
"425 0 LINE",
"501 0 LINE",
"501 498 LINE",
"426 498 LINE",
"425 171 OFFCURVE",
"353 65 OFFCURVE",
"254 65 CURVE SMOOTH",
"186 65 OFFCURVE",
"156 114 OFFCURVE",
"157 199 CURVE SMOOTH",
"160 498 LINE",
"82 498 LINE",
"79 190 LINE SMOOTH",
"78 66 OFFCURVE",
"134 -8 OFFCURVE",
"235 -8 CURVE SMOOTH"
);
}
);
};
layerId = "A3B50665-EA37-4AC6-885C-1233CA61B6BD";
paths = (
{
closed = 1;
nodes = (
"340 -8 OFFCURVE",
"417 73 OFFCURVE",
"443 217 CURVE",
"433 208 LINE",
"425 0 LINE",
"501 0 LINE",
"501 498 LINE",
"426 498 LINE",
"425 171 OFFCURVE",
"353 65 OFFCURVE",
"254 65 CURVE SMOOTH",
"186 65 OFFCURVE",
"156 114 OFFCURVE",
"157 199 CURVE SMOOTH",
"160 498 LINE",
"82 498 LINE",
"79 190 LINE SMOOTH",
"78 66 OFFCURVE",
"134 -8 OFFCURVE",
"235 -8 CURVE SMOOTH"
);
}
);
width = 584;
},
{
background = {
paths = (
{
closed = 1;
nodes = (
"416 506 LINE",
"413 209 OFFCURVE",
"357 125 OFFCURVE",
"277 125 CURVE SMOOTH",
"229 125 OFFCURVE",
"208 165 OFFCURVE",
"209 236 CURVE SMOOTH",
"211 506 LINE",
"65 506 LINE",
"63 225 LINE SMOOTH",
"62 74 OFFCURVE",
"121 -10 OFFCURVE",
"238 -10 CURVE SMOOTH",
"349 -10 OFFCURVE",
"434 75 OFFCURVE",
"459 207 CURVE",
"425 177 LINE",
"415 -2 LINE",
"562 -2 LINE",
"562 506 LINE"
);
}
);
};
layerId = "014D4A40-7C7F-4023-B30E-1F55CE5EA091";
paths = (
{
closed = 1;
nodes = (
"349 -10 OFFCURVE",
"434 76 OFFCURVE",
"459 219 CURVE",
"426 199 LINE",
"415 0 LINE",
"557 0 LINE",
"557 508 LINE",
"416 508 LINE",
"413 209 OFFCURVE",
"357 126 OFFCURVE",
"277 126 CURVE SMOOTH",
"229 126 OFFCURVE",
"208 165 OFFCURVE",
"209 226 CURVE SMOOTH",
"211 508 LINE",
"65 508 LINE",
"63 215 LINE SMOOTH",
"62 74 OFFCURVE",
"121 -10 OFFCURVE",
"238 -10 CURVE SMOOTH"
);
}
);
width = 626;
}
);
leftMetricsKey = "=|n";
note = u;
rightMetricsKey = "=|n";
unicode = 0075;
},
{
color = 3;
glyphname = v;
lastChange = "2019-03-25 15:25:21 +0000";
layers = (
{
background = {
paths = (
{
closed = 1;
nodes = (
"254 24 LINE",
"282 23 LINE",
"134 498 LINE",
"48 498 LINE",
"207 0 LINE",
"324 0 LINE",
"516 498 LINE",
"433 498 LINE"
);
}
);
};
layerId = "A3B50665-EA37-4AC6-885C-1233CA61B6BD";
paths = (
{
closed = 1;
nodes = (
"255 24 LINE",
"282 23 LINE",
"134 498 LINE",
"48 498 LINE",
"209 0 LINE",
"322 0 LINE",
"516 498 LINE",
"436 498 LINE"
);
}
);
width = 534;
},
{
background = {
paths = (
{
closed = 1;
nodes = (
"257 35 LINE",
"312 35 LINE",
"173 508 LINE",
"15 508 LINE",
"174 0 LINE",
"384 0 LINE",
"570 508 LINE",
"425 508 LINE"
);
}
);
};
guideLines = (
{
angle = 68.7799;
position = "{325, 235}";
}
);
layerId = "014D4A40-7C7F-4023-B30E-1F55CE5EA091";
paths = (
{
closed = 1;
nodes = (
"257 35 LINE",
"312 35 LINE",
"173 508 LINE",
"15 508 LINE",
"175 0 LINE",
"383 0 LINE",
"570 508 LINE",
"425 508 LINE"
);
}
);
width = 556;
}
);
unicode = 0076;
},
{
color = 3;
glyphname = w;
lastChange = "2019-03-25 15:25:41 +0000";
layers = (
{
background = {
paths = (
{
closed = 1;
nodes = (
"602 24 LINE",
"641 23 LINE",
"497 497 LINE",
"413 497 LINE",
"238 24 LINE",
"280 23 LINE",
"138 497 LINE",
"52 497 LINE",
"208 0 LINE",
"304 0 LINE",
"464 427 LINE",
"441 427 LINE",
"573 0 LINE",
"669 0 LINE",
"854 497 LINE",
"771 497 LINE"
);
}
);
};
layerId = "A3B50665-EA37-4AC6-885C-1233CA61B6BD";
paths = (
{
closed = 1;
nodes = (
"603 24 LINE",
"639 23 LINE",
"495 497 LINE",
"413 497 LINE",
"238 24 LINE",
"277 23 LINE",
"135 497 LINE",
"52 497 LINE",
"209 0 LINE",
"303 0 LINE",
"464 427 LINE",
"441 427 LINE",
"574 0 LINE",
"668 0 LINE",
"854 497 LINE",
"772 497 LINE"
);
}
);
width = 879;
},
{
background = {
paths = (
{
closed = 1;
nodes = (
"613 71 LINE",
"653 70 LINE",
"531 508 LINE",
"391 508 LINE",
"248 71 LINE",
"290 70 LINE",
"166 508 LINE",
"17 508 LINE",
"175 0 LINE",
"351 0 LINE",
"466 339 LINE",
"450 339 LINE",
"547 0 LINE",
"723 0 LINE",
"898 508 LINE",
"756 508 LINE"
);
}
);
};
layerId = "014D4A40-7C7F-4023-B30E-1F55CE5EA091";
paths = (
{
closed = 1;
nodes = (
"605 46 LINE",
"660 46 LINE",
"531 508 LINE",
"391 508 LINE",
"240 46 LINE",
"297 46 LINE",
"166 508 LINE",
"17 508 LINE",
"176 0 LINE",
"350 0 LINE",
"466 339 LINE",
"450 339 LINE",
"548 0 LINE",
"722 0 LINE",
"898 508 LINE",
"756 508 LINE"
);
}
);
width = 892;
}
);
unicode = 0077;
},
{
color = 3;
glyphname = x;
lastChange = "2019-03-12 20:50:32 +0000";
layers = (
{
background = {
paths = (
{
closed = 1;
nodes = (
"468 0 LINE",
"112 498 LINE",
"19 498 LINE",
"374 0 LINE"
);
},
{
closed = 1;
nodes = (
"458 498 LINE",
"372 498 LINE",
"9 0 LINE",
"95 0 LINE"
);
}
);
};
layerId = "A3B50665-EA37-4AC6-885C-1233CA61B6BD";
paths = (
{
closed = 1;
nodes = (
"471 0 LINE",
"288 258 LINE",
"245 316 LINE",
"117 498 LINE",
"24 498 LINE",
"199 253 LINE",
"242 195 LINE",
"377 0 LINE"
);
},
{
closed = 1;
nodes = (
"242 195 LINE",
"288 258 LINE",
"463 498 LINE",
"377 498 LINE",
"245 316 LINE",
"199 253 LINE",
"17 0 LINE",
"103 0 LINE"
);
}
);
width = 488;
},
{
background = {
paths = (
{
closed = 1;
nodes = (
"1252 0 LINE",
"888 508 LINE",
"711 508 LINE",
"1074 0 LINE"
);
},
{
closed = 1;
nodes = (
"1240 508 LINE",
"1071 508 LINE",
"696 0 LINE",
"866 0 LINE"
);
},
{
closed = 1;
nodes = (
"171 0 LINE",
"171 70 LINE SMOOTH",
"171 314 OFFCURVE",
"244 381 OFFCURVE",
"311 381 CURVE SMOOTH",
"364 381 OFFCURVE",
"386 341 OFFCURVE",
"386 270 CURVE SMOOTH",
"386 0 LINE",
"532 0 LINE",
"532 281 LINE SMOOTH",
"532 432 OFFCURVE",
"473 516 OFFCURVE",
"350 516 CURVE SMOOTH",
"256 516 OFFCURVE",
"160 449 OFFCURVE",
"138 321 CURVE",
"166 349 LINE",
"169 392 OFFCURVE",
"172 435 OFFCURVE",
"172 478 CURVE SMOOTH",
"172 508 LINE",
"26 508 LINE",
"26 0 LINE"
);
}
);
};
layerId = "014D4A40-7C7F-4023-B30E-1F55CE5EA091";
paths = (
{
closed = 1;
nodes = (
"547 0 LINE",
"360 266 LINE",
"278 381 LINE",
"188 508 LINE",
"11 508 LINE",
"189 260 LINE",
"272 145 LINE",
"369 0 LINE"
);
},
{
closed = 1;
nodes = (
"272 145 LINE",
"360 266 LINE",
"539 508 LINE",
"370 508 LINE",
"278 381 LINE",
"189 260 LINE",
"1 0 LINE",
"170 0 LINE"
);
}
);
width = 548;
}
);
unicode = 0078;
},
{
color = 4;
glyphname = y;
lastChange = "2019-03-20 10:07:15 +0000";
layers = (
{
background = {
paths = (
{
closed = 1;
nodes = (
"344 2 OFFCURVE",
"422 81 OFFCURVE",
"448 213 CURVE",
"435 178 LINE",
"430 0 LINE",
"506 0 LINE",
"506 498 LINE",
"431 498 LINE",
"430 179 OFFCURVE",
"357 76 OFFCURVE",
"255 76 CURVE SMOOTH",
"186 76 OFFCURVE",
"156 124 OFFCURVE",
"157 207 CURVE SMOOTH",
"160 498 LINE",
"82 498 LINE",
"79 196 LINE SMOOTH",
"78 74 OFFCURVE",
"135 2 OFFCURVE",
"237 2 CURVE SMOOTH"
);
}
);
};
layerId = "A3B50665-EA37-4AC6-885C-1233CA61B6BD";
paths = (
{
closed = 1;
nodes = (
"421 -210 OFFCURVE",
"506 -117 OFFCURVE",
"506 69 CURVE SMOOTH",
"506 498 LINE",
"431 498 LINE",
"430 179 OFFCURVE",
"357 76 OFFCURVE",
"255 76 CURVE SMOOTH",
"186 76 OFFCURVE",
"156 124 OFFCURVE",
"157 207 CURVE SMOOTH",
"160 498 LINE",
"82 498 LINE",
"79 196 LINE SMOOTH",
"78 74 OFFCURVE",
"135 2 OFFCURVE",
"237 2 CURVE SMOOTH",
"344 2 OFFCURVE",
"422 81 OFFCURVE",
"447 223 CURVE",
"436 218 LINE",
"432 58 LINE SMOOTH",
"429 -80 OFFCURVE",
"381 -139 OFFCURVE",
"254 -139 CURVE SMOOTH",
"205 -139 OFFCURVE",
"152 -127 OFFCURVE",
"108 -105 CURVE",
"87 -175 LINE",
"130 -199 OFFCURVE",
"195 -210 OFFCURVE",
"252 -210 CURVE SMOOTH"
);
}
);
width = 589;
},
{
background = {
paths = (
{
closed = 1;
nodes = (
"352 9 OFFCURVE",
"438 91 OFFCURVE",
"463 218 CURVE",
"429 179 LINE",
"419 0 LINE",
"561 0 LINE",
"561 508 LINE",
"420 508 LINE",
"417 224 OFFCURVE",
"360 145 OFFCURVE",
"278 145 CURVE SMOOTH",
"230 145 OFFCURVE",
"209 182 OFFCURVE",
"209 240 CURVE SMOOTH",
"211 508 LINE",
"65 508 LINE",
"63 226 LINE SMOOTH",
"62 90 OFFCURVE",
"121 9 OFFCURVE",
"240 9 CURVE SMOOTH"
);
}
);
};
guideLines = (
{
angle = 68.7799;
position = "{328, 235}";
}
);
layerId = "014D4A40-7C7F-4023-B30E-1F55CE5EA091";
paths = (
{
closed = 1;
nodes = (
"444 -210 OFFCURVE",
"561 -114 OFFCURVE",
"561 96 CURVE SMOOTH",
"561 508 LINE",
"420 508 LINE",
"417 224 OFFCURVE",
"360 145 OFFCURVE",
"278 145 CURVE SMOOTH",
"230 145 OFFCURVE",
"209 182 OFFCURVE",
"209 240 CURVE SMOOTH",
"211 508 LINE",
"65 508 LINE",
"63 226 LINE SMOOTH",
"62 90 OFFCURVE",
"121 9 OFFCURVE",
"240 9 CURVE SMOOTH",
"352 9 OFFCURVE",
"438 93 OFFCURVE",
"463 230 CURVE",
"430 208 LINE",
"422 79 LINE SMOOTH",
"415 -32 OFFCURVE",
"374 -82 OFFCURVE",
"261 -82 CURVE SMOOTH",
"197 -82 OFFCURVE",
"147 -67 OFFCURVE",
"102 -44 CURVE",
"67 -169 LINE",
"112 -198 OFFCURVE",
"192 -210 OFFCURVE",
"253 -210 CURVE SMOOTH"
);
}
);
width = 630;
}
);
leftMetricsKey = u;
rightMetricsKey = u;
unicode = 0079;
},
{
color = 3;
glyphname = z;
lastChange = "2019-03-12 20:51:18 +0000";
layers = (
{
layerId = "A3B50665-EA37-4AC6-885C-1233CA61B6BD";
paths = (
{
closed = 1;
nodes = (
"429 0 LINE",
"429 67 LINE",
"123 67 LINE",
"124 27 LINE",
"431 443 LINE",
"431 498 LINE",
"66 498 LINE",
"66 433 LINE",
"365 433 LINE",
"361 471 LINE",
"54 55 LINE",
"54 0 LINE"
);
}
);
width = 480;
},
{
background = {
paths = (
{
closed = 1;
nodes = (
"464 0 LINE",
"464 121 LINE",
"192 121 LINE",
"197 84 LINE",
"464 403 LINE",
"464 508 LINE",
"57 508 LINE",
"57 387 LINE",
"319 387 LINE",
"311 424 LINE",
"49 110 LINE",
"49 0 LINE"
);
}
);
};
layerId = "014D4A40-7C7F-4023-B30E-1F55CE5EA091";
paths = (
{
closed = 1;
nodes = (
"464 0 LINE",
"464 121 LINE",
"194 121 LINE",
"202 84 LINE",
"464 403 LINE",
"464 508 LINE",
"57 508 LINE",
"57 387 LINE",
"317 387 LINE",
"311 424 LINE",
"49 110 LINE",
"49 0 LINE"
);
}
);
width = 501;
}
);
unicode = 007A;
},
{
color = 3;
glyphname = f.ss01;
lastChange = "2019-03-14 10:23:03 +0000";
layers = (
{
background = {
paths = (
{
closed = 1;
nodes = (
"185 0 LINE",
"185 454 LINE",
"184 489 LINE",
"184 540 LINE SMOOTH",
"184 636 OFFCURVE",
"225 683 OFFCURVE",
"293 683 CURVE SMOOTH",
"346 683 OFFCURVE",
"380 655 OFFCURVE",
"384 610 CURVE",
"449 618 LINE",
"442 702 OFFCURVE",
"387 750 OFFCURVE",
"294 750 CURVE SMOOTH",
"182 750 OFFCURVE",
"107 670 OFFCURVE",
"107 532 CURVE SMOOTH",
"107 0 LINE"
);
},
{
closed = 1;
nodes = (
"8 432 LINE",
"352 432 LINE",
"352 498 LINE",
"8 498 LINE"
);
}
);
};
layerId = "A3B50665-EA37-4AC6-885C-1233CA61B6BD";
paths = (
{
closed = 1;
nodes = (
"185 0 LINE",
"185 454 LINE",
"184 489 LINE",
"184 540 LINE SMOOTH",
"184 636 OFFCURVE",
"225 683 OFFCURVE",
"293 683 CURVE SMOOTH",
"316 683 OFFCURVE",
"336 678 OFFCURVE",
"351 668 CURVE",
"382 727 LINE",
"359 743 OFFCURVE",
"329 750 OFFCURVE",
"294 750 CURVE SMOOTH",
"182 750 OFFCURVE",
"107 670 OFFCURVE",
"107 532 CURVE SMOOTH",
"107 0 LINE"
);
},
{
closed = 1;
nodes = (
"352 432 LINE",
"352 498 LINE",
"8 498 LINE",
"8 432 LINE"
);
}
);
width = 360;
},
{
background = {
paths = (
{
closed = 1;
nodes = (
"239 0 LINE",
"239 419 LINE",
"237 487 LINE",
"237 539 LINE SMOOTH",
"237 596 OFFCURVE",
"267 627 OFFCURVE",
"315 627 CURVE SMOOTH",
"347 627 OFFCURVE",
"370 611 OFFCURVE",
"374 582 CURVE",
"500 597 LINE",
"485 701 OFFCURVE",
"423 750 OFFCURVE",
"317 750 CURVE SMOOTH",
"187 750 OFFCURVE",
"93 662 OFFCURVE",
"93 525 CURVE SMOOTH",
"93 0 LINE"
);
},
{
closed = 1;
nodes = (
"-2 389 LINE",
"377 389 LINE",
"377 510 LINE",
"-2 510 LINE"
);
}
);
};
layerId = "014D4A40-7C7F-4023-B30E-1F55CE5EA091";
paths = (
{
closed = 1;
nodes = (
"239 0 LINE",
"239 419 LINE",
"237 487 LINE",
"237 539 LINE SMOOTH",
"237 596 OFFCURVE",
"267 627 OFFCURVE",
"315 627 CURVE SMOOTH",
"334 627 OFFCURVE",
"353 621 OFFCURVE",
"365 614 CURVE",
"427 718 LINE",
"402 739 OFFCURVE",
"362 750 OFFCURVE",
"317 750 CURVE SMOOTH",
"187 750 OFFCURVE",
"93 662 OFFCURVE",
"93 525 CURVE SMOOTH",
"93 0 LINE"
);
},
{
closed = 1;
nodes = (
"377 389 LINE",
"377 510 LINE",
"-2 510 LINE",
"-2 389 LINE"
);
}
);
width = 393;
}
);
leftMetricsKey = f;
widthMetricsKey = f;
},
{
color = 3;
export = 0;
glyphname = l.ss01;
lastChange = "2019-03-20 14:36:05 +0000";
layers = (
{
background = {
paths = (
{
closed = 1;
nodes = (
"244 -8 OFFCURVE",
"276 2 OFFCURVE",
"296 22 CURVE",
"264 79 LINE",
"253 72 OFFCURVE",
"238 62 OFFCURVE",
"217 62 CURVE SMOOTH",
"182 62 OFFCURVE",
"161 87 OFFCURVE",
"161 133 CURVE SMOOTH",
"161 710 LINE",
"83 710 LINE",
"83 130 LINE SMOOTH",
"83 42 OFFCURVE",
"129 -8 OFFCURVE",
"208 -8 CURVE SMOOTH"
);
}
);
};
layerId = "A3B50665-EA37-4AC6-885C-1233CA61B6BD";
paths = (
{
closed = 1;
nodes = (
"161 0 LINE",
"161 740 LINE",
"83 740 LINE",
"83 0 LINE"
);
}
);
width = 244;
},
{
background = {
paths = (
{
closed = 1;
nodes = (
"868 -10 OFFCURVE",
"911 2 OFFCURVE",
"932 18 CURVE",
"898 129 LINE",
"888 122 OFFCURVE",
"874 117 OFFCURVE",
"858 117 CURVE SMOOTH",
"828 117 OFFCURVE",
"815 137 OFFCURVE",
"815 162 CURVE SMOOTH",
"815 710 LINE",
"669 709 LINE",
"669 139 LINE SMOOTH",
"669 51 OFFCURVE",
"725 -10 OFFCURVE",
"824 -10 CURVE SMOOTH"
);
},
{
closed = 1;
nodes = (
"277 -8 OFFCURVE",
"311 2 OFFCURVE",
"329 22 CURVE",
"308 76 LINE",
"297 69 OFFCURVE",
"276 59 OFFCURVE",
"255 59 CURVE SMOOTH",
"220 59 OFFCURVE",
"199 85 OFFCURVE",
"199 134 CURVE SMOOTH",
"199 710 LINE",
"121 710 LINE",
"121 124 LINE SMOOTH",
"121 42 OFFCURVE",
"162 -8 OFFCURVE",
"246 -8 CURVE SMOOTH"
);
}
);
};
layerId = "014D4A40-7C7F-4023-B30E-1F55CE5EA091";
paths = (
{
closed = 1;
nodes = (
"215 0 LINE",
"215 740 LINE",
"69 740 LINE",
"69 0 LINE"
);
}
);
width = 284;
}
);
leftMetricsKey = h;
note = l;
rightMetricsKey = "=|";
},
{
color = 9;
glyphname = Delta;
lastChange = "2019-03-28 09:51:15 +0000";
layers = (
{
layerId = "A3B50665-EA37-4AC6-885C-1233CA61B6BD";
paths = (
{
closed = 1;
nodes = (
"97 0 LINE",
"318 644 LINE",
"294 644 LINE",
"503 0 LINE",
"585 0 LINE",
"342 710 LINE",
"271 710 LINE",
"15 0 LINE"
);
},
{
closed = 1;
nodes = (
"523 0 LINE",
"505 69 LINE",
"91 69 LINE",
"75 0 LINE"
);
}
);
width = 600;
},
{
layerId = "014D4A40-7C7F-4023-B30E-1F55CE5EA091";
paths = (
{
closed = 1;
nodes = (
"163 0 LINE",
"333 599 LINE",
"277 601 LINE",
"439 0 LINE",
"586 0 LINE",
"372 710 LINE",
"241 710 LINE",
"14 0 LINE"
);
},
{
closed = 1;
nodes = (
"478 0 LINE",
"447 130 LINE",
"157 130 LINE",
"124 0 LINE"
);
}
);
width = 600;
}
);
unicode = 0394;
},
{
color = 3;
glyphname = Omega;
lastChange = "2019-03-25 11:28:46 +0000";
layers = (
{
background = {
paths = (
{
closed = 1;
nodes = (
"229 720 OFFCURVE",
"85 568 OFFCURVE",
"85 362 CURVE SMOOTH",
"85 229 OFFCURVE",
"139 123 OFFCURVE",
"241 52 CURVE",
"237 68 LINE",
"60 68 LINE",
"60 0 LINE",
"341 0 LINE",
"341 45 LINE",
"227 115 OFFCURVE",
"168 223 OFFCURVE",
"168 364 CURVE SMOOTH",
"168 527 OFFCURVE",
"274 645 OFFCURVE",
"421 645 CURVE SMOOTH",
"557 645 OFFCURVE",
"650 542 OFFCURVE",
"650 391 CURVE SMOOTH",
"650 239 OFFCURVE",
"593 125 OFFCURVE",
"477 45 CURVE",
"477 0 LINE",
"758 0 LINE",
"758 68 LINE",
"570 68 LINE",
"570 52 LINE",
"673 125 OFFCURVE",
"733 249 OFFCURVE",
"733 389 CURVE SMOOTH",
"733 583 OFFCURVE",
"604 720 OFFCURVE",
"423 720 CURVE SMOOTH"
);
}
);
};
layerId = "A3B50665-EA37-4AC6-885C-1233CA61B6BD";
paths = (
{
closed = 1;
nodes = (
"230 720 OFFCURVE",
"85 568 OFFCURVE",
"85 362 CURVE SMOOTH",
"85 229 OFFCURVE",
"139 123 OFFCURVE",
"246 52 CURVE",
"242 65 LINE",
"60 65 LINE",
"60 0 LINE",
"341 0 LINE",
"341 45 LINE",
"227 115 OFFCURVE",
"168 223 OFFCURVE",
"168 364 CURVE SMOOTH",
"168 527 OFFCURVE",
"274 645 OFFCURVE",
"421 645 CURVE SMOOTH",
"557 645 OFFCURVE",
"650 542 OFFCURVE",
"650 391 CURVE SMOOTH",
"650 239 OFFCURVE",
"593 125 OFFCURVE",
"477 45 CURVE",
"477 0 LINE",
"758 0 LINE",
"758 65 LINE",
"565 65 LINE",
"565 52 LINE",
"673 125 OFFCURVE",
"733 249 OFFCURVE",
"733 389 CURVE SMOOTH",
"733 583 OFFCURVE",
"607 720 OFFCURVE",
"423 720 CURVE SMOOTH"
);
}
);
width = 818;
},
{
background = {
paths = (
{
closed = 1;
nodes = (
"211 720 OFFCURVE",
"54 567 OFFCURVE",
"54 362 CURVE SMOOTH",
"54 250 OFFCURVE",
"110 151 OFFCURVE",
"209 88 CURVE",
"209 130 LINE",
"38 130 LINE",
"38 0 LINE",
"353 0 LINE",
"353 96 LINE",
"262 168 OFFCURVE",
"213 258 OFFCURVE",
"213 355 CURVE SMOOTH",
"213 487 OFFCURVE",
"299 582 OFFCURVE",
"417 582 CURVE SMOOTH",
"526 582 OFFCURVE",
"601 498 OFFCURVE",
"601 376 CURVE SMOOTH",
"601 269 OFFCURVE",
"556 178 OFFCURVE",
"462 96 CURVE",
"462 0 LINE",
"777 0 LINE",
"777 130 LINE",
"594 130 LINE",
"594 84 LINE",
"707 164 OFFCURVE",
"760 261 OFFCURVE",
"760 388 CURVE SMOOTH",
"760 583 OFFCURVE",
"620 720 OFFCURVE",
"423 720 CURVE SMOOTH"
);
}
);
};
layerId = "014D4A40-7C7F-4023-B30E-1F55CE5EA091";
paths = (
{
closed = 1;
nodes = (
"216 720 OFFCURVE",
"59 567 OFFCURVE",
"59 362 CURVE SMOOTH",
"59 250 OFFCURVE",
"111 151 OFFCURVE",
"220 88 CURVE",
"214 123 LINE",
"34 123 LINE",
"34 0 LINE",
"358 0 LINE",
"358 96 LINE",
"267 158 OFFCURVE",
"218 238 OFFCURVE",
"218 355 CURVE SMOOTH",
"218 487 OFFCURVE",
"304 582 OFFCURVE",
"417 582 CURVE SMOOTH",
"521 582 OFFCURVE",
"596 498 OFFCURVE",
"596 376 CURVE SMOOTH",
"596 249 OFFCURVE",
"551 168 OFFCURVE",
"457 96 CURVE",
"457 0 LINE",
"780 0 LINE",
"780 123 LINE",
"589 123 LINE",
"581 84 LINE",
"709 169 OFFCURVE",
"755 264 OFFCURVE",
"755 388 CURVE SMOOTH",
"755 583 OFFCURVE",
"615 720 OFFCURVE",
"423 720 CURVE SMOOTH"
);
}
);
width = 814;
}
);
unicode = 03A9;
},
{
color = 3;
glyphname = pi;
lastChange = "2019-03-25 13:08:28 +0000";
layers = (
{
layerId = "A3B50665-EA37-4AC6-885C-1233CA61B6BD";
paths = (
{
closed = 1;
nodes = (
"200 122 OFFCURVE",
"221 271 OFFCURVE",
"222 469 CURVE",
"144 469 LINE",
"144 283 OFFCURVE",
"118 124 OFFCURVE",
"83 0 CURVE",
"167 0 LINE"
);
},
{
closed = 1;
nodes = (
"569 432 LINE",
"569 498 LINE",
"32 498 LINE",
"32 432 LINE"
);
},
{
closed = 1;
nodes = (
"577 -8 OFFCURVE",
"614 4 OFFCURVE",
"638 25 CURVE",
"613 86 LINE",
"589 68 OFFCURVE",
"569 61 OFFCURVE",
"542 61 CURVE SMOOTH",
"488 61 OFFCURVE",
"457 94 OFFCURVE",
"457 151 CURVE SMOOTH",
"457 469 LINE",
"380 469 LINE",
"380 145 LINE SMOOTH",
"380 48 OFFCURVE",
"437 -8 OFFCURVE",
"536 -8 CURVE SMOOTH"
);
}
);
width = 649;
},
{
background = {
paths = (
{
closed = 1;
nodes = (
"268 171 OFFCURVE",
"277 303 OFFCURVE",
"277 452 CURVE",
"126 452 LINE",
"126 293 OFFCURVE",
"109 163 OFFCURVE",
"62 -1 CURVE",
"223 0 LINE"
);
},
{
closed = 1;
nodes = (
"627 390 LINE",
"627 507 LINE",
"11 507 LINE",
"11 390 LINE"
);
},
{
closed = 1;
nodes = (
"634 -10 OFFCURVE",
"688 5 OFFCURVE",
"720 32 CURVE",
"678 143 LINE",
"648 122 OFFCURVE",
"622 116 OFFCURVE",
"593 116 CURVE SMOOTH",
"541 116 OFFCURVE",
"513 145 OFFCURVE",
"513 205 CURVE SMOOTH",
"513 452 LINE",
"369 452 LINE",
"369 189 LINE SMOOTH",
"369 66 OFFCURVE",
"445 -10 OFFCURVE",
"569 -10 CURVE SMOOTH"
);
}
);
};
layerId = "014D4A40-7C7F-4023-B30E-1F55CE5EA091";
paths = (
{
closed = 1;
nodes = (
"254 146 OFFCURVE",
"269 274 OFFCURVE",
"269 452 CURVE",
"126 452 LINE",
"126 287 OFFCURVE",
"108 157 OFFCURVE",
"62 -1 CURVE",
"215 0 LINE"
);
},
{
closed = 1;
nodes = (
"627 386 LINE",
"627 507 LINE",
"11 507 LINE",
"11 386 LINE"
);
},
{
closed = 1;
nodes = (
"611 -10 OFFCURVE",
"661 4 OFFCURVE",
"690 29 CURVE",
"648 138 LINE",
"625 122 OFFCURVE",
"605 116 OFFCURVE",
"578 116 CURVE SMOOTH",
"535 116 OFFCURVE",
"513 141 OFFCURVE",
"513 190 CURVE SMOOTH",
"513 452 LINE",
"369 452 LINE",
"369 174 LINE SMOOTH",
"369 60 OFFCURVE",
"439 -10 OFFCURVE",
"552 -10 CURVE SMOOTH"
);
}
);
width = 703;
}
);
rightMetricsKey = t;
unicode = 03C0;
},
{
color = 3;
glyphname = zero;
lastChange = "2019-03-14 23:09:56 +0000";
layers = (
{
background = {
paths = (
{
closed = 1;
nodes = (
"445 -8 OFFCURVE",
"549 129 OFFCURVE",
"549 369 CURVE SMOOTH",
"549 590 OFFCURVE",
"456 720 OFFCURVE",
"311 720 CURVE SMOOTH",
"156 720 OFFCURVE",
"51 574 OFFCURVE",
"51 342 CURVE SMOOTH",
"51 110 OFFCURVE",
"143 -8 OFFCURVE",
"297 -8 CURVE SMOOTH"
);
},
{
closed = 1;
nodes = (
"193 65 OFFCURVE",
"131 154 OFFCURVE",
"131 342 CURVE SMOOTH",
"131 536 OFFCURVE",
"204 648 OFFCURVE",
"311 648 CURVE SMOOTH",
"409 648 OFFCURVE",
"470 550 OFFCURVE",
"470 371 CURVE SMOOTH",
"470 167 OFFCURVE",
"400 65 OFFCURVE",
"297 65 CURVE SMOOTH"
);
}
);
};
layerId = "A3B50665-EA37-4AC6-885C-1233CA61B6BD";
paths = (
{
closed = 1;
nodes = (
"445 -8 OFFCURVE",
"547 134 OFFCURVE",
"547 369 CURVE SMOOTH",
"547 593 OFFCURVE",
"456 720 OFFCURVE",
"311 720 CURVE SMOOTH",
"156 720 OFFCURVE",
"53 569 OFFCURVE",
"53 342 CURVE SMOOTH",
"53 107 OFFCURVE",
"143 -8 OFFCURVE",
"297 -8 CURVE SMOOTH"
);
},
{
closed = 1;
nodes = (
"193 65 OFFCURVE",
"133 154 OFFCURVE",
"133 342 CURVE SMOOTH",
"133 536 OFFCURVE",
"204 648 OFFCURVE",
"311 648 CURVE SMOOTH",
"409 648 OFFCURVE",
"468 550 OFFCURVE",
"468 371 CURVE SMOOTH",
"468 167 OFFCURVE",
"400 65 OFFCURVE",
"297 65 CURVE SMOOTH"
);
}
);
width = 600;
},
{
background = {
paths = (
{
closed = 1;
nodes = (
"466 -8 OFFCURVE",
"567 137 OFFCURVE",
"567 369 CURVE SMOOTH",
"567 589 OFFCURVE",
"472 720 OFFCURVE",
"312 720 CURVE SMOOTH",
"139 720 OFFCURVE",
"33 577 OFFCURVE",
"33 342 CURVE SMOOTH",
"33 111 OFFCURVE",
"128 -12 OFFCURVE",
"303 -10 CURVE SMOOTH"
);
},
{
closed = 1;
nodes = (
"222 122 OFFCURVE",
"185 194 OFFCURVE",
"185 345 CURVE SMOOTH",
"185 499 OFFCURVE",
"230 589 OFFCURVE",
"308 589 CURVE SMOOTH",
"379 589 OFFCURVE",
"416 513 OFFCURVE",
"416 368 CURVE SMOOTH",
"416 208 OFFCURVE",
"375 122 OFFCURVE",
"299 122 CURVE SMOOTH"
);
}
);
};
layerId = "014D4A40-7C7F-4023-B30E-1F55CE5EA091";
paths = (
{
closed = 1;
nodes = (
"466 -8 OFFCURVE",
"565 147 OFFCURVE",
"565 369 CURVE SMOOTH",
"565 599 OFFCURVE",
"472 720 OFFCURVE",
"312 720 CURVE SMOOTH",
"139 720 OFFCURVE",
"35 567 OFFCURVE",
"35 342 CURVE SMOOTH",
"35 101 OFFCURVE",
"128 -12 OFFCURVE",
"303 -10 CURVE SMOOTH"
);
},
{
closed = 1;
nodes = (
"222 122 OFFCURVE",
"187 194 OFFCURVE",
"187 345 CURVE SMOOTH",
"187 499 OFFCURVE",
"230 589 OFFCURVE",
"308 589 CURVE SMOOTH",
"379 589 OFFCURVE",
"414 513 OFFCURVE",
"414 368 CURVE SMOOTH",
"414 208 OFFCURVE",
"375 122 OFFCURVE",
"299 122 CURVE SMOOTH"
);
}
);
width = 600;
}
);
leftKerningGroup = zero;
rightKerningGroup = zero;
unicode = 0030;
},
{
color = 3;
glyphname = one;
lastChange = "2019-03-28 11:32:13 +0000";
layers = (
{
background = {
paths = (
{
closed = 1;
nodes = (
"366 36 LINE",
"366 712 LINE",
"320 712 LINE",
"140 597 LINE",
"140 519 LINE",
"333 642 LINE",
"286 667 LINE",
"286 36 LINE"
);
},
{
closed = 1;
nodes = (
"523 0 LINE",
"523 67 LINE",
"129 67 LINE",
"129 0 LINE"
);
}
);
};
layerId = "A3B50665-EA37-4AC6-885C-1233CA61B6BD";
paths = (
{
closed = 1;
nodes = (
"363 37 LINE",
"363 710 LINE",
"318 710 LINE",
"102 563 LINE",
"140 507 LINE",
"331 635 LINE",
"283 635 LINE",
"283 37 LINE"
);
},
{
closed = 1;
nodes = (
"517 0 LINE",
"517 67 LINE",
"129 67 LINE",
"129 0 LINE"
);
}
);
width = 600;
},
{
background = {
paths = (
{
closed = 1;
nodes = (
"1113 75 LINE",
"1113 712 LINE",
"1018 712 LINE",
"807 589 LINE",
"807 448 LINE",
"1027 577 LINE",
"951 583 LINE",
"951 75 LINE"
);
},
{
closed = 1;
nodes = (
"1267 0 LINE",
"1267 130 LINE",
"797 130 LINE",
"797 0 LINE"
);
},
{
closed = 1;
nodes = (
"367 37 LINE",
"367 710 LINE",
"322 710 LINE",
"106 563 LINE",
"144 507 LINE",
"335 635 LINE",
"287 665 LINE",
"287 37 LINE"
);
},
{
closed = 1;
nodes = (
"527 0 LINE",
"527 66 LINE",
"133 66 LINE",
"133 0 LINE"
);
}
);
};
layerId = "014D4A40-7C7F-4023-B30E-1F55CE5EA091";
paths = (
{
closed = 1;
nodes = (
"407 75 LINE",
"407 710 LINE",
"322 710 LINE",
"82 547 LINE",
"153 441 LINE",
"345 573 LINE",
"257 573 LINE",
"257 75 LINE"
);
},
{
closed = 1;
nodes = (
"557 0 LINE",
"557 124 LINE",
"107 124 LINE",
"107 0 LINE"
);
}
);
width = 600;
}
);
leftKerningGroup = one;
rightKerningGroup = one;
unicode = 0031;
},
{
color = 3;
glyphname = two;
lastChange = "2019-03-28 12:13:59 +0000";
layers = (
{
background = {
paths = (
{
closed = 1;
nodes = (
"530 0 LINE",
"530 67 LINE",
"156 67 LINE",
"168 41 LINE",
"419 238 OFFCURVE",
"514 380 OFFCURVE",
"513 516 CURVE SMOOTH",
"512 649 OFFCURVE",
"419 720 OFFCURVE",
"297 720 CURVE SMOOTH",
"185 720 OFFCURVE",
"102 648 OFFCURVE",
"69 542 CURVE",
"135 514 LINE",
"165 601 OFFCURVE",
"214 646 OFFCURVE",
"295 646 CURVE SMOOTH",
"371 646 OFFCURVE",
"430 597 OFFCURVE",
"430 510 CURVE SMOOTH",
"430 405 OFFCURVE",
"360 273 OFFCURVE",
"96 54 CURVE",
"96 0 LINE"
);
}
);
};
layerId = "A3B50665-EA37-4AC6-885C-1233CA61B6BD";
paths = (
{
closed = 1;
nodes = (
"530 0 LINE",
"530 67 LINE",
"156 67 LINE",
"168 41 LINE",
"419 238 OFFCURVE",
"512 380 OFFCURVE",
"511 516 CURVE SMOOTH",
"510 649 OFFCURVE",
"422 720 OFFCURVE",
"304 720 CURVE SMOOTH",
"184 720 OFFCURVE",
"101 646 OFFCURVE",
"70 542 CURVE",
"132 511 LINE",
"161 601 OFFCURVE",
"215 646 OFFCURVE",
"300 646 CURVE SMOOTH",
"379 646 OFFCURVE",
"430 597 OFFCURVE",
"430 510 CURVE SMOOTH",
"430 405 OFFCURVE",
"360 273 OFFCURVE",
"96 54 CURVE",
"96 0 LINE"
);
}
);
width = 600;
},
{
background = {
paths = (
{
closed = 1;
nodes = (
"542 0 LINE",
"542 124 LINE",
"200 124 LINE",
"197 81 LINE",
"450 242 OFFCURVE",
"525 374 OFFCURVE",
"525 511 CURVE SMOOTH",
"525 638 OFFCURVE",
"441 720 OFFCURVE",
"300 720 CURVE SMOOTH",
"175 720 OFFCURVE",
"77 647 OFFCURVE",
"44 543 CURVE",
"157 484 LINE",
"173 547 OFFCURVE",
"217 587 OFFCURVE",
"283 587 CURVE SMOOTH",
"340 587 OFFCURVE",
"374 555 OFFCURVE",
"374 498 CURVE SMOOTH",
"374 398 OFFCURVE",
"285 259 OFFCURVE",
"67 102 CURVE",
"67 0 LINE"
);
}
);
};
guideLines = (
{
angle = 225.9674;
position = "{399, 274}";
},
{
angle = 90;
position = "{566, 419}";
}
);
layerId = "014D4A40-7C7F-4023-B30E-1F55CE5EA091";
paths = (
{
closed = 1;
nodes = (
"542 0 LINE",
"542 124 LINE",
"200 124 LINE",
"197 81 LINE",
"450 242 OFFCURVE",
"525 374 OFFCURVE",
"525 511 CURVE SMOOTH",
"525 638 OFFCURVE",
"441 720 OFFCURVE",
"300 720 CURVE SMOOTH",
"175 720 OFFCURVE",
"77 647 OFFCURVE",
"44 543 CURVE",
"154 484 LINE",
"175 547 OFFCURVE",
"219 587 OFFCURVE",
"283 587 CURVE SMOOTH",
"340 587 OFFCURVE",
"374 554 OFFCURVE",
"374 495 CURVE SMOOTH",
"374 397 OFFCURVE",
"285 259 OFFCURVE",
"67 102 CURVE",
"67 0 LINE"
);
}
);
width = 600;
}
);
leftKerningGroup = two;
rightKerningGroup = two;
unicode = 0032;
},
{
color = 3;
glyphname = three;
lastChange = "2019-03-28 12:21:51 +0000";
layers = (
{
background = {
paths = (
{
closed = 1;
nodes = (
"425 -8 OFFCURVE",
"525 70 OFFCURVE",
"525 196 CURVE SMOOTH",
"525 291 OFFCURVE",
"472 351 OFFCURVE",
"377 371 CURVE",
"374 361 LINE",
"459 383 OFFCURVE",
"512 450 OFFCURVE",
"512 537 CURVE SMOOTH",
"512 639 OFFCURVE",
"435 720 OFFCURVE",
"304 720 CURVE SMOOTH",
"184 720 OFFCURVE",
"101 646 OFFCURVE",
"70 542 CURVE",
"132 511 LINE",
"161 601 OFFCURVE",
"215 646 OFFCURVE",
"300 646 CURVE SMOOTH",
"381 646 OFFCURVE",
"431 600 OFFCURVE",
"431 532 CURVE SMOOTH",
"431 444 OFFCURVE",
"372 395 OFFCURVE",
"269 395 CURVE SMOOTH",
"244 395 LINE",
"244 328 LINE",
"285 328 LINE SMOOTH",
"379 328 OFFCURVE",
"444 286 OFFCURVE",
"444 199 CURVE SMOOTH",
"444 108 OFFCURVE",
"373 63 OFFCURVE",
"264 63 CURVE SMOOTH",
"201 63 OFFCURVE",
"141 82 OFFCURVE",
"97 112 CURVE",
"72 42 LINE",
"115 12 OFFCURVE",
"185 -8 OFFCURVE",
"262 -8 CURVE SMOOTH"
);
}
);
};
layerId = "A3B50665-EA37-4AC6-885C-1233CA61B6BD";
paths = (
{
closed = 1;
nodes = (
"427 -8 OFFCURVE",
"525 70 OFFCURVE",
"525 196 CURVE SMOOTH",
"525 291 OFFCURVE",
"471 351 OFFCURVE",
"375 371 CURVE",
"374 360 LINE",
"459 382 OFFCURVE",
"512 450 OFFCURVE",
"512 537 CURVE SMOOTH",
"512 639 OFFCURVE",
"435 720 OFFCURVE",
"304 720 CURVE SMOOTH",
"184 720 OFFCURVE",
"101 646 OFFCURVE",
"70 542 CURVE",
"132 511 LINE",
"161 601 OFFCURVE",
"215 646 OFFCURVE",
"301 646 CURVE SMOOTH",
"381 646 OFFCURVE",
"431 600 OFFCURVE",
"431 532 CURVE SMOOTH",
"431 444 OFFCURVE",
"372 396 OFFCURVE",
"269 396 CURVE SMOOTH",
"244 396 LINE",
"244 327 LINE",
"285 327 LINE SMOOTH",
"379 327 OFFCURVE",
"444 286 OFFCURVE",
"444 199 CURVE SMOOTH",
"444 108 OFFCURVE",
"373 63 OFFCURVE",
"274 63 CURVE SMOOTH",
"201 63 OFFCURVE",
"140 82 OFFCURVE",
"96 112 CURVE",
"72 42 LINE",
"115 12 OFFCURVE",
"187 -8 OFFCURVE",
"267 -8 CURVE SMOOTH"
);
}
);
width = 600;
},
{
background = {
paths = (
{
closed = 1;
nodes = (
"427 -10 OFFCURVE",
"540 81 OFFCURVE",
"540 206 CURVE SMOOTH",
"540 294 OFFCURVE",
"491 349 OFFCURVE",
"398 370 CURVE",
"398 362 LINE",
"480 388 OFFCURVE",
"525 455 OFFCURVE",
"525 527 CURVE SMOOTH",
"525 644 OFFCURVE",
"435 720 OFFCURVE",
"300 720 CURVE SMOOTH",
"175 720 OFFCURVE",
"77 647 OFFCURVE",
"44 543 CURVE",
"154 484 LINE",
"175 547 OFFCURVE",
"219 587 OFFCURVE",
"283 587 CURVE SMOOTH",
"341 587 OFFCURVE",
"375 555 OFFCURVE",
"375 512 CURVE SMOOTH",
"375 459 OFFCURVE",
"337 423 OFFCURVE",
"252 423 CURVE SMOOTH",
"216 423 LINE",
"216 297 LINE",
"260 297 LINE SMOOTH",
"344 297 OFFCURVE",
"390 270 OFFCURVE",
"390 213 CURVE SMOOTH",
"390 159 OFFCURVE",
"349 120 OFFCURVE",
"260 120 CURVE SMOOTH",
"193 120 OFFCURVE",
"137 137 OFFCURVE",
"92 164 CURVE",
"56 37 LINE",
"103 4 OFFCURVE",
"188 -10 OFFCURVE",
"255 -10 CURVE SMOOTH"
);
}
);
};
layerId = "014D4A40-7C7F-4023-B30E-1F55CE5EA091";
paths = (
{
closed = 1;
nodes = (
"427 -10 OFFCURVE",
"540 81 OFFCURVE",
"540 206 CURVE SMOOTH",
"540 294 OFFCURVE",
"491 349 OFFCURVE",
"398 370 CURVE",
"400 362 LINE",
"482 388 OFFCURVE",
"525 455 OFFCURVE",
"525 527 CURVE SMOOTH",
"525 644 OFFCURVE",
"438 720 OFFCURVE",
"300 720 CURVE SMOOTH",
"175 720 OFFCURVE",
"77 647 OFFCURVE",
"44 543 CURVE",
"154 484 LINE",
"175 547 OFFCURVE",
"219 587 OFFCURVE",
"285 587 CURVE SMOOTH",
"345 587 OFFCURVE",
"375 555 OFFCURVE",
"375 512 CURVE SMOOTH",
"375 459 OFFCURVE",
"341 423 OFFCURVE",
"252 423 CURVE SMOOTH",
"216 423 LINE",
"216 297 LINE",
"260 297 LINE SMOOTH",
"344 297 OFFCURVE",
"390 270 OFFCURVE",
"390 213 CURVE SMOOTH",
"390 159 OFFCURVE",
"349 120 OFFCURVE",
"260 120 CURVE SMOOTH",
"193 120 OFFCURVE",
"137 137 OFFCURVE",
"92 164 CURVE",
"56 37 LINE",
"103 4 OFFCURVE",
"188 -10 OFFCURVE",
"253 -10 CURVE SMOOTH"
);
}
);
width = 600;
}
);
leftKerningGroup = three;
rightKerningGroup = three;
unicode = 0033;
},
{
color = 9;
glyphname = four;
lastChange = "2019-03-28 13:24:20 +0000";
layers = (
{
background = {
paths = (
{
closed = 1;
nodes = (
"458 0 LINE",
"458 712 LINE",
"393 712 LINE",
"50 216 LINE",
"50 156 LINE",
"566 156 LINE",
"566 222 LINE",
"105 222 LINE",
"104 181 LINE",
"404 613 LINE",
"379 613 LINE",
"379 0 LINE"
);
}
);
};
layerId = "A3B50665-EA37-4AC6-885C-1233CA61B6BD";
paths = (
{
closed = 1;
nodes = (
"459 0 LINE",
"459 712 LINE",
"404 712 LINE",
"50 261 LINE",
"50 206 LINE",
"559 206 LINE",
"559 272 LINE",
"105 272 LINE",
"116 247 LINE",
"404 613 LINE",
"380 613 LINE",
"380 0 LINE"
);
}
);
width = 600;
},
{
background = {
paths = (
{
closed = 1;
nodes = (
"487 0 LINE",
"487 712 LINE",
"357 712 LINE",
"32 248 LINE",
"32 128 LINE",
"583 128 LINE",
"583 253 LINE",
"152 253 LINE",
"152 212 LINE",
"360 512 LINE",
"328 512 LINE",
"328 0 LINE"
);
}
);
};
layerId = "014D4A40-7C7F-4023-B30E-1F55CE5EA091";
paths = (
{
closed = 1;
nodes = (
"487 0 LINE",
"487 712 LINE",
"382 712 LINE",
"32 275 LINE",
"32 170 LINE",
"587 170 LINE",
"587 292 LINE",
"152 292 LINE",
"158 254 LINE",
"367 517 LINE",
"339 512 LINE",
"339 0 LINE"
);
}
);
width = 600;
}
);
leftKerningGroup = four;
rightKerningGroup = four;
unicode = 0034;
},
{
color = 3;
glyphname = five;
lastChange = "2019-03-28 13:27:45 +0000";
layers = (
{
background = {
paths = (
{
closed = 1;
nodes = (
"427 -8 OFFCURVE",
"525 70 OFFCURVE",
"525 201 CURVE SMOOTH",
"525 316 OFFCURVE",
"433 397 OFFCURVE",
"258 403 CURVE SMOOTH",
"164 406 LINE",
"196 378 LINE",
"216 669 LINE",
"172 645 LINE",
"491 645 LINE",
"491 712 LINE",
"142 712 LINE",
"117 337 LINE",
"236 333 LINE SMOOTH",
"376 328 OFFCURVE",
"444 284 OFFCURVE",
"444 200 CURVE SMOOTH",
"444 109 OFFCURVE",
"373 63 OFFCURVE",
"274 63 CURVE SMOOTH",
"201 63 OFFCURVE",
"140 82 OFFCURVE",
"96 112 CURVE",
"72 42 LINE",
"115 12 OFFCURVE",
"187 -8 OFFCURVE",
"267 -8 CURVE SMOOTH"
);
}
);
};
guideLines = (
{
angle = -1.776;
position = "{168, 403}";
}
);
layerId = "A3B50665-EA37-4AC6-885C-1233CA61B6BD";
paths = (
{
closed = 1;
nodes = (
"427 -8 OFFCURVE",
"525 70 OFFCURVE",
"525 201 CURVE SMOOTH",
"525 316 OFFCURVE",
"437 398 OFFCURVE",
"238 403 CURVE SMOOTH",
"164 405 LINE",
"196 378 LINE",
"216 669 LINE",
"172 645 LINE",
"491 645 LINE",
"491 712 LINE",
"142 712 LINE",
"117 337 LINE",
"216 334 LINE SMOOTH",
"376 328 OFFCURVE",
"444 284 OFFCURVE",
"444 200 CURVE SMOOTH",
"444 108 OFFCURVE",
"373 63 OFFCURVE",
"274 63 CURVE SMOOTH",
"201 63 OFFCURVE",
"140 82 OFFCURVE",
"96 112 CURVE",
"72 42 LINE",
"115 12 OFFCURVE",
"187 -8 OFFCURVE",
"267 -8 CURVE SMOOTH"
);
}
);
width = 600;
},
{
background = {
paths = (
{
closed = 1;
nodes = (
"427 -10 OFFCURVE",
"540 81 OFFCURVE",
"540 206 CURVE SMOOTH",
"540 294 OFFCURVE",
"491 349 OFFCURVE",
"398 370 CURVE",
"400 362 LINE",
"482 388 OFFCURVE",
"525 455 OFFCURVE",
"525 527 CURVE SMOOTH",
"525 644 OFFCURVE",
"438 720 OFFCURVE",
"300 720 CURVE SMOOTH",
"175 720 OFFCURVE",
"77 647 OFFCURVE",
"44 543 CURVE",
"154 484 LINE",
"175 547 OFFCURVE",
"219 587 OFFCURVE",
"285 587 CURVE SMOOTH",
"345 587 OFFCURVE",
"375 555 OFFCURVE",
"375 512 CURVE SMOOTH",
"375 459 OFFCURVE",
"341 423 OFFCURVE",
"252 423 CURVE SMOOTH",
"216 423 LINE",
"216 297 LINE",
"260 297 LINE SMOOTH",
"344 297 OFFCURVE",
"390 270 OFFCURVE",
"390 213 CURVE SMOOTH",
"390 159 OFFCURVE",
"349 120 OFFCURVE",
"260 120 CURVE SMOOTH",
"193 120 OFFCURVE",
"137 137 OFFCURVE",
"92 164 CURVE",
"56 37 LINE",
"103 4 OFFCURVE",
"188 -10 OFFCURVE",
"253 -10 CURVE SMOOTH"
);
}
);
};
guideLines = (
{
angle = 177.8789;
position = "{172, 431}";
}
);
layerId = "014D4A40-7C7F-4023-B30E-1F55CE5EA091";
paths = (
{
closed = 1;
nodes = (
"427 -10 OFFCURVE",
"540 81 OFFCURVE",
"540 214 CURVE SMOOTH",
"540 346 OFFCURVE",
"444 421 OFFCURVE",
"270 428 CURVE SMOOTH",
"191 431 LINE",
"250 391 LINE",
"268 633 LINE",
"201 588 LINE",
"504 588 LINE",
"504 712 LINE",
"128 712 LINE",
"98 306 LINE",
"213 302 LINE SMOOTH",
"362 297 OFFCURVE",
"390 258 OFFCURVE",
"390 209 CURVE SMOOTH",
"390 159 OFFCURVE",
"349 120 OFFCURVE",
"260 120 CURVE SMOOTH",
"193 120 OFFCURVE",
"137 137 OFFCURVE",
"92 164 CURVE",
"56 37 LINE",
"103 4 OFFCURVE",
"188 -10 OFFCURVE",
"253 -10 CURVE SMOOTH"
);
}
);
width = 600;
}
);
leftKerningGroup = five;
rightKerningGroup = five;
unicode = 0035;
},
